<svg width="95" height="49" viewBox="0 0 95 49" fill="none" xmlns="http://www.w3.org/2000/svg">
<path d="M8.39306 48.2399C10.995 48.2236 12.5751 46.0908 14.1931 44.326C16.9519 41.3381 19.7196 38.3392 22.4784 35.3513C24.4495 33.2084 20.975 27.9663 18.7588 30.3657C17.9444 31.2436 12.2826 37.9681 9.2807 40.8403C13.642 25.6745 26.4298 14.5378 41.2331 9.60749C58.5435 3.83626 77.8705 8.19187 93.6318 16.2919C93.5053 16.2345 95.2597 10.6156 94.0181 9.97927C76.7908 1.1152 56.7427 -2.43238 38.2047 4.50053C23.0542 10.1602 11.5113 23.4307 8.18649 39.1936C8.11771 39.5022 8.0866 40.4705 8.09045 41.4854C6.95631 38.3751 6.25752 35.0995 5.0647 32.0053C3.63935 28.3117 -0.442506 30.36 0.953738 33.9661C2.27979 37.3784 3.23093 48.2883 8.40404 48.2488L8.39306 48.2399Z" fill="#262626"/>
</svg>
