<svg width="247" height="298" viewBox="0 0 247 298" fill="none" xmlns="http://www.w3.org/2000/svg">
<path d="M155.048 47.2098C154.001 45.0907 151.684 43.1111 149.412 42.1374C145.957 40.6518 143.741 39.9793 140.757 37.4C140.33 37.0297 138.216 34.5622 138.633 34.2363C140.075 33.9804 144.201 37.1422 144.894 37.0039C146.028 36.7781 144.918 33.3006 144.175 32.7133C147.268 33.1101 150.391 32.3884 153.252 31.3653C165.421 27.0141 166.178 16.2778 170.729 6.53033C171.216 5.48873 173.427 2.04608 173.359 1.383C173.328 1.07358 173.259 0.830159 172.914 0.704106C172.665 0.613167 168.242 1.16498 167.606 1.28225C163.836 1.97402 155.956 5.62855 152.864 7.8311C147.044 11.9777 143.886 17.0953 140.882 23.2032C140.009 23.3255 140.085 22.5443 139.535 22.0372C136.987 19.6847 133.516 18.3715 130.026 17.7479C128.374 17.4539 122.818 17.2285 121.923 16.5832C121.454 16.2542 121.814 15.8785 121.983 15.5203C123.228 12.8459 128.38 9.18549 120.836 9.23874C115.185 9.27846 109.198 12.0262 103.846 13.4461L103.351 13.1913C103.091 12.7189 103.018 11.7114 102.667 11.3579C100.974 9.65331 96.9239 14.8724 96.2507 14.3504C95.8684 12.9456 94.6206 11.4537 93.632 10.3266C91.7727 8.20661 88.4583 4.84559 86.3345 2.96567C85.3187 2.06637 83.5853 0.642335 83.4621 2.78497C84.7259 7.02357 85.4837 11.4069 85.2564 15.8081C81.9918 15.0713 78.7395 14.9503 75.4172 14.6835C74.315 14.5941 71.0363 13.444 70.6589 15.0537C70.2815 16.6634 74.3077 17.8519 74.1358 19.7572C74.0377 20.1564 68.9737 21.2668 69.3503 22.5492C60.1059 13.512 46.1673 8.65628 32.8212 10.0652C30.5571 10.3049 27.0737 11.5097 25.1615 10.8142C23.4963 10.2096 21.6583 8.38862 21.9012 11.7276C22.7389 23.1863 35.3717 33.6878 46.6827 36.728C51.4556 38.011 55.2458 37.811 60.1266 37.4167C58.1893 40.0975 56.2252 42.8279 54.8093 45.8017C53.8673 47.782 52.0473 52.1125 51.7026 54.1342C51.5632 54.9506 51.7752 55.8275 52.8326 55.8312C54.111 55.8338 55.2273 54.1888 56.5114 54.3577C54.4332 59.6829 54.5705 65.6927 53.1109 71.0996C51.8563 75.7357 48.7273 80.2204 47.5096 84.9416C47.2714 88.2316 53.7438 83.2829 55.0291 83.1297L48.9396 103.099C49.2624 105.347 52.7398 103.081 54.1006 103.027C54.7276 105.292 50.0482 120.234 50.7145 120.91C52.9108 121.349 52.7927 118.291 54.3674 117.409C53.3617 122.836 51.0634 128.792 51.3599 134.351C51.4363 135.766 51.5113 137.25 53.4359 137.055C53.7806 142.126 55.0095 147.151 55.3568 152.221C55.498 154.3 55.5991 156.773 55.5751 158.842C55.5297 162.507 54.5499 167.726 55.2175 171.218C55.453 172.443 56.2243 172.951 57.5371 172.478C58.2447 172.223 58.0026 171.449 58.7906 171.686C59.6381 176.494 61.3549 181.112 62.1354 185.941C63.2042 192.55 63.0453 198.927 62.1774 205.542L63.2563 206.699C60.6656 216.4 58.1862 226.218 57.7106 236.266L52.408 236.203C37.6668 233.927 22.2489 227.235 11.0767 217.973C8.91588 216.181 6.24705 212.803 3.56282 212.041C-0.991163 210.749 1.25381 218.946 1.76828 221.071C7.21776 243.58 32.279 265.042 54.7049 273.595C58.6796 275.109 62.4736 275.837 66.4901 276.969C66.7642 277.047 66.8624 277.678 67.1899 277.959C68.7767 279.327 70.3818 280.011 72.1837 281.047C72.2828 281.104 72.5816 281.037 72.7524 281.084L72.7364 281.344C72.4593 281.359 72.1464 281.269 71.8818 281.294C68.1989 281.633 66.7815 285.575 63.9649 286.674C62.1132 287.398 59.4658 287.239 57.4175 287.992C55.3128 288.766 52.0619 291.115 53.5073 293.461C55.0294 295.931 60.2975 293.808 62.5432 293.226C63.2744 298.171 70.9883 295.849 74.227 294.473C74.5623 297.505 78.3993 297.83 81.0017 297.48C83.7022 297.118 88.2663 294.59 90.6404 293.198C94.1469 291.143 92.8444 287.019 92.0926 283.871C102.457 280.967 109.889 272.592 113.428 263.351C114.946 264.081 117.444 263.765 119.281 263.707C122.937 263.591 126.631 263.241 130.257 262.811C136.203 265.855 136.703 272.334 141.455 276.498C143.113 277.952 144.316 277.383 143.64 280.215C143.382 281.3 142.09 282.59 141.781 283.906C141.396 285.542 141.474 287.321 142.437 288.786C144.365 291.72 146.966 291.037 150.015 291.385C156.746 292.148 167.954 293.864 174.39 292.982C175.552 292.824 176.489 292.09 177.231 292.009C178.767 291.839 181.709 292.773 182.785 291.909C185.34 289.855 182.966 286.466 181.109 284.78C178.036 281.993 172.761 281.428 169.581 278.627C172.426 276.885 174.748 274.545 176.632 271.922C184.181 261.419 185.203 249.369 183.793 237.016C183.612 235.426 182.673 232.317 182.803 231.025C182.999 229.065 185.05 224.914 185.6 222.373C189.372 204.97 183.443 187.213 175.264 171.635C177.876 171.948 180.585 170.376 183.031 170.04C186.974 169.501 192.573 169.873 196.325 168.745C201.477 167.196 205.146 164.026 209.182 161.068C212.663 158.516 216.391 156.243 219.563 153.332L219.98 153.358C220.023 153.98 220.373 154.453 221.095 154.095C222.08 153.606 223.744 149.503 224.762 148.35C226.381 146.513 229.96 144.572 231.974 142.653C236.95 137.913 238.611 133.297 238.839 126.697C239.017 121.504 238.427 116.453 235.278 111.974L246.976 73.4548C246.352 71.0029 244.755 70.4097 242.291 70.1222C238.542 69.6878 234.505 69.7189 230.705 69.4228C226.906 69.1268 220.435 67.6935 217.136 68.7168C214.881 69.4183 214.021 71.2132 213.275 73.1298C212.045 76.2956 211.334 79.6958 210.222 82.903C207.398 91.0429 204.327 99.1017 201.58 107.268C200.937 109.179 200.397 111.167 199.509 112.994C198.635 115.877 197.696 118.758 196.688 121.6C196.421 122.353 196.13 123.275 195.685 123.933C195 126.52 193.834 128.816 193.786 131.532C193.673 137.797 201.108 137.549 206.051 137.339C205.365 138.32 203.929 138.73 202.782 139.128C198.532 140.604 193.002 141.161 188.479 140.742C187.215 140.626 184.987 139.628 183.401 139.414C175.76 138.382 166.914 139.222 160.415 134.339C159.937 133.977 157.305 131.625 157.062 131.295C156.868 131.029 156.725 130.837 156.861 130.502L162.671 126.701C162.435 127.855 162.45 131.603 163.623 132.212C165.655 133.268 172.698 132.23 174.624 130.766C176.057 129.675 176.512 127.819 177.287 127.071C177.586 126.782 179.466 126.023 180.11 125.516C180.376 125.307 182.144 123.541 182.238 123.374C182.289 123.282 182.88 121.565 182.917 121.404C183.424 119.048 181.771 115.967 180.52 113.96C182.332 113.544 184.537 113.027 186.065 112.01C187.924 110.772 189.133 108.435 191.656 107.998L191.812 106.963C186.768 104.38 181.96 103.807 176.465 105.331C172.339 106.474 168.108 108.456 163.856 109.743C160.248 110.835 156.498 111.926 152.778 112.655C151.338 112.938 147.757 113.714 146.509 113.731C145.034 113.748 144.851 112.45 143.96 111.576C141.955 109.606 139.696 107.869 137.077 106.637C140.397 103.418 143.653 100.162 146.31 96.4292C146.502 96.4409 146.69 96.4525 146.882 96.4642L144.979 94.7516C144.61 94.5508 144.229 94.364 143.869 94.1516C141.267 94.0558 141.983 93.7604 141.395 92.404C141.33 92.2536 140.95 91.6324 140.872 91.5739C140.701 91.4463 140.155 91.4227 139.77 91.0989C139.302 90.7066 138.186 89.4668 137.856 89.2611C137.811 89.2339 137.101 88.9635 137.016 88.9436C132.946 88.0283 127.693 88.1509 123.769 86.5854C121.47 85.6686 115.236 80.235 113.865 78.2132C113.885 78.7148 114.093 79.694 114.323 80.1035C115.391 82.0041 118.365 84.0899 120.006 85.6401C119.246 85.7693 118.257 85.3744 117.507 85.1722C109.196 82.9356 99.8882 79.4005 92.8811 74.6444C87.3896 70.9183 84.1412 65.3184 76.2358 67.1165C75.2806 67.3338 74.4682 67.9259 73.4702 68.0259C71.7494 69.4484 68.5855 71.5367 68.801 73.9905C68.7868 74.2215 69.3747 74.2014 69.5009 74.1603C69.6135 74.1257 70.6629 72.7134 70.9062 72.3915C72.2516 70.6141 72.1685 70.5528 74.2436 69.4034C74.6004 69.2056 74.5833 69.1411 75.1332 68.9258C76.2492 68.4865 77.3234 68.0007 78.6264 68.0755C78.1341 84.7587 88.0878 102.538 105.394 108.82C105.585 108.829 105.774 108.843 105.965 108.855C106.28 108.872 106.69 108.831 106.806 109.172C106.985 109.161 107.194 109.196 107.377 109.207C108.022 109.254 108.174 109.52 108.218 109.525C120.376 111.194 130.429 106.767 136.212 96.702C137.148 95.0752 137.677 93.0111 138.556 91.5444C139.866 89.3621 139.906 94.1092 140.458 94.6775C140.55 94.7709 142.551 95.7745 142.826 95.884C143.337 96.0886 144.561 95.773 144.297 96.4305C143.999 97.1762 141.157 100.29 140.4 101.09C139.556 101.986 136.241 105.302 135.335 105.652C134.901 105.82 133.539 105.896 133.425 106.047C133.253 106.276 133.459 106.906 133.165 107.322C132.984 107.58 129.439 109.523 128.828 109.83C115.834 116.363 101.662 115.413 88.2365 110.166C82.4733 107.912 74.5299 103.453 70.7264 98.8415C64.5498 91.3491 61.402 79.2048 62.7721 69.9313C64.9816 54.9811 77.3476 53.0778 87.1741 64.4668C88.056 65.4897 89.2202 67.6599 90.062 68.3923C90.4292 68.7125 90.6466 68.8991 91.1999 68.8427C92.0558 68.1409 87.384 62.6711 86.6126 61.9064C83.8178 59.1263 79.8468 56.1741 75.6425 55.9192C75.5857 54.9981 77.3364 55.4103 78.0058 54.8753C79.5326 53.6582 76.7186 52.1778 76.2174 51.1684C77.9907 50.7815 80.2144 51.6303 81.6761 50.5311C82.1216 49.5285 79.8815 46.5822 79.387 45.4195C78.6094 43.5952 78.0721 41.456 78.0639 39.4835C78.4151 38.4311 83.5929 40.7933 84.6961 39.5331C85.3859 38.665 84.1723 35.5814 84.1452 34.2204C84.1248 33.2209 84.1757 32.1306 84.6441 31.227C86.2915 30.8763 93.3784 34.6269 94.1802 33.607L93.6146 29.3501C98.1551 29.9599 102.231 30.6317 106.494 32.2617C108.674 33.0956 111.045 35.4398 111.105 31.7557C115.781 33.2475 120.493 35.6105 123.708 39.1729C123.894 39.2331 124.079 39.3884 124.263 39.4729C125.616 39.6777 126.907 40.1716 128.215 40.5128C128.289 40.0683 128.009 39.5679 128.01 39.1702C126.742 36.1638 124.141 33.564 121.394 31.6289C121.112 31.4286 119.179 29.9581 119.322 31.0603C119.507 32.47 125.997 36.6747 126.007 39.0476C125.302 38.4553 124.679 37.6679 123.971 37.0705C120.581 34.2125 115.156 31.0347 110.577 30.4152C109.246 30.2361 108.89 30.3315 109.114 31.624C107.197 30.6964 105.166 29.8326 103.091 29.2639C101.316 28.7769 94.3672 27.3704 93.0273 28.0279C92.8348 28.1211 92.6323 28.1624 92.5682 28.3928L92.5953 31.948C92.1649 32.317 85.8564 28.9582 84.2154 29.5045C81.3015 30.4757 82.762 36.4006 83.2954 38.5614C81.7493 38.1593 77.2468 36.8001 76.6912 38.8284C75.8106 42.04 78.4928 46.2312 79.4876 49.2355C78.3528 49.2929 73.7665 49.388 73.2551 50.1792C72.2899 51.6773 75.7784 52.3228 75.7673 53.7938C74.9181 53.9566 71.8875 54.5545 71.385 54.985C70.988 55.3244 71.17 55.9603 70.7349 56.2778C70.3357 56.5682 68.8268 57.0201 68.1097 57.4741C64.2946 59.8862 61.913 65.3978 61.3278 69.5427C59.7201 80.8932 63.8341 93.4994 71.9493 102.116C72.1597 102.676 70.633 102.431 70.0271 102.916C68.0219 104.514 72.1628 104.301 73.0292 104.503C75.9887 105.194 79.99 108.424 81.7448 110.701C89.7125 121.039 84.336 132.799 98.9329 139.408C102.491 141.019 107.67 143.064 111.316 140.835C113.76 139.339 117.551 135.041 119.966 132.978C123.825 129.685 128.55 125.471 132.654 122.584C134.598 121.217 136.666 120.016 138.658 118.722C143.743 115.419 149.347 115.161 155.151 113.728C159.923 112.548 164.665 111.069 169.192 109.264L169.742 110.076C174.749 108.408 179.298 113.468 180.732 117.422C182.166 121.375 181.017 122.647 177.554 124.937C177.769 122.968 176.409 120.996 175.163 119.468C174.292 118.397 171.44 115.391 169.981 115.726L169.476 116.325C172.759 119.382 178.203 123.832 174.187 128.323C171.821 130.971 167.399 130.573 164.018 130.493C164.611 129.087 164.479 127.378 163.42 126.205L167.118 126.692C167.36 125.882 166.682 125.082 166.105 124.505L164.423 123.87C164.147 123.87 163.802 123.783 163.566 123.817C163.573 124.384 162.649 124.747 162.188 125.051C157.624 128.054 153.042 131.081 147.894 132.916C145.915 133.622 143.634 136.46 142.268 138.016C138.294 142.542 135.067 147.641 131.139 152.159C131.032 152.316 130.939 152.499 130.821 152.672C130.569 153.045 130.308 153.275 130.201 153.432C129.46 154.524 128.539 155.693 127.704 156.738C127.131 157.454 127.371 157.025 127.1 157.233C126.99 157.316 125.745 158.963 125.451 159.328C122.876 162.505 120.378 165.742 117.778 168.897C117.26 168.929 117.554 168.305 117.618 168.026C118.163 165.738 119.646 163.439 119.268 161.01L115.173 169.411C114.235 170.298 107.459 173.125 106.041 173.377C103.035 173.911 98.1418 171.073 96.8762 171.376C95.2608 171.763 97.5715 174.286 98.2006 174.754C94.5027 174.65 91.2661 172.124 88.043 170.494C87.3745 170.155 85.7223 169.724 85.4041 169.507C85.1263 169.317 85.102 168.295 84.2213 168.844L83.9609 170.82L69.4947 159.755C67.9655 159.034 67.5839 160.497 67.379 160.492C63.9815 156.21 61.8967 150.425 60.8536 145.202C60.473 143.297 59.5386 133.331 58.6136 132.669C58.2717 132.409 57.9808 132.735 57.7472 132.77C58.0764 138.308 58.6754 144.21 60.0812 149.611C60.8842 152.696 64.0308 160.992 66.6587 162.847C67.7457 163.614 69.0207 163.672 69.1424 162.2L69.5644 162.226C72.5976 164.594 75.5178 167.133 78.6502 169.384C79.7287 170.161 83.8839 173.239 84.9198 173.207C86.9943 173.141 85.1509 171.107 85.7235 170.135C86.8539 171.653 88.7369 172.311 90.2186 173.463C89.787 174.022 89.5128 174.677 89.3535 175.345C87.5767 182.754 89.7012 192.661 92.3737 199.804C95.9682 209.421 104.329 219.061 111.376 226.772C112.365 227.853 113.81 228.732 114.324 230.145C116.359 232.447 117.247 235.691 117.537 238.591L118.392 238.643C119.134 229.959 110.889 224.368 105.574 218.312C98.8503 210.647 94.189 203.071 91.7618 193.382C90.1526 186.963 89.2965 180.618 91.3597 174.204C93.9847 175.375 97.0825 176.646 100.014 176.083C100.879 175.099 98.6635 173.897 98.3137 173.036C100.652 173.64 103.073 174.589 105.536 174.535C108.112 174.478 112.579 173.072 114.339 171.354L114.25 172.681C114.879 173.628 116.775 171.833 117.361 171.41C121.401 168.501 125.497 163.004 128.722 159.07C131.835 155.27 134.151 150.745 138.631 148.303C140.123 147.489 141.85 146.987 143.358 146.208C146.154 144.761 148.353 142.867 150.359 140.569C151.011 140.455 150.92 141.296 151.021 141.408C169.348 161.478 188.009 190.709 184.487 217.946C180.625 247.819 152.634 260.291 123.085 262.036C120.077 262.213 117.026 262.119 114.075 262.321C116.615 254.603 117.109 247.268 115.769 239.281L115.198 239.246C115.553 242.167 116.057 246.264 115.74 249.122C115.658 249.871 115.457 250.227 115.357 250.695C115.174 253.253 114.843 254.583 114.111 257.003C111.363 266.09 102.957 278.042 92.9396 281.209C88.7652 282.528 87.4723 281.17 83.5431 280.675C74.6585 279.558 70.1384 280.807 65.5079 272.298C61.0406 264.088 61.7626 257.02 60.9134 248.373C60.5538 244.704 59.436 241.002 59.3843 237.291C59.331 233.52 60.0822 228.641 60.7179 224.875C61.8206 218.335 63.8806 211.974 65.2583 205.498C65.1821 204.422 64.0362 204.574 63.9639 204.294C63.7984 203.644 64.378 202.257 64.4596 201.44C65.3461 192.373 63.8254 185.625 61.9293 176.93C61.0867 175.651 61.0887 173.942 60.7603 172.602C60.0527 169.72 60.098 167.089 56.8767 170.502C56.7461 165.415 57.4186 160.316 57.2328 155.228C57.042 150.006 55.9124 144.821 55.3665 139.641C55.2367 138.41 55.6137 134.528 54.5162 134.278L53.0484 134.618C53.3874 127.317 55.3957 120.21 57.4958 113.237L56.8644 112.805C55.1285 113.27 54.6898 115.108 53.3267 116.015C54.006 113.084 55.0339 110.174 55.5496 107.206C55.7897 105.82 56.3827 103.396 55.6152 102.18C54.5528 100.497 52.1415 102.239 50.7068 102.554C50.1173 101.868 55.5341 88.7203 56.1259 86.66C58.4824 78.4623 55.4879 80.9222 49.9815 83.8848C49.7706 83.9354 49.8314 83.6731 49.8565 83.4769C50.3009 80.2142 53.7354 75.2527 54.7563 71.6836C55.7937 68.0593 56.0691 63.9906 56.7761 60.2632C57.0714 58.7046 58.5591 54.344 58.2562 53.1881C58.171 52.8607 57.9104 52.6056 57.5851 52.4612L54.2795 53.5548C55.4848 49.5089 57.112 45.4912 59.4316 41.8941C59.9202 41.1333 62.2794 37.7486 62.8062 37.3952C63.8297 36.7061 69.0568 37.7461 69.2239 38.6691C67.1063 42.1467 66.9365 46.339 68.1111 50.145C69.7944 47.4438 69.8756 44.0124 71.1086 41.0176C71.5383 39.9725 72.2948 39.433 72.3325 39.3328C72.4729 38.9729 71.982 37.1929 72.2577 36.2994L71.5791 33.3316C68.8342 29.4758 63.9931 27.0733 59.5267 25.211C54.2162 22.997 48.4393 21.999 42.9966 19.8818C39.1676 18.393 35.0262 16.5946 31.7397 14.2384C30.9765 13.9842 30.1078 14.5509 30.226 15.3709C31.0598 15.7172 34.94 20.4528 36.3069 21.5884C40.3229 24.9215 45.5239 27.2485 50.6322 28.7254C56.8468 30.5238 64.0252 30.7606 68.5653 35.6756C66.841 35.4334 65.3955 35.0228 63.5911 34.9733C56.6067 34.7899 53.1858 36.6941 45.7042 34.2739C35.5836 30.999 26.5533 23.4515 24.6043 13.4282C24.5542 13.1713 24.1475 12.8096 24.3861 12.3507C26.5215 13.2673 28.8005 12.4843 30.9896 12.2229C48.0544 10.1922 68.0826 17.1267 73.2772 33.6991C73.6469 34.8811 73.4404 36.406 75.1311 36.2069C75.1592 35.4032 75.3384 34.4965 75.252 33.7151C74.826 29.8865 72.4716 26.4866 70.1768 23.4028C74.2501 22.3171 79.1231 20.8899 74.6146 16.4917C75.9856 16.6147 77.3839 16.5953 78.7559 16.7452C80.2377 16.9067 86.1958 18.3843 87.0191 17.7855C87.5478 17.4005 87.4106 14.7416 87.3908 13.9472C87.325 11.1096 86.6756 8.30952 86.3289 5.506C89.9173 8.43228 92.9837 11.805 95.81 15.3607C96.7502 15.5598 100.488 12.8598 101.117 12.8105C102.164 12.7257 101.282 15.4027 103.486 15.3302C109.805 13.7108 116.136 10.7741 122.845 11.197C121.329 13.0982 117.329 17.6736 121.989 18.5665C127.088 19.5425 131.681 18.8596 136.463 21.5538C137.805 22.312 138.787 23.4704 140.094 24.2484C139.812 25.6272 137.872 26.2113 138.173 27.8283C135.79 26.9918 132.857 25.2283 130.403 24.7486C129.139 24.5029 128.162 25.0728 129.289 25.9252C130.116 26.5518 133.345 27.3156 134.717 28.0195C137.212 29.2974 139.844 31.5159 141.549 33.6191C139.423 32.6836 130.178 30.2287 128.5 31.0851C127.451 31.6189 130.228 33.4143 130.647 33.8719C130.928 34.1796 133.745 37.5004 133.557 37.6499L128.11 38.4368C127.976 38.5677 128.051 38.7553 128.031 38.9103C130.109 39.4329 132.628 38.95 134.801 38.8122L135.205 38.1974L130.722 32.4268C132.127 32.7739 134.361 32.7715 135.611 33.3264C136.768 33.839 137.546 36.0954 138.346 37.1255C139.682 38.8473 141.505 39.8033 143.394 40.9196L139.041 41.8491L137.55 42.6853C137.879 42.7689 138.501 43.2292 138.946 43.3028L139.518 43.3378C144.06 41.3753 150.284 42.7764 153.074 46.8278L153.629 47.1278C154.072 47.2086 154.654 47.1124 155.058 47.2153L155.048 47.2098ZM168.071 7.83444C164.506 16.0095 164.222 23.3945 155.343 28.3375C152.801 29.7512 150.013 31.04 146.956 31.2556C146.652 31.2761 145.901 31.418 146.003 30.963C154.84 29.4489 154.949 20.1911 159.02 14.285C159.699 13.3015 160.815 11.9958 161.695 11.1661C162.851 10.08 166.348 8.56122 165.102 7.12797L161.988 8.79221C160.544 10.4513 158.528 10.9747 157.348 12.2497C152.743 17.2151 149.877 24.6642 143.411 27.822C141.931 28.5465 139.91 29.8408 138.718 28.1229C142.537 26.4603 143.668 21.9973 145.549 18.7809C150.091 11.0123 157.133 6.56455 166.026 3.71887C167.523 3.23942 169.023 2.6893 170.665 2.94113C169.693 4.49736 168.796 6.16798 168.071 7.83444ZM144.558 31.1382L145.698 31.2079L145.682 31.4681L144.528 31.6659L144.561 31.1383L144.558 31.1382ZM198.676 135.807C196.414 135.275 195.075 133.041 195.256 130.975L215.587 71.0333C216.514 69.9014 218.081 69.619 219.521 69.5144L243.923 71.4082L245.268 72.9452C242.7 73.032 240.231 72.2684 237.725 71.9563C232.589 71.3149 225.456 70.295 220.421 71.0192C219.144 71.2022 217.728 71.3864 216.945 72.4514L197.336 130.87C196.932 132.405 197.167 133.84 198.046 135.178C198.291 135.551 198.744 135.423 198.678 135.804L198.676 135.807ZM219.602 136.024L200.254 135.901C197.411 134.158 197.524 132.139 198.295 129.348C200.478 121.444 204.137 113.377 206.815 105.561C210.514 94.7628 213.565 83.7715 217.505 73.0495C217.923 72.277 219.386 72.2005 220.303 72.0346C225.981 71.0032 230.442 71.923 235.959 72.6463C239.036 73.0519 242.129 73.4169 245.213 73.7448L234.129 109.512C233.687 109.595 233.661 109.378 233.429 109.208C232.5 108.529 231.648 107.359 230.505 106.571C227.887 104.771 223.951 103.522 220.754 103.107C220.461 104.8 221.589 106.314 222.183 107.856L221.311 108.356C220.913 109.445 224.656 114.743 224.325 115.031C221.058 113.003 216.7 112.077 214.372 115.734C213.888 116.495 213.567 118.475 213.455 118.583C213.371 118.665 211.865 118.861 211.14 119.398C206.436 122.883 210.775 128.806 214.134 131.567L219.599 136.018L219.602 136.024ZM115.651 86.3009L130.928 89.7596C129.167 90.6671 127.22 93.6353 125.644 94.3735C125.251 94.5569 124.956 94.6878 124.499 94.5548L116.844 91.3625L115.654 86.2987L115.651 86.3009ZM113.154 108.482C113.079 104.47 109.184 103.37 105.5 104.287C104.439 104.549 102.509 105.871 102.22 105.904C101.905 105.944 100.074 105.121 99.8803 104.89C99.4416 104.363 99.7523 103.198 99.5574 102.385C99.1409 100.637 97.2002 99.6761 95.4455 99.4589C94.5238 99.3439 93.1562 99.636 92.6786 99.4872C92.4102 99.4024 90.665 97.5701 90.4668 97.2407C89.8049 96.1483 90.6759 96.1455 90.9472 95.2371C91.3015 94.0482 91.1118 92.6333 90.0797 91.7866C94.5724 89.953 99.9922 89.4354 104.377 91.893C108.16 94.0136 109.618 96.9705 112.549 99.2928C112.917 99.5862 113.784 100.083 113.994 99.3641C114.287 98.3522 109.394 93.4082 108.389 92.5119C112.804 92.3697 117.008 94.9017 119.342 98.2588C119.724 98.8094 121.116 101.16 121.039 101.65C120.953 102.197 119.887 102.722 119.468 103.416C118.701 104.692 118.622 106.542 118.305 107.977L113.159 108.487L113.154 108.482ZM89.5485 95.6078C89.0843 96.0139 87.105 92.9762 86.9117 92.6105C86.0014 90.8903 88.6078 91.2914 89.4548 92.5391C90.2201 93.6623 89.7515 94.4415 89.5485 95.6078ZM221.82 104.505L223.39 104.601L223.5 105.132L222.028 105.845L221.82 104.505ZM233.541 137.943C230.414 142.523 226.123 144.252 223.346 147.706C222.773 148.421 221.4 151.954 221.179 152.079C221.043 152.156 220.55 151.816 220.255 151.835C219.409 151.893 212.375 157.554 211.061 158.518C209.733 159.491 204.541 163.686 203.705 164.064C203.023 164.372 202.071 164.372 201.124 164.744C199.615 165.335 197.851 167.033 196.916 167.386C195.845 167.789 187.448 168.632 186.164 168.548C185.443 168.502 185.078 168.011 184.569 167.999C182.911 167.958 178.978 169.668 177.084 170.008C176.629 170.09 175.166 170.267 174.767 170.262C173.834 170.249 173.797 169.165 173.436 168.584C166.875 158.086 160.093 148.103 151.298 139.025L151.017 133.954L155.242 131.594C155.879 131.579 156.551 132.865 156.955 133.256C165.093 141.112 171.965 139.566 182.442 140.937C184.123 141.157 185.868 141.832 187.528 142.051C192.337 142.687 200.041 142.475 204.661 141.091C207.073 140.367 209.946 137.883 212.032 137.535C213.444 137.299 220.657 137.657 220.993 137.285C221.131 137.132 221.328 136.493 221.315 136.27C221.265 135.291 215.643 131.105 214.519 129.997C212.428 127.936 209.96 125.18 210.826 122.168C211.254 120.676 211.987 119.53 213.853 119.693C218.111 120.066 223.237 125.678 225.455 128.845C225.64 129.105 225.703 129.441 225.729 129.748C226.413 129.878 226.374 129.741 226.277 129.171C226.162 128.481 225.518 126.828 225.078 126.25C224.108 124.977 220.836 121.88 219.475 120.896C218.115 119.912 216.722 119.195 215.041 118.731C214.713 118.279 215.353 117.317 215.608 116.889C216.807 114.883 218.192 114.348 220.62 114.923C221.888 115.223 225.349 117.568 226.416 118.48C228.116 119.934 229.233 122.196 230.086 124.16L230.663 124.063C230.714 123.49 230.707 122.911 230.768 122.342C229.894 121.104 229.572 119.698 228.535 118.507C228.188 118.11 226.365 116.815 226.299 116.691C226.149 116.404 226.32 115.575 226.122 114.945C225.582 113.243 222.589 109.577 222.488 108.333C222.434 107.671 222.982 107.407 223.389 106.99C226.975 103.326 232.547 110.042 234.159 112.889C238.425 120.428 238.431 130.782 233.544 137.939L233.541 137.943ZM183.53 111.469C183.602 112.225 180.149 113.186 179.882 113.13C178.112 110.537 175.175 108.107 171.674 108.347C172.086 107.891 173.114 107.647 173.739 107.412C177.342 106.056 182.266 104.614 186.01 106.291C187.298 106.868 188.055 107.38 187.522 108.741C186.989 110.102 185.091 111.538 183.53 111.472L183.53 111.469ZM98.5088 103.871L94.3826 101.092C94.3792 100.375 96.699 101.159 97.1041 101.374C98.0952 101.903 98.405 102.859 98.5089 103.869L98.5088 103.871ZM121.261 103.743C122.393 102.831 126.339 102.665 126.02 104.613C125.848 105.659 121.273 107.29 120.089 107.586C119.825 107.209 120.766 104.14 121.261 103.741L121.261 103.743ZM104.066 106.869C103.712 106.371 105.712 105.552 106.076 105.454C108.799 104.723 111.68 105.531 112.001 108.419C109.258 108.441 106.634 107.683 104.066 106.867L104.066 106.869ZM129.036 111.331C129.081 111.295 129.818 111.191 130.184 110.984C131.034 110.504 135.185 107.763 135.654 107.799C139.038 109.161 141.834 111.66 144.052 114.371C142.331 114.285 138.713 116.868 137.483 116.637C136.755 116.499 133.021 113.671 131.991 113.057C131.077 112.513 130.349 112.288 129.426 111.882C129.183 111.777 128.493 111.781 129.037 111.329L129.036 111.331ZM130.842 114.629C132.599 115.63 134.224 116.835 135.966 117.864C135.067 119.959 132.499 120.18 130.557 121.523C126.747 124.155 122.208 128.249 118.627 131.302C116.334 133.259 112.165 137.882 109.835 139.15C107.29 140.539 104.553 139.962 101.848 139.279C98.3349 138.39 96.196 137.1 93.9111 134.456C87.7864 127.362 89.8273 117.188 83.8017 109.892C95.6828 115.354 108.642 117.602 121.544 114.333C122.837 114.005 125.486 112.808 126.538 112.774C127.977 112.728 129.698 113.978 130.844 114.632L130.842 114.629ZM137.755 146.975C140.412 143.919 142.666 140.027 145.408 137.088C145.704 136.772 147.915 134.677 148.107 134.559C148.468 134.337 148.71 134.288 149.139 134.373C151.245 139.894 145.078 143.426 140.785 145.782L137.757 146.975L137.755 146.975ZM3.4265 218.566C3.00914 216.788 2.33679 215.007 2.3223 213.18C5.27268 213.205 5.91077 215.46 7.65947 217.236C8.75414 218.35 10.269 219.349 11.3368 220.515C9.41623 220.988 7.28592 221.448 6.02392 222.982C6.10867 223.316 5.89075 223.911 5.94281 224.307C6.33339 224.416 6.51349 224.224 6.81596 224.097C7.68047 223.727 8.20054 222.924 9.19472 222.5C9.97005 222.169 12.0101 221.679 12.8152 221.806C14.6811 222.098 20.5009 227.682 23.213 228.031C23.5787 228.547 20.6317 229.628 20.0898 229.971C17.7686 231.444 16.4433 233.282 15.851 235.823C15.3469 237.998 15.5888 239.978 15.7448 242.201C10.9584 236.539 6.59056 229.628 4.39256 222.684C3.95402 221.295 3.75147 219.963 3.42374 218.568L3.4265 218.566ZM182.502 240.7C183.329 256.254 178.93 278.811 158.302 279.921C152.64 280.226 144.345 278.032 140.622 273.643C137.462 269.915 137.245 266.832 133.022 263.022C132.827 262.847 132.481 262.999 132.697 262.395C152.249 260.138 172.775 250.995 181.213 233.705C181.655 233.778 181.629 234.123 181.713 234.426C182.146 235.99 182.415 239.028 182.502 240.7ZM17.6915 238.593C17.6951 238.362 17.4225 237.959 17.4696 237.403C17.5765 236.131 18.3912 234.038 19.2301 233.013C20.0689 231.988 23.6882 229.51 25.0196 229.465C25.995 229.432 30.6646 231.929 32.0536 232.49C35.9945 234.083 40.0401 235.514 44.2131 236.497L39.8284 238.242C35.9085 239.916 30.4544 245.508 29.6535 249.437C29.3228 251.057 28.8647 255.017 30.9946 255.637C31.1328 253.938 30.4654 252.591 30.7178 250.832C31.4703 245.545 37.5444 240.226 42.7498 238.482C47.1818 236.996 49.991 237.737 54.4414 238.185L57.9022 237.865L58.1721 241.708C58.0424 242.193 57.2453 242.364 57.0388 242.6C53.6158 246.515 51.8883 256.34 52.1621 261.324C52.187 261.777 52.9479 264.647 53.4426 263.228C53.7714 262.284 53.58 260.425 53.7255 259.294C54.3059 254.797 55.0887 249.917 57.1299 245.798C57.439 245.175 57.6744 243.95 58.6717 244.033C59.6435 248.358 59.2372 252.761 59.5937 257.124C59.8942 260.811 60.9988 266.019 62.2758 269.526C62.8861 271.203 63.9959 272.758 64.5553 274.451C52.0448 271.15 40.2301 264.603 30.3803 256.776C27.8638 254.777 18.9764 247.087 18.1745 244.629C17.5764 242.794 17.6724 240.496 17.699 238.599L17.6915 238.593ZM147.141 279.504C153.703 281.892 159.061 282.181 165.81 280.317C166.479 280.131 167.666 279.357 168.154 279.499C171.6 282.47 178.45 283.346 181.11 286.779C182.173 288.152 182.908 289.393 181.68 290.885L177.292 290.665C175.303 288.772 172.783 286.401 169.677 286.209C169.687 286.522 169.49 286.771 169.806 287.032C170.524 287.632 172.294 288.29 173.323 289.136C173.99 289.682 174.541 290.311 175.121 290.93C174.714 291.474 174.133 291.175 173.673 291.242C171.223 291.595 168.482 291.166 165.941 291.035C163.567 290.911 161.165 290.779 158.796 290.597C155.153 290.316 149.774 290.169 146.374 289.576C143.633 289.098 142.948 286.84 143.517 284.59C144.01 282.639 146.165 280.996 145.461 278.874C145.647 278.727 146.796 279.38 147.143 279.507L147.141 279.504ZM88.3694 283.621C89.204 283.741 90.0998 283.676 90.9405 283.781C90.1611 286.457 92.7921 289.508 89.8826 291.695C89.2345 292.182 88.7693 292.605 87.8178 292.632C85.7904 294.034 83.8416 295.528 81.2477 296.04C79.8097 296.323 77.4594 296.423 76.4621 295.396C74.4649 293.338 78.972 290.666 78.1332 289.37C77.0368 287.682 74.8868 292.334 74.6244 292.623C73.3436 294.033 67.1397 295.24 65.3334 294.449C63.3042 293.558 65.1545 291.697 63.5491 291.276C62.477 290.996 57.0207 293.83 55.1106 292.756C55.982 289.136 60.7452 289.633 63.7255 288.954C66.6524 288.286 68.5129 285.571 70.5731 283.721C71.4139 282.964 72.9832 282.299 73.0229 281.349C77.7616 282.848 82.801 282.57 87.6972 283.3C88.0622 283.354 88.3227 283.611 88.3722 283.619L88.3694 283.621Z" fill="#0B0908"/>
<path d="M185.807 55.4772C190.782 61.5073 189.74 71.04 188.074 78.0183C187.709 79.5506 186.452 84.2768 185.709 85.4101C183.516 88.7513 175.664 90.1402 171.718 90.4868C170.199 90.6209 168.572 90.4285 167.199 90.5446C163.317 90.8732 159.433 91.6532 155.477 91.5136C153.955 91.8451 152.772 95.3067 151.481 96.0697C150.304 96.7664 148.214 96.5384 146.872 96.4563C146.68 96.4445 146.491 96.433 146.3 96.4213L147.851 97.041C152.414 100.813 157.41 104.125 162.046 107.809C162.701 108.327 163.785 108.892 163.847 109.733C168.098 108.445 172.329 106.464 176.456 105.32C181.95 103.797 186.759 104.37 191.802 106.953L191.646 107.988C189.125 108.424 187.917 110.762 186.055 112C184.527 113.017 182.325 113.534 180.51 113.95C181.761 115.957 183.414 119.038 182.907 121.394C182.873 121.555 182.279 123.271 182.228 123.363L193.776 131.519C193.824 128.803 194.991 126.507 195.675 123.92C195.846 123.272 195.606 121.388 196.678 121.588C197.686 118.745 198.625 115.864 199.499 112.981C199.802 111.982 199.887 110.862 200.291 109.72C200.555 108.968 201.003 107.841 201.573 107.256C204.319 99.0915 207.388 91.0301 210.215 82.8904C211.327 79.6832 212.038 76.283 213.268 73.1171C214.014 71.2006 214.874 69.4032 217.129 68.7041C220.425 67.6807 227.046 69.1256 230.698 69.4102C234.351 69.6948 238.538 69.6729 242.284 70.1096L185.81 55.4797L185.807 55.4772Z" fill="#AFE3FC" fill-opacity="0.52"/>
<path d="M136.969 42.6448L134.23 45.135L133.669 44.9665L134.112 42.4675L132.931 42.5514C129.091 51.3003 132.256 60.7073 141.633 64.8738C139.591 65.7861 137.294 66.1751 135.366 67.3311C134.912 67.6035 132.89 68.9636 133.319 69.5537C135.969 68.354 139.173 66.9345 142.099 66.4912C145.767 65.9347 148.37 67.3363 151.93 67.7641C154.531 68.0771 157.493 68.1681 160.087 68.0022C157.942 70.1578 155.203 72.443 153.853 75.1451C153.728 75.3961 153.345 75.9292 153.707 76.1197C157.897 72.398 161.502 66.8417 168.151 67.4293C167.113 70.4238 167.302 73.6546 166.354 76.6814C165.016 80.9488 161.877 82.2136 164.982 87.2703C165.228 87.671 166.562 88.8338 166.25 89.1247C163.334 89.3977 160.384 89.7907 157.451 89.9138C152.927 90.1055 147.642 90.6118 143.86 87.969L136.824 82.5375C136.555 82.7578 138.127 84.621 138.392 84.9008C140.001 86.593 142.279 88.0504 144.14 89.5042C142.071 89.9877 139.781 88.7615 137.847 89.2508C138.176 89.4564 139.292 90.6962 139.76 91.0885C140.145 91.4123 140.688 91.4358 140.862 91.5635C141.098 90.9703 141.63 91.0907 142.167 91.0967C145.743 91.1252 149.342 91.8581 152.913 91.5055L150.342 95.2946L144.972 94.7438L146.874 96.4564C148.216 96.5386 150.307 96.7666 151.484 96.0698C152.775 95.3069 153.957 91.8452 155.48 91.5138C159.436 91.651 163.32 90.8734 167.202 90.5448C168.575 90.4287 170.202 90.6186 171.72 90.487C175.667 90.1404 183.518 88.749 185.712 85.4103C186.455 84.2769 187.712 79.5508 188.077 78.0184C189.743 71.0402 190.784 61.505 185.81 55.4773C185.551 55.3248 185.268 55.2269 184.969 55.1598C183.638 54.8611 182.398 54.3533 181.002 54.3849C175.938 54.5021 171.222 62.4773 168.632 65.887C165.255 65.9609 161.965 66.8481 158.579 66.8434C154.057 66.8375 148.751 66.0442 144.525 64.5188C144.257 64.4219 143.875 64.4351 143.98 64.0925C151.907 64.2629 157.829 58.0333 156.473 50.7016C156.269 49.6031 155.674 48.6197 155.606 47.5099C155.352 47.4456 155.146 47.2353 155.05 47.2099C154.646 47.1071 154.062 47.2031 153.622 47.1225C154.728 50.4533 155.655 52.8554 154.146 56.2751C151.64 61.9573 143.929 64.2456 138.35 60.7753C135.636 59.0862 132.707 53.7621 132.769 50.7298C132.838 47.4172 136.172 44.878 138.941 43.3C138.496 43.2264 137.871 42.766 137.545 42.6825C137.374 42.6403 137.147 42.6899 136.974 42.6476L136.969 42.6448ZM133.503 45.359L133.487 45.624C133.306 45.5251 133.312 45.4351 133.503 45.359ZM183.279 55.9154C183.841 56.0597 184.437 56.5111 184.869 56.8768C190.318 61.4789 187.612 78.2633 184.73 83.8199C183.093 86.9779 177.238 88.1986 173.742 88.6607C169.668 89.1996 167.452 89.723 165.98 85.4521C164.894 82.3056 166.968 80.9511 167.975 78.3866C169.546 74.3801 168.794 69.7872 170.535 65.8399C172.169 62.1375 178.306 54.6372 183.278 55.9179L183.279 55.9154Z" fill="#4F88A4"/>
<path d="M155.603 47.5098C155.669 48.6194 156.267 49.6029 156.47 50.7015C157.826 58.0331 151.902 64.2626 143.977 64.0923C143.875 64.4351 144.255 64.4217 144.522 64.5186C148.751 66.0442 154.057 66.8375 158.576 66.8432C161.962 66.8479 165.252 65.9608 168.63 65.8868C171.219 62.4772 175.935 54.5019 180.999 54.3848L181.015 54.1197C172.701 52.4613 163.89 49.6132 155.603 47.5098Z" fill="#AFE3FC" fill-opacity="0.52"/>
<path d="M181.015 54.1197L180.999 54.3848C182.396 54.3531 183.635 54.861 184.967 55.1597C184.202 53.8999 182.271 54.3699 181.015 54.1197Z" fill="#77592F"/>
<path d="M72.1766 281.034L71.8747 281.282C72.1393 281.256 72.4522 281.346 72.7293 281.332L72.7453 281.071C72.5719 281.024 72.2757 281.091 72.1766 281.034Z" fill="#FCB38C"/>
<path d="M128.018 38.9046C128.038 38.7497 127.963 38.5644 128.097 38.4311L133.544 37.6443C133.73 37.4921 130.915 34.1739 130.634 33.8662C130.218 33.4063 127.439 31.6132 128.487 31.0794C130.162 30.2228 139.41 32.6779 141.536 33.6134C139.831 31.5102 137.196 29.294 134.704 28.0139C133.332 27.31 130.103 26.5461 129.276 25.9195C128.152 25.0673 129.129 24.4974 130.39 24.7429C132.844 25.2227 135.778 26.9862 138.16 27.8227C137.859 26.2057 139.8 25.6215 140.081 24.2428C138.774 23.4647 137.793 22.3064 136.45 21.5481C131.669 18.8515 127.075 19.5368 121.976 18.5608C117.316 17.6679 121.316 13.0925 122.832 11.1913C116.123 10.7685 109.795 13.7028 103.473 15.3245C101.27 15.3971 102.149 12.7223 101.105 12.8048C100.475 12.8566 96.7374 15.5541 95.7972 15.355C92.9709 11.7993 89.9045 8.42661 86.3161 5.50034C86.6628 8.30386 87.3124 11.1015 87.378 13.9415C87.3978 14.7359 87.5349 17.3948 87.0062 17.7798C86.1829 18.3786 80.2249 16.901 78.7431 16.7395C77.3737 16.5898 75.9728 16.609 74.6018 16.486C79.1103 20.8842 74.2371 22.3139 70.164 23.3971C72.4562 26.4808 74.8133 29.8784 75.2392 33.7094C75.3256 34.4908 75.1464 35.3975 75.1183 36.2012C75.1154 36.2474 75.4053 36.5409 75.3427 37.0911C75.0909 39.2698 73.0061 40.2331 71.0959 41.0095C69.8629 44.0043 69.7791 47.4356 68.0984 50.1369C66.924 46.3285 67.0936 42.1386 69.2113 38.661C69.0441 37.7379 63.817 36.698 62.7935 37.3871C62.2667 37.7405 59.9101 41.1253 59.4189 41.886C57.0991 45.4855 55.4721 49.5008 54.2668 53.5467L57.5724 52.4531C57.8978 52.5951 58.1583 52.8526 58.2435 53.18C58.5464 54.3359 57.0586 58.6989 56.7634 60.255C56.0538 63.9823 55.7786 68.0486 54.7436 71.6755C53.7227 75.2446 50.291 80.2038 49.8439 83.4688C49.8161 83.6648 49.7553 83.9271 49.9689 83.8767C55.478 80.9118 58.4698 78.4542 56.1132 86.6519C55.5214 88.7122 50.1046 101.86 50.6941 102.545C52.1287 102.233 54.5375 100.489 55.6026 102.172C56.37 103.388 55.7771 105.812 55.537 107.198C55.0212 110.166 53.9933 113.076 53.314 116.007C54.6744 115.102 55.1157 113.264 56.8518 112.797L57.4831 113.229C55.3828 120.205 53.3746 127.311 53.0357 134.609L54.5035 134.27C55.601 134.52 55.224 138.402 55.3539 139.633C55.9023 144.813 57.0294 149.998 57.2201 155.22C57.4059 160.308 56.7335 165.404 56.864 170.494C60.0879 167.081 60.0401 169.712 60.7477 172.594C61.9102 173.802 61.6046 175.485 61.9166 176.922C63.8101 185.616 65.3308 192.365 64.4469 201.431C64.3679 202.249 63.7884 203.636 63.9512 204.286C64.0209 204.566 65.1694 204.414 65.2456 205.49C63.8677 211.969 61.8078 218.33 60.7052 224.867C60.0694 228.635 59.3208 233.514 59.3716 237.283C59.4234 240.994 60.5412 244.696 60.9007 248.365C61.7498 257.015 61.028 264.08 65.4952 272.29C70.1257 280.799 74.6458 279.55 83.5304 280.667C87.4623 281.162 88.7524 282.522 92.9269 281.201C102.945 278.034 111.351 266.082 114.098 256.995C114.332 255.025 114.637 253.015 115.045 251.073C115.097 250.828 115.34 250.713 115.345 250.687C115.381 250.186 115.233 249.372 115.728 249.114C116.045 246.256 115.54 242.159 115.185 239.238C115.037 238.013 114.39 236.373 114.857 235.227C114.042 232.258 112.904 229.48 111.36 226.766C104.313 219.055 95.9528 209.415 92.3583 199.799C91.6577 199.897 91.7858 199.437 91.5963 199.052C89.277 194.39 87.6416 189.86 86.5354 184.808C85.8035 181.464 85.0884 178.018 86.1505 174.678C83.7561 174.854 82.1701 173.944 80.2319 172.856C76.4344 170.725 72.8369 167.476 69.2282 165.01C68.2812 164.364 67.1633 164.103 66.0999 163.293C59.8612 158.535 56.8155 147.388 56.1734 140.212C56.0451 138.784 55.6664 135.344 55.9483 134.134C56.2302 132.923 56.6938 132.915 57.737 132.764C57.9732 132.73 58.2616 132.403 58.6034 132.663C59.5286 133.323 60.4628 143.291 60.8435 145.196C61.8866 150.42 63.9739 156.205 67.3688 160.486C67.5737 160.491 67.9552 159.031 69.4845 159.749L83.9507 170.814L84.2111 168.839C85.0918 168.29 85.1161 169.311 85.3939 169.502C85.7121 169.719 87.3641 170.152 88.0328 170.488C91.2559 172.118 94.4925 174.645 98.1904 174.749C97.5587 174.281 95.2507 171.757 96.866 171.371C98.1316 171.067 103.025 173.905 106.031 173.371C107.448 173.119 114.225 170.295 115.163 169.406L119.258 161.004C119.636 163.434 118.153 165.732 117.608 168.02C117.541 168.299 117.248 168.923 117.768 168.891C120.368 165.736 122.866 162.497 125.441 159.323C125.737 158.96 126.982 157.311 127.09 157.227L127.13 156.707L127.694 156.732C128.531 155.688 129.45 154.519 130.19 153.427L130.239 152.631L130.81 152.666C130.929 152.493 131.022 152.311 131.129 152.154C135.194 146.167 142.313 134.353 148.934 130.624C151.885 128.962 160.604 124.231 163.558 123.812C163.795 123.777 164.139 123.864 164.415 123.864C164.51 123.863 164.655 123.518 165.28 123.751C165.812 123.952 165.832 124.232 166.097 124.499C166.672 125.076 167.352 125.879 167.11 126.687L163.412 126.2C164.472 127.372 164.604 129.082 164.01 130.488C167.391 130.568 171.813 130.965 174.18 128.318C178.196 123.829 172.751 119.379 169.468 116.32L169.973 115.721C171.433 115.388 174.285 118.391 175.156 119.462C176.401 120.991 177.762 122.963 177.547 124.932C181.01 122.642 182.158 121.37 180.724 117.416C179.291 113.463 174.738 108.403 169.735 110.071L169.185 109.259C164.657 111.063 159.917 112.545 155.144 113.722C149.339 115.156 143.735 115.413 138.65 118.717C136.658 120.01 134.591 121.211 132.647 122.579C128.545 125.466 123.82 129.68 119.958 132.973C117.543 135.034 113.752 139.334 111.309 140.829C107.662 143.059 102.484 141.016 98.9254 139.403C84.3286 132.791 89.7049 121.034 81.7372 110.696C79.9824 108.419 75.9811 105.189 73.0216 104.498C72.1552 104.296 68.0144 104.506 70.0195 102.911C70.6252 102.428 72.1521 102.67 71.9417 102.111C63.8267 93.4916 59.7126 80.8879 61.3202 69.5374C61.9082 65.3902 64.2872 59.8784 68.1021 57.4688C68.8219 57.0149 70.3281 56.5629 70.7274 56.2725C71.1625 55.955 70.9804 55.319 71.3774 54.9797C71.8799 54.5492 74.9105 53.9512 75.7597 53.7884C75.7735 52.3176 72.2823 51.6719 73.2475 50.1739C73.7589 49.3827 78.3427 49.285 79.48 49.2301C78.4826 46.2257 75.803 42.0347 76.6836 38.823C77.2391 36.7972 81.7417 38.1539 83.2878 38.5561C82.7518 36.3951 81.2913 30.4702 84.2079 29.4992C85.8462 28.9527 92.1547 32.3115 92.5877 31.9426L92.5606 28.3874C92.6246 28.1595 92.8271 28.1182 93.0197 28.0226C94.3598 27.3627 101.311 28.7717 103.084 29.2585C105.159 29.8273 107.19 30.6911 109.106 31.6187C108.883 30.3261 109.238 30.2283 110.569 30.4098C115.149 31.0269 120.574 34.2072 123.964 37.0652C124.671 37.6625 125.292 38.4498 126 39.0422C125.99 36.6694 119.499 32.4671 119.314 31.0549C119.169 29.9526 121.104 31.4232 121.387 31.6235C124.133 33.5611 126.734 36.1609 128.002 39.1648C128.002 39.0794 128.008 38.9846 128.019 38.8998L128.018 38.9046ZM80.2158 145.052C80.9869 144.404 83.5356 148.54 84.2768 148.896L88.9203 152.765C86.9627 152.511 84.9524 151.011 83.5209 149.769C82.8712 149.207 79.3338 145.794 80.2157 145.054L80.2158 145.052ZM70.7434 177.994L71.6039 178.164C72.1289 178.569 71.3957 184.66 71.4053 185.879C71.4535 191.366 73.1469 196.927 74.704 202.176C74.3037 202.01 73.9495 201.178 73.7752 200.802C71.8394 196.624 69.6378 186.815 69.8802 182.339C69.9121 181.733 70.5291 178.101 70.7408 177.994L70.7434 177.994ZM83.3763 205.902L82.2885 200.249C83.2211 201.39 83.6664 203.828 83.9273 205.326C84.0264 205.898 84.0605 206.029 83.3763 205.902ZM80.3979 235.778C81.2731 230.636 81.486 225.223 80.498 220.089C80.849 220.242 81.2449 220.652 81.4314 220.956C82.7973 223.185 82.7156 231.268 82.1594 233.821C81.976 234.669 81.5863 236.093 80.3954 235.776L80.3979 235.778ZM91.2669 240.968C91.3991 241.345 92.2607 241.796 92.0403 242.346C91.5748 242.127 91.1861 241.644 90.965 241.216C89.2419 237.904 89.609 232.164 88.299 228.55C90.361 228.776 89.8338 232.187 90.0769 233.762C90.3801 235.728 90.665 239.24 91.2669 240.968Z" fill="#C08F4B"/>
<path d="M151.003 141.404L148.528 146.283C145.211 149.928 140.529 150.904 137.165 154.678C131.642 160.874 129.662 168.587 121.916 173.668C119.277 175.398 117.259 175.36 114.453 176.281C106.86 178.772 106.903 179.326 98.415 178.646C97.3782 178.563 96.0611 178.934 94.8152 178.398C94.1698 178.928 95.5623 189.446 95.853 191.017C98.9689 207.894 116.603 219.77 119.799 236.591C121.072 243.296 120.549 249.355 119.039 255.967C121.559 256.273 124.054 256.047 126.56 255.813C151.391 253.479 173.43 239.945 183.721 218.687C183.914 218.287 183.695 217.734 184.474 217.94C187.996 190.704 169.335 161.473 151.008 141.402L151.003 141.404ZM175.768 205.439C176.106 207.575 174.706 208.139 172.629 207.631C169.454 206.858 171.294 200.13 173.851 201.082C175.659 201.756 171.713 204.29 172.836 206.143C173.181 206.574 173.734 206.656 174.281 206.57C175.354 206.402 174.731 205.231 175.768 205.439Z" fill="#EEB79B"/>
<path d="M223.389 106.992C224.003 107.02 224.147 107.373 224.444 107.765C225.515 109.17 230.881 120.071 231.064 121.513C231.14 122.118 230.775 122.276 230.768 122.344C230.709 122.914 230.713 123.493 230.663 124.065L230.086 124.162C229.23 122.199 228.116 119.936 226.416 118.483C225.351 117.573 221.89 115.228 220.619 114.926C218.192 114.35 216.807 114.888 215.608 116.891C215.392 117.754 216.067 117.351 216.578 117.47C220.606 118.417 224.184 122.585 225.075 126.25C225.516 126.828 226.159 128.481 226.275 129.171C226.371 129.741 226.41 129.877 225.726 129.748C225.701 129.441 225.637 129.108 225.453 128.845C223.234 125.678 218.105 120.066 213.85 119.693C211.985 119.53 211.254 120.676 210.823 122.168C209.957 125.18 212.422 127.935 214.517 129.996C215.641 131.102 221.262 135.29 221.313 136.27C221.325 136.493 221.128 137.132 220.99 137.285C220.654 137.657 213.441 137.301 212.03 137.534C209.943 137.883 207.071 140.367 204.658 141.091C200.038 142.475 192.335 142.687 187.525 142.051C185.863 141.832 184.12 141.156 182.439 140.936C171.963 139.563 165.091 141.11 156.953 133.255C156.259 133.594 155.751 134.153 155.127 134.584C154.306 135.153 153.192 134.99 153.765 136.245C158.14 140.848 161.677 146.043 165.634 150.937C166.678 152.231 167.935 153.443 168.985 154.737C171.394 157.711 174.052 161.905 176.688 164.534C176.931 164.776 177.1 165.074 177.514 165.095C184.183 163.428 191.217 164.123 197.951 162.824C212.098 160.097 222.025 147.796 231.906 138.905C232.363 138.494 232.848 137.957 233.546 137.944C238.433 130.787 238.43 120.433 234.161 112.894C232.549 110.047 226.98 103.332 223.391 106.995L223.389 106.992Z" fill="#C08F4B"/>
<path d="M123.698 39.1722C120.485 35.61 115.77 33.2469 111.095 31.755C111.035 35.4416 108.666 33.0976 106.483 32.2611C102.221 30.631 98.1447 29.9569 93.6041 29.3494L94.1697 33.6063C93.3653 34.6261 86.2809 30.8757 84.6336 31.2263C84.1652 32.13 84.1143 33.2203 84.1347 34.2197C84.1619 35.5808 85.3754 38.6644 84.6855 39.5325C83.5824 40.7926 78.4046 38.4305 78.0534 39.4829C78.0618 41.4529 78.5989 43.5945 79.3765 45.4189C79.871 46.5816 82.1111 49.5278 81.6656 50.5305C80.2039 51.6296 77.9775 50.7807 76.2069 51.1677C76.7083 52.1747 79.5196 53.6549 77.9953 54.8747C77.3259 55.4097 75.5752 54.9975 75.632 55.9186C79.8362 56.1759 83.8073 59.1256 86.6021 61.9057C87.3734 62.6729 92.0454 68.1403 91.1895 68.842C90.636 68.9009 90.4211 68.7145 90.0515 68.3917C89.2099 67.6568 88.0455 65.489 87.1636 64.4661C77.3371 53.0771 64.9737 54.9807 62.7616 69.9307C61.3914 79.2065 64.5393 91.3485 70.7159 98.8409C74.5193 103.455 82.4626 107.914 88.226 110.166C101.651 115.415 115.824 116.363 128.818 109.829C129.429 109.522 132.973 107.579 133.155 107.322C133.448 106.905 133.242 106.275 133.414 106.047C133.531 105.895 134.893 105.82 135.325 105.651C136.228 105.299 139.545 101.985 140.39 101.09C141.146 100.287 143.989 97.1755 144.287 96.4299C144.551 95.7724 143.327 96.0855 142.816 95.8834C142.543 95.774 140.54 94.7703 140.448 94.6768C139.896 94.1085 139.855 89.3615 138.545 91.5438C137.666 93.0105 137.135 95.0744 136.201 96.7013C130.416 106.766 120.363 111.193 108.208 109.524L107.367 109.207C107.183 109.195 106.975 109.161 106.795 109.172C106.695 109.178 106.336 109.583 105.922 109.382L105.954 108.854C105.763 108.842 105.572 108.828 105.38 108.819C100.178 108.584 90.8814 102.072 87.0732 98.5242C78.0408 90.1077 75.3437 81.5176 75.6355 69.8742C75.6484 69.3625 75.9914 68.8295 75.1202 68.9226C74.5703 69.1379 74.5874 69.2024 74.2306 69.4002C74.2066 69.921 73.8002 70.1133 73.4577 70.4219C72.7395 71.0662 71.8071 72.0732 70.8933 72.3882C70.6499 72.7101 69.598 74.1223 69.488 74.1571C69.3618 74.1982 68.7739 74.2183 68.788 73.9873C68.5726 71.5311 71.7364 69.4452 73.4573 68.0227C74.15 67.4501 74.3396 66.8466 75.6036 66.1821C82.8917 62.3498 88.0019 68.3077 93.6927 71.7019C99.0256 74.8814 106.736 78.8092 112.865 80.1582C113.298 80.2531 114.002 80.5817 114.313 80.1004C114.083 79.6909 113.874 78.7117 113.855 78.2102C113.175 77.2045 111.639 74.4795 113.396 73.9257C114.638 76.6742 116.243 79.1764 118.547 81.287L129.6 83.4303C123.77 78.7853 117.755 74.3267 111.787 69.8368C109.314 70.7764 105.686 70.5128 103.059 70.0689C102.363 69.9507 98.6897 69.2792 98.9676 68.3932C99.187 67.689 100.989 68.3753 101.675 68.4344C104.292 68.6605 106.96 68.8238 109.566 68.6391L109.582 68.3741C108.682 67.7235 107.498 66.7798 106.569 66.0615C96.5631 68.5633 85.3797 62.363 84.2408 52.5162C83.0949 42.6104 91.2212 34.324 101.64 34.1002C105.702 34.012 109.505 34.0398 112.973 36.39C113.313 36.4694 113.796 36.87 114.369 37.0076C117.274 37.7003 120.942 38.2933 123.703 39.175L123.698 39.1722Z" fill="#EEB79B"/>
<path d="M114.364 37.0048C121.767 42.5149 123.732 51.9021 118.179 59.194C115.63 62.5403 110.777 65.3135 106.311 65.5112C106.41 65.6491 106.466 65.982 106.564 66.0587C107.496 66.7772 108.677 67.7208 109.577 68.3714C109.673 68.4407 110.05 68.3369 110.148 68.4063L113.665 66.8741C121.533 61.0467 123.066 53.6137 121.407 44.6991C121.332 44.2967 121.217 43.9749 121.814 44.1163C126.086 51.5557 120.672 67.5373 111.242 69.2714C111.311 69.566 111.557 69.669 111.781 69.8364C117.75 74.3264 123.765 78.785 129.594 83.43L137.003 88.938C137.088 88.9579 137.798 89.2283 137.844 89.2555C139.778 88.7662 142.069 89.9924 144.137 89.5089C142.279 88.0553 139.998 86.5977 138.389 84.9055C138.124 84.6257 136.552 82.7649 136.821 82.5422L143.857 87.9737C147.639 90.6165 152.924 90.1102 157.448 89.9185C160.384 89.7956 163.331 89.4 166.247 89.1294C166.559 88.8385 165.225 87.6781 164.979 87.275C161.874 82.2183 165.013 80.9559 166.351 76.6862C167.299 73.6568 167.11 70.4285 168.148 67.434C161.499 66.844 157.894 72.4027 153.704 76.1244C153.34 75.9337 153.725 75.3984 153.851 75.1498C155.2 72.4477 157.939 70.1625 160.084 68.0069C157.49 68.1728 154.528 68.0818 151.927 67.7688C148.367 67.3386 145.764 65.9394 142.097 66.4959C139.17 66.9392 135.966 68.3587 133.317 69.5584C132.89 68.9685 134.912 67.606 135.363 67.3358C137.291 66.1798 139.588 65.7908 141.63 64.8785C132.253 60.712 129.088 51.3025 132.928 42.5561L134.109 42.4722L133.667 44.9712L134.227 45.1397L136.966 42.6495C134.127 41.9681 131.309 41.2733 128.489 40.5345C128.404 41.2786 128.455 42.0505 128.351 42.7934C128.296 43.1854 128.527 43.5729 127.886 43.4239C126.493 42.5015 125.622 40.1003 124.252 39.4795C124.068 39.395 123.883 39.2397 123.697 39.1795C120.936 38.2979 117.268 37.7048 114.364 37.0121L114.364 37.0048Z" fill="#A1C5D8"/>
<path d="M219.602 136.024L214.136 131.572C210.777 128.811 206.438 122.888 211.143 119.403C211.867 118.866 213.374 118.67 213.458 118.588C213.567 118.48 213.888 116.5 214.374 115.739C216.702 112.082 221.061 113.005 224.328 115.036C224.658 114.748 220.913 109.447 221.313 108.361L222.186 107.861C221.594 106.319 220.463 104.807 220.756 103.112C223.951 103.527 227.889 104.776 230.507 106.576C231.653 107.364 232.503 108.534 233.432 109.213C233.663 109.383 233.692 109.6 234.131 109.517L245.216 73.7498C242.131 73.4219 239.036 73.0543 235.962 72.6513C230.442 71.9254 225.981 71.0056 220.306 72.0396C219.388 72.2055 217.926 72.282 217.507 73.0545C213.568 83.7766 210.517 94.7678 206.817 105.566C204.139 113.382 200.48 121.449 198.297 129.353C197.526 132.144 197.414 134.16 200.256 135.906L219.604 136.029L219.602 136.024ZM239.809 74.2682C244.242 74.8763 243.143 82.724 238.538 82.1322C233.941 81.5433 235.541 73.6824 239.809 74.2682ZM237.514 83.6998C240.426 84.4833 239.765 89.556 237.012 90.3881C231.793 91.965 232.726 82.4109 237.514 83.6998Z" fill="#4F96FD"/>
<path d="M151.003 141.404C150.902 141.293 150.993 140.452 150.341 140.565C148.333 142.864 146.136 144.757 143.34 146.204C141.832 146.986 140.104 147.485 138.613 148.299C134.13 150.741 131.814 155.266 128.703 159.066C125.479 163.001 121.383 168.498 117.343 171.406C116.757 171.827 114.863 173.624 114.232 172.678L114.321 171.35C112.561 173.068 108.094 174.474 105.518 174.531C103.057 174.585 100.634 173.634 98.2955 173.032C98.6453 173.893 100.861 175.095 99.9954 176.08C97.0643 176.642 93.9692 175.372 91.3416 174.2C89.2809 180.615 90.137 186.959 91.7436 193.379C94.1708 203.068 98.8321 210.643 105.556 218.308C110.87 224.367 119.116 229.957 118.374 238.64L117.519 238.587C117.226 235.687 116.34 232.443 114.306 230.141C114.848 231.632 115.217 233.992 115.454 235.625C115.508 235.989 115.856 236.667 115.328 236.855C115.506 237.649 115.619 238.473 115.754 239.275C117.093 247.262 116.6 254.6 114.059 262.316C117.011 262.113 120.062 262.209 123.069 262.03C152.619 260.285 180.607 247.813 184.472 217.94C183.692 217.734 183.911 218.287 183.718 218.687C173.427 239.945 151.388 253.479 126.557 255.812C124.051 256.047 121.556 256.273 119.036 255.967C120.546 249.355 121.07 243.295 119.796 236.591C116.603 219.77 98.9663 207.893 95.8503 191.016C95.5595 189.449 94.1672 178.927 94.8126 178.398C96.0611 178.934 97.3757 178.56 98.4123 178.645C106.9 179.326 106.858 178.772 114.45 176.281C117.256 175.362 119.274 175.4 121.914 173.668C129.66 168.587 131.64 160.871 137.162 154.678C140.526 150.904 145.209 149.928 148.526 146.283L151 141.404L151.003 141.404Z" fill="#D29D83"/>
<path d="M182.502 240.7C181.878 240.633 181.724 241.033 181.415 241.395C176.761 246.86 173.528 251.959 167.187 256.098C159.47 261.136 149.098 264.8 139.898 266.56C144.434 272.456 151.175 277.078 158.299 279.921C178.928 278.811 183.326 256.253 182.5 240.7L182.502 240.7Z" fill="#C08F4B"/>
<path d="M30.7101 250.829C32.8251 252.294 34.7442 253.995 36.8136 255.518C44.3508 261.068 52.5909 265.279 61.1364 269.315C61.4253 269.452 62.0511 270.059 62.2683 269.52C60.9912 266.013 59.884 260.806 59.5861 257.119L57.1247 245.795C55.0836 249.915 54.2982 254.794 53.7204 259.291C53.5749 260.422 53.7661 262.284 53.4375 263.225C52.9427 264.647 52.1819 261.774 52.157 261.321C51.8806 256.337 53.6106 246.513 57.0337 242.597L56.1117 238.319C55.5652 238.178 54.9932 238.238 54.4363 238.182C49.9859 237.734 47.1767 236.993 42.7447 238.479C37.5419 240.223 31.4651 245.543 30.7127 250.829L30.7101 250.829Z" fill="#FCB38C"/>
<path d="M130.842 114.629C129.726 115.103 128.539 114.559 127.377 114.803C126.38 115.012 124.144 116.469 122.963 116.944C111.42 121.594 101.929 120.208 90.6415 115.361L96.0147 128.198C98.2612 132.545 100.95 136.117 105.959 137.92C107.231 138.378 108.683 138.372 109.836 139.148C112.165 137.877 116.334 133.254 118.627 131.3C122.208 128.246 126.747 124.155 130.557 121.521C132.499 120.178 135.067 119.957 135.966 117.862C134.227 116.833 132.599 115.627 130.842 114.627L130.842 114.629Z" fill="#EEB79B"/>
<path d="M182.502 240.7C182.413 239.028 182.143 235.99 181.713 234.426C181.629 234.126 181.655 233.778 181.213 233.705C172.775 250.995 152.249 260.138 132.697 262.395C132.484 263.002 132.827 262.847 133.022 263.022C137.243 266.832 137.462 269.915 140.622 273.643C144.342 278.032 152.64 280.226 158.302 279.921C151.178 277.079 144.436 272.456 139.901 266.56C149.101 264.797 159.473 261.137 167.19 256.098C173.528 251.959 176.761 246.86 181.418 241.395C181.727 241.034 181.88 240.633 182.505 240.7L182.502 240.7Z" fill="#77592F"/>
<path d="M173.436 168.582C174.262 168.881 174.742 169.418 174.767 170.259C175.167 170.264 176.63 170.088 177.085 170.006C178.976 169.665 182.911 167.956 184.569 167.996C185.079 168.008 185.443 168.499 186.164 168.546C187.448 168.629 195.842 167.786 196.916 167.383C197.851 167.033 199.615 165.332 201.124 164.741C202.073 164.37 203.026 164.369 203.705 164.062C204.541 163.684 209.736 159.489 211.061 158.516C212.378 157.552 219.409 151.89 220.255 151.832C220.553 151.812 221.043 152.151 221.179 152.077C221.402 151.954 222.774 148.418 223.346 147.704C226.123 144.25 230.414 142.521 233.541 137.941C232.843 137.954 232.361 138.491 231.901 138.902C222.02 147.796 212.093 160.094 197.945 162.821C191.212 164.12 184.178 163.426 177.509 165.092C177.095 165.072 176.926 164.773 176.683 164.531C174.047 161.905 171.389 157.708 168.979 154.734C167.93 153.44 166.676 152.228 165.629 150.934C161.672 146.04 158.138 140.845 153.76 136.243C153.187 134.987 154.303 135.148 155.122 134.581C155.746 134.148 156.254 133.591 156.948 133.253C156.543 132.862 155.874 131.576 155.234 131.591L151.009 133.951L151.291 139.023C160.085 148.103 166.867 158.083 173.428 168.581L173.436 168.582Z" fill="#77592F"/>
<path d="M138.936 43.2973C136.166 44.8752 132.833 47.4144 132.764 50.727C132.702 53.7594 135.634 59.0836 138.345 60.7725C143.923 64.2452 151.635 61.9545 154.14 56.2723C155.649 52.8527 154.723 50.4505 153.617 47.1197L153.062 46.8197L139.505 43.3297L138.934 43.2947L138.936 43.2973ZM149.926 52.534C152.245 53.3228 150.879 59.3041 147.413 58.123C145.359 57.4237 146.464 51.3557 149.926 52.534Z" fill="#AFE3FC"/>
<path d="M130.842 114.629C129.695 113.976 127.975 112.726 126.536 112.772C125.487 112.805 122.835 114.002 121.541 114.331C108.642 117.602 95.6803 115.352 83.7992 109.89C89.8249 117.183 87.7839 127.36 93.9086 134.453C96.1909 137.097 98.3296 138.39 101.846 139.276C104.55 139.959 107.288 140.537 109.833 139.148C108.681 138.374 107.228 138.378 105.956 137.92C100.947 136.114 98.2612 132.545 96.0121 128.198L90.6389 115.361C101.926 120.21 111.418 121.594 122.96 116.944C124.141 116.469 126.377 115.012 127.374 114.802C128.536 114.556 129.726 115.103 130.839 114.629L130.842 114.629Z" fill="#D29D83"/>
<path d="M147.141 279.504C147.911 282.055 146.685 283.818 146.194 285.994C145.829 287.617 147.348 287.641 148.854 288.044C153.418 289.263 158.3 289.488 162.986 290.056C166.542 290.486 170.06 291.253 173.673 291.239C174.133 291.172 174.714 291.474 175.121 290.928C174.541 290.309 173.99 289.68 173.324 289.134C172.294 288.29 170.527 287.63 169.806 287.029C169.491 286.766 169.687 286.519 169.677 286.206C172.783 286.396 175.303 288.769 177.292 290.663L181.68 290.883C182.911 289.391 182.176 288.148 181.111 286.777C178.448 283.343 171.598 282.468 168.154 279.497C167.668 279.355 166.482 280.129 165.81 280.315C159.061 282.181 153.704 281.89 147.141 279.502L147.141 279.504Z" fill="#FCB38C"/>
<path d="M24.5891 13.4175C26.5383 23.4384 35.5685 30.9883 45.6891 34.2632C53.1706 36.6834 56.5916 34.7792 63.5759 34.9626C65.3805 35.0096 66.8261 35.4203 68.5501 35.6649C64.0101 30.7499 56.8317 30.5131 50.617 28.7147C45.5063 27.2352 40.3051 24.9107 36.2918 21.5777C34.9248 20.4421 31.0419 15.7088 30.2109 15.3602C29.9876 15.2684 29.4544 15.3407 29.07 15.1732C27.6169 14.5425 26.164 13.736 24.5916 13.4201L24.5891 13.4175Z" fill="#EEB79B"/>
<path d="M17.6915 238.593C21.5762 242.265 25.0766 246.499 29.6484 249.434C30.4493 245.505 35.9034 239.913 39.8233 238.239L44.208 236.494C40.0376 235.512 35.9894 234.08 32.0485 232.487C30.6621 231.926 25.9899 229.429 25.0144 229.462C23.6857 229.508 20.0695 231.978 19.225 233.01C18.3804 234.042 17.5713 236.128 17.4645 237.4C17.4173 237.956 17.69 238.359 17.6864 238.59L17.6915 238.593Z" fill="#FCB38C"/>
<path d="M88.3694 283.621C88.3199 283.613 88.062 283.356 87.6944 283.302C82.7955 282.572 77.7588 282.85 73.0201 281.352C72.9804 282.301 71.4111 282.967 70.5703 283.723C68.5101 285.574 66.6521 288.291 63.7227 288.956C60.7424 289.635 55.9792 289.139 55.1078 292.759C57.0179 293.832 62.4743 290.998 63.5463 291.279C65.1519 291.697 63.3014 293.56 65.3306 294.451C68.4594 294.655 71.488 291.511 74.6216 292.625C74.884 292.336 77.034 287.684 78.1304 289.372C78.972 290.666 74.4621 293.34 76.4593 295.398C78.9408 294.915 87.9025 291.937 89.1267 290.204C90.5299 288.213 87.7932 285.77 88.3666 283.624L88.3694 283.621Z" fill="#FCB38C"/>
<path d="M17.6915 238.593C17.6622 240.49 17.5688 242.788 18.1668 244.624C18.9688 247.082 27.8563 254.772 30.3727 256.771C40.2226 264.598 52.0371 271.147 64.5477 274.446C63.9885 272.75 62.8787 271.196 62.2683 269.52C62.0511 270.059 61.4279 269.452 61.1364 269.315C52.5935 265.28 44.3508 261.068 36.8136 255.518C34.7442 253.995 32.8251 252.294 30.7101 250.829C30.4605 252.586 31.1252 253.932 30.9868 255.635C28.8568 255.016 29.3176 251.056 29.6458 249.434C25.0714 246.499 21.5736 242.265 17.6888 238.593L17.6915 238.593Z" fill="#DC804F"/>
<path d="M30.9745 12.2122C35.7925 13.8323 40.2737 16.1836 45.0283 17.9365C54.6559 21.4863 67.5877 23.1491 71.5641 33.3185L72.2427 36.2863C72.397 35.7857 73.6339 34.7045 73.262 33.6884C68.0676 17.1136 48.0392 10.1815 30.9745 12.2122Z" fill="#EEB79B"/>
<path d="M57.7314 132.769C56.6909 132.92 56.2134 132.983 55.9427 134.138C55.6721 135.293 56.0394 138.791 56.1679 140.217C56.8101 147.39 59.8558 158.537 66.0944 163.298C67.1551 164.107 68.2757 164.368 69.2227 165.015C72.8313 167.481 76.429 170.727 80.2263 172.861C82.1619 173.948 83.7506 174.858 86.1449 174.683C85.0828 178.022 85.798 181.468 86.5299 184.813C87.6361 189.864 89.2716 194.392 91.5907 199.056C91.7829 199.441 91.6521 199.902 92.3527 199.803C89.6829 192.66 87.5557 182.752 89.3325 175.344C89.4945 174.675 89.7661 174.021 90.1976 173.462C88.7159 172.309 86.8329 171.652 85.7025 170.133C85.1299 171.106 86.9734 173.14 84.8988 173.206C83.8656 173.238 79.7103 170.159 78.6292 169.383C75.4968 167.131 72.5766 164.593 69.5433 162.227L69.1212 162.202C68.9997 163.671 67.7247 163.612 66.6377 162.845C64.0099 160.991 60.8633 152.695 60.0603 149.61C58.6545 144.208 58.0553 138.309 57.7261 132.768L57.7314 132.769Z" fill="#77592F"/>
<path d="M198.676 135.807C198.744 135.425 198.289 135.551 198.043 135.18C197.162 133.842 196.929 132.407 197.333 130.873L216.942 72.4536C217.725 71.3887 219.141 71.2044 220.418 71.0214C225.456 70.2974 232.586 71.3196 237.722 71.9586C240.231 72.2708 242.7 73.0345 245.265 72.9474L243.92 71.4105L219.518 69.5166C218.078 69.6213 216.511 69.9037 215.584 71.0355L195.254 130.977C195.072 133.043 196.411 135.278 198.673 135.809L198.676 135.807Z" fill="#4F88A4"/>
<path d="M166.029 3.71903C157.136 6.56228 150.094 11.0125 145.551 18.7811C143.671 21.9974 142.54 26.4604 138.72 28.123C139.912 29.8409 141.933 28.5466 143.414 27.8221C149.879 24.6668 152.745 17.2153 157.351 12.2499C158.531 10.9749 160.547 10.4515 161.99 8.79237C162.115 8.64868 162.186 8.13074 162.497 7.78123C163.686 6.44094 164.98 5.16314 166.031 3.71919L166.029 3.71903Z" fill="#EEB79B"/>
<path d="M166.029 3.71903C164.978 5.16055 163.686 6.4385 162.494 7.78107C162.183 8.13058 162.112 8.64852 161.988 8.79221L165.102 7.12797C166.348 8.56122 162.851 10.08 161.695 11.1661C160.813 11.9956 159.699 13.3015 159.02 14.285C154.949 20.1886 154.841 29.4465 146.003 30.963C145.901 31.418 146.652 31.2785 146.956 31.2556C150.013 31.04 152.801 29.7537 155.343 28.3375C156.249 26.6382 157.751 25.2291 158.753 23.5918C161.716 18.7675 163.166 13.0036 166.984 8.52694C167.293 8.16511 167.446 7.76448 168.071 7.832C168.797 6.16554 169.693 4.49492 170.665 2.9387C169.023 2.68687 167.526 3.23715 166.026 3.71644L166.029 3.71903Z" fill="#D29D83"/>
<path d="M30.9745 12.2122C28.7853 12.4736 26.5064 13.2566 24.3709 12.34C24.1324 12.7989 24.539 13.1606 24.5891 13.4175C26.1587 13.7357 27.6142 14.5423 29.0675 15.1706C29.4519 15.3382 29.9853 15.2634 30.2084 15.3576C30.0874 14.5399 30.9589 13.9709 31.7221 14.2251C35.0113 16.579 39.15 18.3797 42.979 19.8685C48.4243 21.9859 54.1986 22.9837 59.509 25.1978C63.9755 27.06 68.8166 29.4626 71.5615 33.3183C67.5851 23.149 54.6559 21.4863 45.0257 17.9364C40.2711 16.1834 35.7898 13.8322 30.9718 12.212L30.9745 12.2122Z" fill="#D29D83"/>
<path d="M6.81612 224.094C7.93637 226.467 9.66369 228.764 11.2864 230.879C12.5679 232.551 14.003 234.724 15.8536 235.823C16.4434 233.279 17.7712 231.445 20.0924 229.971C20.6343 229.628 23.5815 228.544 23.2157 228.032C20.5007 227.685 14.6837 222.098 12.8178 221.806C12.0153 221.679 9.97265 222.169 9.19733 222.5C8.20578 222.925 7.6857 223.728 6.81858 224.097L6.81612 224.094Z" fill="#FCB38C"/>
<path d="M129.036 111.331C128.493 111.784 129.185 111.779 129.426 111.885C130.349 112.288 131.077 112.515 131.99 113.059C133.024 113.674 136.757 116.502 137.483 116.639C138.713 116.871 142.331 114.288 144.052 114.373C141.834 111.665 139.037 109.166 135.653 107.802C135.185 107.766 131.034 110.506 130.184 110.986C129.818 111.193 129.081 111.295 129.036 111.334L129.036 111.331Z" fill="#77592F"/>
<path d="M137.54 42.6798L139.03 41.8436L143.383 40.9141C141.494 39.7978 139.672 38.8418 138.335 37.1199C137.536 36.0899 136.758 33.8335 135.6 33.3209C134.35 32.766 132.117 32.7684 130.712 32.4213L135.194 38.1919L134.791 38.8067C132.617 38.9445 130.101 39.43 128.021 38.9048C128.01 38.9896 128.005 39.0844 128.005 39.1698C128.004 39.5676 128.284 40.068 128.209 40.5125C128.3 40.5351 128.404 40.5074 128.495 40.53C131.315 41.2688 134.132 41.9635 136.971 42.645C137.145 42.6873 137.372 42.6377 137.543 42.6799L137.54 42.6798Z" fill="#EEB79B"/>
<path d="M3.4265 218.566C3.75422 219.96 3.95414 221.293 4.3953 222.682C6.5933 229.626 10.9612 236.536 15.7475 242.199C15.5916 239.975 15.3497 237.996 15.8538 235.82C14.003 234.724 12.5707 232.549 11.2865 230.877C9.66382 228.762 7.93897 226.467 6.81625 224.092C6.51637 224.22 6.33612 224.414 5.94309 224.302C5.88827 223.908 6.10617 223.314 6.0242 222.977C5.80587 222.116 3.93399 219.559 3.42677 218.561L3.4265 218.566Z" fill="#DC804F"/>
<path d="M173.736 107.412C174.976 108.039 176.374 108.288 177.657 108.852C179.571 109.694 181.373 111.374 183.527 111.469C185.086 111.538 186.984 110.097 187.52 108.738C188.055 107.38 187.295 106.867 186.007 106.288C182.263 104.612 177.339 106.053 173.736 107.409L173.736 107.412Z" fill="#C08F4B"/>
<path d="M147.141 279.504C146.796 279.378 145.644 278.722 145.459 278.871C146.166 280.994 144.008 282.639 143.515 284.588C142.946 286.837 143.633 289.096 146.372 289.573C149.772 290.167 155.151 290.313 158.793 290.595C160.486 290.227 162.614 290.541 164.387 290.666C164.869 290.701 165.669 290.574 165.938 291.032C168.479 291.163 171.221 291.592 173.671 291.239C170.058 291.252 166.54 290.488 162.983 290.055C158.298 289.488 153.415 289.265 148.852 288.043C147.348 287.641 145.826 287.617 146.191 285.994C146.682 283.82 147.908 282.055 147.138 279.504L147.141 279.504Z" fill="#DC804F"/>
<path d="M137.755 146.975L140.782 145.782C145.075 143.426 151.243 139.893 149.136 134.373C148.707 134.288 148.465 134.337 148.104 134.559C147.913 134.679 145.701 136.772 145.405 137.088C142.663 140.027 140.409 143.919 137.752 146.975L137.755 146.975Z" fill="#D29D83"/>
<path d="M163.553 123.816C160.601 124.236 151.88 128.967 148.929 130.629C142.31 134.358 135.189 146.172 131.123 152.158C135.051 147.64 138.279 142.541 142.252 138.015C143.621 136.457 145.899 133.621 147.879 132.915C153.024 131.08 157.605 128.053 162.172 125.05C162.636 124.746 163.56 124.383 163.55 123.816L163.553 123.816Z" fill="#77592F"/>
<path d="M155.343 28.3375C164.222 23.3945 164.508 16.0096 168.071 7.83444C167.446 7.76691 167.293 8.16754 166.984 8.52937C163.163 13.0059 161.714 18.7673 158.753 23.5942C157.748 25.2314 156.246 26.6404 155.342 28.3399L155.343 28.3375Z" fill="#EEB79B"/>
<path d="M6.02392 222.982C7.28592 221.448 9.41623 220.988 11.3368 220.515C10.269 219.349 8.75429 218.348 7.65947 217.236C5.91077 215.46 5.27532 213.205 2.3223 213.18C2.33664 215.009 3.00899 216.791 3.4265 218.566C3.93372 219.564 5.80821 222.121 6.02392 222.982Z" fill="#FCB38C"/>
<path d="M88.3694 283.621C87.7962 285.766 90.5326 288.21 89.1295 290.201C87.9051 291.937 78.9436 294.913 76.4621 295.396C77.4594 296.423 79.8097 296.323 81.2477 296.04C83.8442 295.528 85.7904 294.034 87.8178 292.632C88.5239 292.144 88.7522 291.508 89.8826 291.695C92.7921 289.508 90.1611 286.457 90.9405 283.781C90.0998 283.676 89.204 283.741 88.3694 283.621Z" fill="#DC804F"/>
<path d="M140.859 91.5658C140.937 91.6243 141.318 92.2455 141.382 92.3959C142.356 92.6507 143.066 93.6778 143.856 94.1435C144.217 94.3559 144.597 94.5427 144.966 94.7435L150.337 95.2943L152.907 91.5052C149.334 91.8576 145.738 91.1249 142.161 91.0964C141.628 91.093 141.093 90.97 140.857 91.5632L140.859 91.5658Z" fill="#AFE3FC"/>
<path d="M223.389 106.992C222.979 107.409 222.434 107.673 222.488 108.336C222.588 109.579 225.584 113.243 226.122 114.948C226.32 115.577 226.148 116.406 226.299 116.694C226.363 116.817 228.188 118.113 228.535 118.51C229.572 119.701 229.894 121.104 230.768 122.344C230.775 122.276 231.142 122.118 231.064 121.513C230.881 120.071 225.513 109.17 224.444 107.765C224.147 107.376 224.005 107.023 223.389 106.992Z" fill="#77592F"/>
<path d="M139.507 43.3323L153.064 46.8223C150.276 42.7711 144.05 41.3698 139.507 43.3323Z" fill="white"/>
<path d="M225.078 126.252C224.186 122.585 220.608 118.418 216.58 117.473C216.069 117.354 215.395 117.757 215.611 116.894C215.356 117.322 214.715 118.284 215.043 118.736C216.725 119.2 218.094 119.901 219.478 120.901C220.861 121.901 224.108 124.982 225.08 126.255L225.078 126.252Z" fill="#77592F"/>
<path d="M173.736 107.412C173.114 107.647 172.083 107.891 171.671 108.347C175.172 108.11 178.109 110.54 179.879 113.13C180.147 113.185 183.599 112.225 183.527 111.469C181.373 111.376 179.571 109.694 177.657 108.852C176.374 108.288 174.974 108.039 173.736 107.412Z" fill="#77592F"/>
<path d="M57.1221 245.795L59.5835 257.119C59.2297 252.755 59.6332 248.355 58.6616 244.027C57.6669 243.944 57.4288 245.17 57.1197 245.793L57.1221 245.795Z" fill="#EEB79B"/>
<path d="M72.2426 36.2888C71.967 37.1798 72.4579 38.9598 72.3174 39.3221C72.277 39.4222 71.523 39.9642 71.0935 41.0069C73.0065 40.2283 75.0886 39.2648 75.3402 37.0885C75.4054 36.5385 75.1156 36.245 75.1158 36.1986C73.4251 36.3977 73.6315 34.8728 73.2619 33.6909C73.6312 34.7068 72.3969 35.7881 72.2426 36.2888Z" fill="#77592F"/>
<path d="M65.3332 294.451C67.1396 295.242 73.3435 294.036 74.6242 292.625C71.4906 291.511 68.4621 294.655 65.3332 294.451Z" fill="#DC804F"/>
<path d="M114.854 235.229C114.994 235.741 115.227 236.404 115.328 236.855C115.853 236.667 115.505 235.989 115.454 235.625C115.217 233.992 114.848 231.632 114.306 230.141C113.792 228.729 112.344 227.849 111.357 226.769C112.904 229.482 114.039 232.261 114.854 235.229Z" fill="#EEB79B"/>
<path d="M124.253 39.4723C125.622 40.093 126.494 42.4942 127.887 43.4166C128.527 43.5681 128.296 43.1805 128.352 42.7861C128.455 42.0432 128.405 41.2713 128.49 40.5272C128.399 40.5046 128.295 40.5324 128.204 40.5097C126.894 40.1684 125.606 39.6747 124.253 39.4698L124.253 39.4723Z" fill="#4F88A4"/>
<path d="M54.4337 238.182C54.9906 238.238 55.5624 238.18 56.1091 238.319L57.0311 242.597C57.2376 242.361 58.0321 242.19 58.1644 241.705L57.8945 237.862L54.4337 238.182Z" fill="#EEB79B"/>
<path d="M114.096 256.997C114.828 254.577 115.159 253.248 115.342 250.689C115.335 250.715 115.094 250.83 115.042 251.076C114.634 253.018 114.329 255.03 114.096 256.997Z" fill="#D29D83"/>
<path d="M158.796 290.592C161.166 290.774 163.565 290.906 165.941 291.03C165.672 290.571 164.872 290.698 164.39 290.664C162.619 290.538 160.489 290.225 158.796 290.592Z" fill="#EEB79B"/>
<path d="M115.182 239.24L115.754 239.275C115.619 238.473 115.506 237.649 115.328 236.855C115.227 236.404 114.994 235.741 114.854 235.229C114.387 236.375 115.034 238.015 115.182 239.24Z" fill="#77592F"/>
<path d="M141.382 92.3959C141.97 93.7522 141.255 94.0477 143.856 94.1435C143.066 93.6778 142.356 92.6507 141.382 92.3959Z" fill="white"/>
<path d="M199.499 112.979C200.387 111.152 200.927 109.164 201.57 107.253C201.003 107.838 200.555 108.965 200.288 109.718C199.887 110.86 199.8 111.98 199.497 112.979L199.499 112.979Z" fill="#A1C5D8"/>
<path d="M61.9115 176.919C61.5996 175.482 61.9025 173.799 60.7426 172.591C61.0709 173.931 61.069 175.64 61.9115 176.919Z" fill="#EEB79B"/>
<path d="M221.82 104.505L222.028 105.845L223.5 105.132L223.391 104.598L221.82 104.505Z" fill="#77592F"/>
<path d="M196.678 121.588C195.604 121.388 195.846 123.272 195.675 123.92C196.121 123.262 196.411 122.34 196.678 121.588Z" fill="#A1C5D8"/>
<path d="M173.436 168.582C174.262 168.881 174.742 169.418 174.767 170.259C173.836 170.246 173.798 169.163 173.436 168.582Z" fill="#C08F4B"/>
<path d="M164.41 123.869L166.092 124.504C165.826 124.236 165.807 123.957 165.274 123.756C164.65 123.52 164.505 123.867 164.41 123.869Z" fill="#77592F"/>
<path d="M89.8825 291.697C88.7521 291.511 88.5238 292.146 87.8177 292.635C88.7717 292.608 89.2344 292.185 89.8825 291.697Z" fill="#EEB79B"/>
<path d="M115.342 250.689C115.442 250.221 115.642 249.865 115.725 249.116C115.23 249.374 115.378 250.188 115.342 250.689Z" fill="#77592F"/>
<path d="M130.808 152.671L130.236 152.636L130.187 153.431C130.294 153.274 130.556 153.044 130.808 152.671Z" fill="#77592F"/>
<path d="M144.558 31.1382L144.528 31.6659L145.682 31.4681L145.698 31.2104L144.558 31.1382Z" fill="#D29D83"/>
<path d="M127.691 156.737L127.127 156.712L127.087 157.232C127.358 157.024 127.118 157.453 127.691 156.737Z" fill="#77592F"/>
<path d="M183.279 55.9154C178.306 54.6348 172.169 62.1351 170.535 65.8375C168.794 69.7848 169.546 74.3801 167.975 78.3842C166.969 80.9487 164.894 82.3032 165.98 85.4497C167.452 89.7206 169.668 89.1972 173.742 88.6583C177.238 88.1962 183.095 86.9781 184.73 83.8175C187.609 78.2607 190.318 61.4765 184.87 56.8744C184.437 56.5086 183.841 56.0572 183.279 55.913L183.279 55.9154ZM184.617 66.8825C187.759 67.9022 184.788 75.9598 184.425 78.1415C184.301 78.8807 184.129 79.7977 184.046 80.5077C183.974 81.1329 184.363 81.6937 184.09 82.5825C183.383 84.9041 180.339 84.2174 179.961 81.7952C179.645 79.7721 181.093 71.0355 181.97 69.083C182.338 68.2684 183.482 66.4787 184.617 66.8825ZM177.552 67.1236C177.843 66.9657 177.782 66.2445 178.629 66.5086C179.154 66.8581 179.706 67.4703 179.814 68.07C180.334 70.9768 177.446 80.1549 174.552 81.613C171.952 82.9255 170.713 80.2895 171.299 78.202C173.498 74.4195 173.383 69.3872 177.552 67.1261L177.552 67.1236Z" fill="#A1C5D8"/>
<path d="M133.487 45.624C133.306 45.5251 133.312 45.4351 133.503 45.359L133.487 45.624Z" fill="#A1C5D8"/>
<path d="M70.7434 177.994C70.5317 178.101 69.9148 181.731 69.8829 182.339C69.6405 186.815 71.842 196.625 73.7778 200.802C73.9521 201.179 74.3064 202.011 74.7066 202.177C73.1495 196.927 71.4535 191.366 71.4079 185.879C71.3983 184.66 72.1315 178.57 71.6065 178.164L70.7461 177.994L70.7434 177.994Z" fill="#0B0908"/>
<path d="M80.3979 235.778C81.5887 236.095 81.9786 234.669 82.1619 233.824C82.7154 231.271 82.7998 223.188 81.4339 220.959C81.2474 220.655 80.849 220.242 80.5004 220.091C81.4885 225.226 81.2757 230.636 80.4004 235.781L80.3979 235.778Z" fill="#0B0908"/>
<path d="M80.2158 145.052C79.3338 145.794 82.8714 149.205 83.521 149.767C84.9525 151.009 86.9628 152.509 88.9205 152.763L84.2769 148.893C83.5331 148.538 80.9869 144.404 80.216 145.05L80.2158 145.052Z" fill="#0B0908"/>
<path d="M91.2669 240.968C90.665 239.24 90.3801 235.728 90.0769 233.762C89.8337 232.19 90.361 228.776 88.299 228.55C89.6091 232.161 89.2419 237.904 90.965 241.216L91.2669 240.968Z" fill="#0B0908"/>
<path d="M83.3763 205.902C84.0579 206.029 84.0264 205.898 83.9273 205.326C83.6664 203.828 83.2237 201.39 82.2885 200.249L83.3763 205.902Z" fill="#0B0908"/>
<path d="M90.965 241.216C91.1861 241.644 91.5748 242.127 92.0403 242.346C92.2607 241.796 91.3991 241.345 91.2669 240.968L90.965 241.216Z" fill="#77592F"/>
<path d="M175.768 205.439C174.731 205.231 175.354 206.402 174.281 206.57C173.734 206.656 173.181 206.574 172.836 206.143C171.713 204.29 175.659 201.756 173.851 201.082C171.294 200.127 169.454 206.856 172.629 207.631C174.706 208.136 176.106 207.575 175.768 205.439Z" fill="#0B0908"/>
<path d="M112.968 36.3873C104.815 34.4947 99.8171 33.11 94.1013 39.8818C90.8363 43.7505 89.9115 50.0907 91.9382 54.5029C93.4169 57.7247 98.1039 62.8172 101.807 63.7858C103.34 64.1871 104.931 63.7232 105.737 65.4736C105.926 65.4706 106.121 65.5166 106.308 65.5086C110.777 65.3135 115.627 62.5377 118.176 59.1914C123.729 51.9019 121.765 42.5123 114.362 37.0022C113.789 36.8646 113.306 36.4641 112.966 36.3847L112.968 36.3873ZM108.72 36.4714C125.434 38.6586 121.369 65.5689 105.173 63.0424C89.32 60.5711 90.9324 34.1428 108.72 36.4714Z" fill="#4F88A4"/>
<path d="M73.4548 68.0201C74.4528 67.9201 75.2652 67.328 76.2203 67.1106C84.1258 65.3126 87.3768 70.9126 92.8657 74.6386C99.8729 79.3922 109.18 82.9273 117.491 85.1664C118.242 85.3685 119.233 85.766 119.991 85.6342C118.347 84.0839 115.375 81.9983 114.308 80.0976C113.999 80.5791 113.293 80.2503 112.86 80.1554C106.731 78.8041 99.0205 74.8786 93.6876 71.6991C87.9942 68.3048 82.884 62.3469 75.5985 66.1793C74.3371 66.844 74.145 67.4473 73.4522 68.02L73.4548 68.0201Z" fill="#D29D83"/>
<path d="M75.1203 68.9202C75.9918 68.8246 75.6485 69.3601 75.6356 69.8718C75.3439 81.5152 78.041 90.1053 87.0734 98.5218C90.8815 102.069 100.175 108.581 105.381 108.817C88.0748 102.534 78.1237 84.7556 78.6135 68.0723C77.3105 67.9974 76.2363 68.4832 75.1202 68.9226L75.1203 68.9202Z" fill="#D29D83"/>
<path d="M106.564 66.0563C106.466 65.9795 106.41 65.6466 106.311 65.5087C106.123 65.5168 105.929 65.4707 105.739 65.4738C98.7354 65.5674 92.2749 62.4994 89.2453 56.4614C84.3708 46.7374 90.5978 36.0846 101.635 34.0974C91.2161 34.3212 83.0898 42.6076 84.2357 52.5134C85.3748 62.3578 96.558 68.5605 106.564 66.0587L106.564 66.0563Z" fill="#D29D83"/>
<path d="M101.635 34.0974C90.5977 36.087 84.3708 46.7374 89.2453 56.4614C92.2723 62.4993 98.7328 65.5672 105.739 65.4738C104.934 63.7233 103.342 64.1873 101.809 63.7859C98.1067 62.8149 93.4169 57.7247 91.9408 54.5031C89.9167 50.091 90.8389 43.7506 94.1039 39.882C99.8197 33.1101 104.818 34.4973 112.971 36.3875C109.503 34.0372 105.7 34.0094 101.638 34.0976L101.635 34.0974Z" fill="#0B0908"/>
<path d="M113.85 78.2074C115.22 80.2292 121.455 85.6628 123.753 86.5796C127.68 88.1428 132.934 88.0202 137 88.9378L129.592 83.4299L118.539 81.2865C116.235 79.1759 114.63 76.6761 113.388 73.9252C111.631 74.4766 113.167 77.204 113.847 78.2097L113.85 78.2074Z" fill="#D29D83"/>
<path d="M111.781 69.834C111.558 69.6665 111.311 69.5636 111.242 69.269C111.155 69.2855 111.052 69.2402 110.957 69.2515C110.347 69.324 109.422 69.6163 109.561 68.634C106.955 68.8186 104.287 68.6553 101.67 68.4292C100.984 68.3701 99.182 67.6839 98.9627 68.388C98.6848 69.274 102.358 69.9479 103.054 70.0637C105.681 70.5101 109.309 70.7712 111.782 69.8316L111.781 69.834Z" fill="#D29D83"/>
<path d="M70.8934 72.3858C71.8072 72.0707 72.7397 71.0637 73.4579 70.4194C73.8004 70.1109 74.2068 69.9186 74.2308 69.3978C72.153 70.547 72.2387 70.6084 70.8934 72.3858Z" fill="#D29D83"/>
<path d="M109.577 68.3689L109.561 68.634C109.424 69.6165 110.347 69.324 110.957 69.2515C110.773 68.9425 110.449 68.6102 110.148 68.4039C110.047 68.3343 109.67 68.4381 109.577 68.3689Z" fill="#0B0908"/>
<path d="M105.952 108.849L105.92 109.377C106.334 109.575 106.693 109.173 106.793 109.167C106.677 108.825 106.267 108.866 105.952 108.849Z" fill="#D29D83"/>
<path d="M107.364 109.202L108.205 109.519C108.161 109.514 108.009 109.248 107.364 109.202Z" fill="#D29D83"/>
<path d="M111.242 69.269C120.673 67.5349 126.087 51.5508 121.814 44.1139C121.22 43.9726 121.335 44.2969 121.407 44.6967C123.064 53.6112 121.533 61.0443 113.665 66.8717L110.148 68.4039C110.449 68.6102 110.773 68.9425 110.957 69.2515C111.052 69.2402 111.155 69.2855 111.242 69.269Z" fill="#4F88A4"/>
<path d="M239.809 74.2682C235.541 73.6824 233.944 81.5435 238.538 82.1322C243.143 82.724 244.239 74.8762 239.809 74.2682ZM241.561 77.2456C241.759 79.2005 240.447 82.0684 237.975 80.8139C237.589 80.6171 237.254 80.3769 237.385 79.9187C239.443 80.8867 239.902 80.5268 240.894 78.801C240.953 78.6972 241.09 78.6201 241.196 78.5534C241.244 78.2952 241.303 77.7155 241.261 77.4933C241.228 77.3058 240.41 75.9304 240.501 75.8531C241.192 75.7392 241.519 76.8135 241.563 77.2458L241.561 77.2456Z" fill="#0B0908"/>
<path d="M237.514 83.6998C232.726 82.4109 231.796 91.9652 237.012 90.3881C239.765 89.556 240.423 84.4831 237.514 83.6998ZM237.373 84.7065C239.18 85.066 238.438 88.4204 237.377 89.0778C236.71 89.4885 235.273 89.6642 235.418 88.5772C238.082 89.0771 238.365 86.4341 237.376 84.7067L237.373 84.7065Z" fill="#0B0908"/>
<path d="M147.413 58.123C145.359 57.4237 146.464 51.3557 149.926 52.534C152.245 53.3228 150.879 59.3041 147.413 58.123Z" fill="#4F88A4"/>
<path d="M113.154 108.482L118.3 107.972C118.617 106.537 118.698 104.69 119.463 103.411C119.882 102.714 120.948 102.189 121.034 101.645C121.111 101.154 119.719 98.8042 119.337 98.2537C117.004 94.8966 112.796 92.3644 108.384 92.5067C109.389 93.403 114.282 98.347 113.989 99.359C113.779 100.081 112.915 99.5812 112.544 99.2876C109.613 96.9653 108.155 94.0084 104.373 91.8878C99.9873 89.4302 94.5675 89.9478 90.0748 91.7815C91.1069 92.6281 91.2964 94.0455 90.9422 95.2319C90.6709 96.1403 89.7999 96.1431 90.4618 97.2355C90.66 97.5649 92.4051 99.3997 92.6737 99.482C93.1513 99.6309 94.5188 99.3387 95.4405 99.4537C97.1978 99.6711 99.1385 100.632 99.5524 102.38C99.7472 103.195 99.4366 104.357 99.8753 104.885C100.069 105.119 101.9 105.938 102.215 105.899C102.504 105.863 104.434 104.544 105.495 104.282C109.179 103.365 113.074 104.467 113.149 108.477L113.154 108.482Z" fill="#DC804F"/>
<path d="M115.651 86.3009L116.841 91.3648L124.496 94.5571C124.954 94.6876 125.248 94.5592 125.641 94.3758C127.22 93.6377 129.165 90.6694 130.925 89.7618L115.648 86.3032L115.651 86.3009Z" fill="white"/>
<path d="M104.066 106.869C106.634 107.685 109.258 108.444 112 108.421C111.683 105.532 108.799 104.723 106.076 105.457C105.712 105.554 103.712 106.374 104.066 106.871L104.066 106.869Z" fill="white"/>
<path d="M121.261 103.743C120.765 104.142 119.823 107.211 120.089 107.589C121.275 107.29 125.85 105.659 126.019 104.615C126.339 102.665 122.393 102.831 121.261 103.746L121.261 103.743Z" fill="white"/>
<path d="M89.5485 95.6078C89.7541 94.4416 90.2201 93.6623 89.4548 92.5391C88.6076 91.2938 86.0013 90.8927 86.9117 92.6105C87.105 92.9762 89.0843 96.0139 89.5485 95.6078Z" fill="white"/>
<path d="M98.5088 103.871C98.4048 102.862 98.095 101.905 97.1039 101.376C96.7014 101.161 94.3817 100.375 94.3824 101.095L98.5086 103.874L98.5088 103.871Z" fill="white"/>
<path d="M177.552 67.1236C173.383 69.3847 173.498 74.417 171.299 78.1996C170.713 80.2871 171.952 82.9206 174.552 81.6106C177.446 80.1525 180.334 70.9744 179.814 68.0675C179.706 67.4679 179.157 66.8558 178.629 66.5062C177.779 66.2419 177.84 66.9656 177.552 67.1212L177.552 67.1236Z" fill="#4F88A4"/>
<path d="M184.617 66.8825C183.482 66.4787 182.338 68.266 181.97 69.083C181.09 71.0353 179.643 79.772 179.961 81.7952C180.341 84.22 183.383 84.9065 184.09 82.5825C184.361 81.6935 183.971 81.1328 184.046 80.5077C184.129 79.7977 184.301 78.8783 184.425 78.1415C184.791 75.96 187.762 67.9024 184.617 66.8825Z" fill="#4F88A4"/>
<path d="M108.72 36.4714C90.9298 34.1426 89.32 60.5711 105.173 63.0424C121.372 65.5666 125.434 38.6586 108.72 36.4714ZM111.007 41.3877C120.414 43.0007 119.642 58.5831 111.349 59.369C98.8634 60.5524 99.4943 39.4139 111.007 41.3877Z" fill="#4F96FD"/>
<path d="M241.259 77.4931C241.3 77.7153 241.241 78.2975 241.194 78.5533C241.173 78.6741 241.027 78.7798 240.892 78.8008C239.902 80.5268 239.441 80.8866 237.382 79.9186C237.252 80.3767 237.587 80.6169 237.972 80.8138C240.447 82.0709 241.756 79.2027 241.558 77.2454L241.256 77.493L241.259 77.4931Z" fill="#A1C5D8"/>
<path d="M241.561 77.2456C241.516 76.8133 241.19 75.739 240.499 75.8529C240.407 75.9303 241.225 77.3056 241.259 77.4931L241.561 77.2456Z" fill="#4F88A4"/>
<path d="M241.194 78.5533C241.173 78.6741 241.027 78.7798 240.892 78.8008C240.951 78.697 241.087 78.62 241.194 78.5533Z" fill="#4F88A4"/>
<path d="M237.373 84.7065C238.362 86.4315 238.079 89.0745 235.416 88.5771C235.27 89.664 236.707 89.4884 237.374 89.0777C238.438 88.4228 239.177 85.0658 237.371 84.7063L237.373 84.7065Z" fill="#A1C5D8"/>
<path d="M111.349 59.369C98.8634 60.5524 99.4943 39.4139 111.007 41.3877C120.414 42.9983 119.639 58.583 111.349 59.369ZM110.636 42.6853C117.486 43.7343 118.967 54.2731 112.929 57.3571C105.835 60.9816 100.082 50.064 105.589 44.5876C106.743 43.4404 108.924 42.4219 110.636 42.6853Z" fill="#AFE3FC"/>
<path d="M110.636 42.6853C108.923 42.4243 106.743 43.4404 105.589 44.5876C100.081 50.0664 105.835 60.9816 112.929 57.3571C118.967 54.2731 117.486 43.7318 110.636 42.6853ZM112.663 47.3147C115.822 48.0475 115.056 55.0686 111.706 54.6927C108.356 54.3168 109 46.4657 112.663 47.3147Z" fill="#4F96FD"/>
<path d="M112.663 47.3147C109 46.4657 108.241 54.3025 111.706 54.6927C115.171 55.0829 115.82 48.0473 112.663 47.3147Z" fill="#AFE3FC"/>
</svg>
