<svg width="26" height="28" viewBox="0 0 26 28" fill="none" xmlns="http://www.w3.org/2000/svg">
<path fill-rule="evenodd" clip-rule="evenodd" d="M14.7525 2C20.8959 2 24.5266 8.18289 24.5266 14.3263C24.5266 20.2948 20.721 26.0756 14.7525 26.0756C7.98084 26.0756 2 21.098 2 14.3263C2 7.39999 7.82618 2 14.7525 2Z" fill="#F0FCFF" stroke="#484848" stroke-width="2.18942"/>
<path d="M16.4507 8.18648C16.6725 7.9647 16.9128 7.84765 17.1715 7.83533C17.4302 7.82301 17.6643 7.87845 17.8738 8.00166C18.0833 8.12487 18.2373 8.30969 18.3358 8.55611C18.4467 8.79021 18.4467 9.05511 18.3358 9.35082C18.2496 9.56027 18.1387 9.75741 18.0032 9.94223C17.88 10.127 17.7568 10.3057 17.6335 10.4782C17.2269 11.0942 16.8019 11.6857 16.3583 12.2524C15.9271 12.8192 15.4835 13.3798 15.0276 13.9342C15.1385 14.0575 15.2864 14.2361 15.4712 14.4702C15.6683 14.7043 15.8778 14.9692 16.0996 15.2649C16.3337 15.5483 16.5678 15.8563 16.8019 16.189C17.036 16.5093 17.2577 16.8235 17.4672 17.1316C17.6767 17.4273 17.8553 17.7106 18.0032 17.9817C18.1633 18.2404 18.2742 18.4561 18.3358 18.6286C18.4344 18.9119 18.4344 19.1768 18.3358 19.4233C18.2496 19.6574 18.1079 19.8422 17.9108 19.9777C17.7259 20.1256 17.5042 20.1995 17.2454 20.1995C16.999 20.1995 16.7587 20.0948 16.5246 19.8853C16.3275 19.7128 16.155 19.4726 16.0072 19.1645C15.8593 18.8565 15.7115 18.5916 15.5636 18.3698C15.2556 17.9016 14.9352 17.4519 14.6026 17.0207C14.2699 16.5771 13.9249 16.1397 13.5676 15.7085C13.2226 16.1397 12.8653 16.5648 12.4957 16.9837C12.1384 17.3903 11.781 17.7969 11.4237 18.2035C11.3252 18.3144 11.202 18.4622 11.0541 18.647C10.9186 18.8319 10.7707 19.0228 10.6105 19.22C10.4504 19.4048 10.2902 19.5773 10.13 19.7375C9.96985 19.8976 9.822 20.0024 9.68647 20.0516C9.45237 20.1502 9.22443 20.1687 9.00265 20.1071C8.78087 20.0578 8.59606 19.9592 8.4482 19.8114C8.30035 19.6635 8.19562 19.4787 8.13402 19.2569C8.08473 19.0352 8.10938 18.8072 8.20794 18.5731C8.30651 18.3267 8.4482 18.1172 8.63302 17.9447C8.83016 17.7599 9.01497 17.569 9.18747 17.3718C9.68031 16.7927 10.1731 16.2198 10.666 15.653C11.1588 15.0739 11.6517 14.4887 12.1445 13.8973C11.7133 13.3428 11.2697 12.8007 10.8138 12.2709C10.3703 11.7288 9.89593 11.2113 9.39076 10.7185C9.34148 10.6692 9.26139 10.6076 9.1505 10.5336C9.05193 10.4474 8.94721 10.355 8.83632 10.2564C8.72543 10.1455 8.6207 10.0408 8.52213 9.94223C8.42356 9.83134 8.34347 9.72661 8.28187 9.62804C8.15866 9.39394 8.11554 9.15368 8.1525 8.90726C8.18946 8.66084 8.28187 8.45138 8.42972 8.27889C8.5899 8.09407 8.78703 7.97702 9.02113 7.92774C9.25523 7.87845 9.50165 7.92774 9.76039 8.07559C9.96985 8.21112 10.1608 8.36513 10.3333 8.53763C10.5058 8.6978 10.6783 8.86414 10.8508 9.03663C11.3436 9.51715 11.8118 10.0162 12.2554 10.5336C12.699 11.0388 13.1364 11.5624 13.5676 12.1046C13.7401 11.8951 13.9126 11.6918 14.0851 11.4947C14.2576 11.2852 14.4239 11.0758 14.5841 10.8663C14.9167 10.4227 15.2371 9.98535 15.5451 9.55411C15.8531 9.11056 16.155 8.65468 16.4507 8.18648Z" fill="#484848"/>
</svg>
