<svg width="80" height="60" viewBox="0 0 80 60" fill="none" xmlns="http://www.w3.org/2000/svg">
<path d="M8.05454 36.5719C5.10328 35.3782 2.23948 35.6409 0.881253 37.2103C-0.95811 39.3375 0.639534 43.0895 0.722408 43.2738C3.08204 48.6275 10.6628 47.6642 23.5199 51.2525C39.5907 55.7396 41.4715 61.0794 49.9823 59.3924C51.4787 59.0951 55.7629 57.014 64.3289 52.8496C74.6975 47.8093 75.4088 46.9589 75.4871 45.9864C75.9383 40.4806 55.8826 34.3825 48.387 32.101C42.2658 30.2388 37.1275 29.1027 33.7204 28.4297C25.1659 31.1423 16.6091 33.8571 8.05454 36.5696V36.5719Z" fill="#D38C1B"/>
<path d="M1.24498 32.6978C8.2318 30.4624 15.2186 28.2268 22.2054 25.9937C37.5005 30.4646 52.7955 34.9356 68.0905 39.4043C61.2142 42.6285 54.3356 45.8527 47.4593 49.0768C32.0537 43.6172 16.6482 38.1575 1.24268 32.6955L1.24498 32.6978Z" fill="#101010" stroke="black" stroke-width="1.51345" stroke-linecap="round" stroke-linejoin="round"/>
<path d="M1.24512 32.6978C1.31188 35.3366 1.37633 37.9731 1.44309 40.6119C16.6 45.9264 31.7546 51.2409 46.9115 56.5554C53.873 53.0039 60.8368 49.4525 67.7983 45.8987C67.8973 43.7347 67.9939 41.5684 68.0929 39.4043C61.2166 42.6285 54.338 45.8527 47.4617 49.0768C32.0562 43.6172 16.6506 38.1575 1.24512 32.6955V32.6978Z" fill="#2D2D2D" stroke="black" stroke-width="1.51345" stroke-linecap="round" stroke-linejoin="round"/>
<path d="M46.9114 56.5531C47.0957 54.0618 47.2778 51.5681 47.4622 49.0768" stroke="black" stroke-width="1.69352" stroke-linecap="round" stroke-linejoin="round"/>
<path d="M8.43412 35.2698C10.8513 36.1617 13.2685 37.0559 15.6857 37.9478C15.5729 40.5013 15.4601 43.0549 15.345 45.6084C13.0222 44.8963 10.6971 44.1841 8.37427 43.4743C8.39268 40.7387 8.4134 38.0054 8.43182 35.2698H8.43412Z" fill="#FF972F" stroke="black" stroke-width="1.69352" stroke-linecap="round" stroke-linejoin="round"/>
<path d="M34.0704 44.5736C34.0174 47.0488 33.9668 49.5216 33.9138 51.9968C36.1952 52.7965 38.4788 53.5962 40.7602 54.3982C40.9812 51.9115 41.1999 49.4248 41.4209 46.9381C38.9715 46.1499 36.5198 45.3641 34.0704 44.5759V44.5736Z" fill="#FF972F" stroke="black" stroke-width="1.69352" stroke-linecap="round" stroke-linejoin="round"/>
<path d="M36.1928 45.0829C37.1896 45.4355 38.1887 45.7904 39.1855 46.143C39.0174 47.6802 38.8517 49.2151 38.6836 50.7523C37.7352 50.4988 36.7844 50.2453 35.8359 49.9918C35.9556 48.3555 36.073 46.7192 36.1928 45.0829Z" fill="#FF972F" stroke="black" stroke-width="1.69352" stroke-linecap="round" stroke-linejoin="round"/>
<path d="M22.2053 25.9914C24.6179 20.0155 27.0305 14.0396 29.4431 8.06596C30.4583 9.78291 31.4758 11.4976 32.491 13.2145C30.7391 17.992 28.985 22.7718 27.2331 27.5493C25.5572 27.0307 23.8812 26.5099 22.2053 25.9914Z" fill="#2D2D2D" stroke="black" stroke-width="1.51345" stroke-linecap="round" stroke-linejoin="round"/>
<path d="M29.4453 8.06596C44.4388 12.4471 59.4345 16.8282 74.428 21.2093C73.9537 22.5736 73.4795 23.9357 73.003 25.3C59.499 21.2715 45.9973 17.243 32.4933 13.2145C31.478 11.4976 30.4605 9.78291 29.4453 8.06596Z" fill="#2D2D2D" stroke="black" stroke-width="1.51345" stroke-linecap="round" stroke-linejoin="round"/>
<path d="M68.0928 39.4043C70.2038 33.3385 72.3171 27.2751 74.4281 21.2093C75.7932 22.9354 77.1584 24.6639 78.5235 26.3901C76.447 31.9742 74.3705 37.556 72.2918 43.1401C70.8921 41.8956 69.4924 40.6488 68.0928 39.4043Z" fill="#2D2D2D" stroke="black" stroke-width="1.51345" stroke-linecap="round" stroke-linejoin="round"/>
<path d="M27.2332 27.5493C28.985 22.7718 30.7392 17.992 32.4911 13.2145C45.9951 17.243 59.4968 21.2715 73.0008 25.3C71.364 30.0014 69.7272 34.7029 68.0905 39.4043C54.4714 35.4519 40.8523 31.5017 27.2332 27.5493Z" fill="#1E1E1E" stroke="black" stroke-width="1.69352" stroke-linecap="round" stroke-linejoin="round"/>
<path d="M3.8669 27.5493L1.01001 23.4747" stroke="#FF0037" stroke-width="1.51345" stroke-linecap="round" stroke-linejoin="round"/>
<path d="M9.34575 25.9914L3.03345 15.1296" stroke="#FFEC00" stroke-width="1.51345" stroke-linecap="round" stroke-linejoin="round"/>
<path d="M14.5994 24.1891L9.22632 7.26158" stroke="#00FFB6" stroke-width="1.51345" stroke-linecap="round" stroke-linejoin="round"/>
<path d="M11.6527 24.6592L5.63965 10.7623" stroke="#A8FF00" stroke-width="1.51345" stroke-linecap="round" stroke-linejoin="round"/>
<path d="M7.01848 27.0469L0.998535 18.9738" stroke="#FF7100" stroke-width="1.51345" stroke-linecap="round" stroke-linejoin="round"/>
<path d="M18.9639 24.09L11.9126 1.80656" stroke="#00A4FF" stroke-width="1.51345" stroke-linecap="round" stroke-linejoin="round"/>
<path d="M21.379 22.3846L20.7551 5.04453" stroke="#B400FF" stroke-width="1.51345" stroke-linecap="round" stroke-linejoin="round"/>
<path d="M26.3123 25.0396V7.17871" stroke="#FF0037" stroke-width="1.51345" stroke-linecap="round" stroke-linejoin="round"/>
<path d="M30.1636 26.3162L35.5504 6.31897" stroke="#FF7100" stroke-width="1.51345" stroke-linecap="round" stroke-linejoin="round"/>
<path d="M34.6572 26.3163L41.9986 7.17871" stroke="#FFEC00" stroke-width="1.51345" stroke-linecap="round" stroke-linejoin="round"/>
<path d="M40.2651 27.5493L49.3515 6.64635" stroke="#A8FF00" stroke-width="1.51345" stroke-linecap="round" stroke-linejoin="round"/>
<path d="M44.8093 30.6168L56.474 9.36809" stroke="#00FFB6" stroke-width="1.51345" stroke-linecap="round" stroke-linejoin="round"/>
<path d="M51.2876 30.7251L64.7502 5.90887" stroke="#00A4FF" stroke-width="1.51345" stroke-linecap="round" stroke-linejoin="round"/>
<path d="M55.574 33.7395L68.7143 10.7623" stroke="#B400FF" stroke-width="1.51345" stroke-linecap="round" stroke-linejoin="round"/>
<path d="M59.6948 35.6017L77.46 16.1091" stroke="#FF0037" stroke-width="1.51345" stroke-linecap="round" stroke-linejoin="round"/>
<path d="M61.709 38.0975L78.9631 27.5492" stroke="#FF7100" stroke-width="1.51345" stroke-linecap="round" stroke-linejoin="round"/>
<path d="M6.82067 0.999969L3.56323 6.56566" stroke="#FF0037" stroke-width="1.51345" stroke-linecap="round" stroke-linejoin="round"/>
<path d="M3.15576 1.25574L7.87733 6.56561" stroke="#FF0037" stroke-width="1.51345" stroke-linecap="round" stroke-linejoin="round"/>
<path d="M4.94653 0.999969L5.19082 8.06597" stroke="#FF0037" stroke-width="1.51345" stroke-linecap="round" stroke-linejoin="round"/>
<path d="M2.4375 3.91067L8.12134 3.30455" stroke="#FF0037" stroke-width="1.51345" stroke-linecap="round" stroke-linejoin="round"/>
<path d="M32.8571 5.72214L28.8584 13.7146" stroke="#A8FF00" stroke-width="1.51345" stroke-linecap="round" stroke-linejoin="round"/>
<path d="M28.2207 3.83699L32.1596 12.6545" stroke="#A8FF00" stroke-width="1.51345" stroke-linecap="round" stroke-linejoin="round"/>
<path d="M33.3958 10.7624L27.2332 8.24576" stroke="#A8FF00" stroke-width="1.51345" stroke-linecap="round" stroke-linejoin="round"/>
<path d="M69.9642 22.3408L61.7896 20.7737" stroke="#00FFB6" stroke-width="1.51345" stroke-linecap="round" stroke-linejoin="round"/>
<path d="M63.4795 18.499L67.2986 24.3228" stroke="#00FFB6" stroke-width="1.51345" stroke-linecap="round" stroke-linejoin="round"/>
<path d="M68.567 19.755L62.4688 23.7489" stroke="#00FFB6" stroke-width="1.51345" stroke-linecap="round" stroke-linejoin="round"/>
<path d="M10.9161 36.2285C10.771 38.0123 10.626 39.7984 10.481 41.5821C11.3949 41.8472 12.3088 42.1122 13.225 42.3773C13.3724 40.658 13.5197 38.9387 13.667 37.2195C12.7508 36.8899 11.8323 36.558 10.9161 36.2285Z" fill="#FF972F" stroke="black" stroke-width="1.69352" stroke-linecap="round" stroke-linejoin="round"/>
<path d="M59.8857 46.3435L60.6546 53.5755" stroke="#FF0037" stroke-width="1.51345" stroke-linecap="round" stroke-linejoin="round"/>
<path d="M57.6575 53.3405L63.6014 46.9428" stroke="#FF0037" stroke-width="1.51345" stroke-linecap="round" stroke-linejoin="round"/>
<path d="M56.4417 49.1022L65.063 51.3791" stroke="#FF0037" stroke-width="1.51345" stroke-linecap="round" stroke-linejoin="round"/>
<path d="M63.4378 53.2781L57.6296 46.7607" stroke="#FF0037" stroke-width="1.51345" stroke-linecap="round" stroke-linejoin="round"/>
<path d="M18.0085 48.155L11.9126 53.027" stroke="#FFEC00" stroke-width="1.51345" stroke-linecap="round" stroke-linejoin="round"/>
<path d="M11.5488 47.5397L18.0085 53.6792" stroke="#FFEC00" stroke-width="1.51345" stroke-linecap="round" stroke-linejoin="round"/>
<path d="M15.06 46.4842L14.7788 55.032" stroke="#FFEC00" stroke-width="1.51345" stroke-linecap="round" stroke-linejoin="round"/>
<path d="M6.66846 50.3628L20.2323 50.8606" stroke="#FFEC00" stroke-width="1.51345" stroke-linecap="round" stroke-linejoin="round"/>
<path d="M72.2916 43.1402C70.8598 42.7438 69.4302 42.3497 67.9983 41.9533C68.0305 41.1029 68.0604 40.2548 68.0927 39.4044C69.4923 40.6489 70.892 41.8957 72.2916 43.1402Z" fill="#282828" stroke="black" stroke-width="1.51345" stroke-linecap="round" stroke-linejoin="round"/>
<path d="M60.9976 41.1029C66.9991 41.1328 73.0006 41.1628 78.9998 41.1927" stroke="#FFEC00" stroke-width="1.51345" stroke-linecap="round" stroke-linejoin="round"/>
<path d="M28.0113 37.8576C28.0113 37.8576 28.0102 37.8628 28.008 37.8734L28.0304 37.8913C28.0475 37.8926 28.0619 37.8964 28.0737 37.9026L28.1265 37.9308C28.1425 37.9589 28.1407 37.9776 28.1214 37.9869C28.1074 37.9913 28.0876 37.9924 28.0619 37.9905C28.0362 37.9885 28.0089 37.9838 27.98 37.9762C27.9511 37.9686 27.9281 37.9642 27.911 37.9629C27.9396 38.0135 27.9786 38.046 28.0278 38.0605C28.0738 38.0694 28.1079 38.0935 28.1302 38.1328C28.1493 38.1665 28.1309 38.192 28.0751 38.2093C28.105 38.2331 28.1456 38.2469 28.197 38.2508C28.2484 38.2547 28.2827 38.2573 28.2998 38.2586L28.3332 38.3177C28.2989 38.3151 28.2496 38.3221 28.1852 38.3387C28.1262 38.3504 28.0796 38.3549 28.0453 38.3523L28.0196 38.3503C27.884 38.2701 27.7115 38.1898 27.5019 38.1093C27.2978 38.0239 27.084 37.9431 26.8605 37.867C26.637 37.7909 26.4194 37.7179 26.2077 37.648C25.9874 37.5775 25.7944 37.5118 25.6287 37.4508C25.5807 37.4095 25.5305 37.3788 25.4782 37.3587C25.4258 37.3386 25.3691 37.3181 25.3082 37.2974C25.2472 37.2766 25.1847 37.253 25.1205 37.2266C25.0447 37.194 24.971 37.1508 24.8995 37.0969L24.9928 37.0879C24.9147 37.0658 24.8255 37.0241 24.7251 36.9627C24.613 36.895 24.5211 36.8557 24.4494 36.8449C24.3862 36.8347 24.3375 36.8284 24.3033 36.8258C24.2604 36.8225 24.2262 36.8199 24.2005 36.818C24.1662 36.8154 24.133 36.8075 24.1009 36.7943C24.0603 36.7804 24.0074 36.7522 23.9423 36.7096C24.0194 36.7155 24.0453 36.6959 24.0198 36.651C24.0166 36.6453 24.0103 36.6341 24.0007 36.6172C23.9826 36.5997 23.9522 36.5893 23.9093 36.5861L23.5752 36.5607C23.5806 36.5558 23.5844 36.548 23.5866 36.5374C23.5888 36.5268 23.5926 36.519 23.598 36.514L23.5789 36.4803C23.5458 36.4509 23.4961 36.4283 23.4298 36.4125L23.4041 36.4106C23.387 36.4093 23.3644 36.413 23.3365 36.4216C23.2969 36.424 23.2744 36.4276 23.269 36.4326L23.2433 36.4306C23.209 36.428 23.086 36.3918 22.8743 36.322C22.6625 36.2521 22.4391 36.176 22.2038 36.0936C21.96 36.0105 21.7408 35.9347 21.5462 35.8662C21.3485 35.792 21.248 35.7521 21.2448 35.7465C21.2353 35.7296 21.2391 35.7218 21.2562 35.7231C21.2702 35.7188 21.2884 35.7148 21.3109 35.7111C21.3217 35.7012 21.3309 35.6884 21.3385 35.6729C21.3429 35.6517 21.3308 35.6158 21.3021 35.5652C21.2422 35.5607 21.1923 35.5596 21.1527 35.562C21.1045 35.5637 21.0461 35.5619 20.9775 35.5567C20.9433 35.5541 20.8742 35.5408 20.7705 35.5168C20.6635 35.4872 20.5506 35.4544 20.4319 35.4185C20.3046 35.382 20.1902 35.3464 20.0886 35.3118C19.987 35.2772 19.9288 35.2539 19.9139 35.242C19.8894 35.2133 19.8809 35.1911 19.8885 35.1756C19.8929 35.1544 19.848 35.1402 19.7538 35.1331C19.7484 35.138 19.7371 35.1399 19.72 35.1386C19.7061 35.1429 19.6905 35.1444 19.6734 35.1431C19.6305 35.1398 19.6012 35.1242 19.5853 35.0961C19.5662 35.0623 19.5352 35.0439 19.4924 35.0406C19.4752 35.0393 19.464 35.0411 19.4586 35.0461C19.4415 35.0448 19.4286 35.0438 19.42 35.0432C19.42 35.0432 19.4061 35.0475 19.3782 35.0561C19.3728 35.0611 19.3631 35.0658 19.3492 35.0701C19.2914 35.0549 19.2369 35.0239 19.1858 34.977C19.1229 34.9238 19.0835 34.8832 19.0676 34.8551C19.0761 34.8557 19.1104 34.8583 19.1704 34.8629C19.2304 34.8674 19.2567 34.856 19.2493 34.8285C19.2493 34.8285 19.2419 34.8226 19.2269 34.8107L19.1917 34.7919C19.1746 34.7906 19.1355 34.7795 19.0746 34.7588C19.005 34.7374 18.9585 34.7204 18.935 34.7079C18.9319 34.7022 18.9196 34.6879 18.8983 34.6647C18.877 34.6416 18.8605 34.6269 18.8488 34.6206L18.8311 34.6112C18.8311 34.6112 18.8242 34.6134 18.8102 34.6177L18.7974 34.6167C18.8037 34.628 18.8058 34.6389 18.8036 34.6495C18.81 34.6607 18.8105 34.6688 18.8051 34.6738C18.7997 34.6788 18.7927 34.6809 18.7841 34.6803L18.7584 34.6783L18.7408 34.6689C18.7237 34.6676 18.683 34.6538 18.6189 34.6274C18.543 34.5947 18.4949 34.5749 18.4746 34.568L18.4618 34.567C18.4532 34.5664 18.4489 34.5661 18.4489 34.5661C18.4457 34.5604 18.4399 34.5573 18.4313 34.5567C18.397 34.5541 18.3745 34.5577 18.3637 34.5677C18.353 34.5776 18.3304 34.5813 18.2962 34.5787C18.1934 34.5709 18.0843 34.5303 17.969 34.457C17.842 34.3775 17.7218 34.3172 17.6085 34.2764C17.524 34.2431 17.4304 34.2225 17.3276 34.2147C17.2248 34.2069 17.1307 34.1782 17.0453 34.1287C17.0367 34.1281 17.0405 34.1203 17.0566 34.1054C17.062 34.1004 17.0631 34.0951 17.0599 34.0895L17.0633 34.0736C17.0537 34.0568 17.0067 34.0317 16.9223 33.9984C16.8261 33.9588 16.7256 33.9189 16.6208 33.8787C16.5075 33.8378 16.4086 33.8007 16.3242 33.7674C16.228 33.7278 16.1735 33.6968 16.1608 33.6743C16.1417 33.6406 16.1375 33.6188 16.1483 33.6088C16.1591 33.5989 16.1549 33.5771 16.1358 33.5434L16.0844 33.5395C16.0759 33.5388 16.0592 33.5456 16.0345 33.5599C16.0098 33.5741 15.9963 33.5865 15.9941 33.5971C15.9921 33.5647 15.9666 33.5413 15.9174 33.5268C15.865 33.5067 15.8056 33.4887 15.7393 33.4729C15.673 33.4571 15.6136 33.4392 15.5612 33.4191C15.5003 33.3983 15.4587 33.3682 15.4364 33.3289L15.4173 33.2952C15.4195 33.2846 15.4384 33.2672 15.4739 33.243C15.4976 33.2125 15.5079 33.1945 15.5047 33.1889L15.4379 33.0708C15.4401 33.0603 15.4793 33.0498 15.5554 33.0394C15.6284 33.0234 15.6569 33.0014 15.641 32.9733L15.6314 32.9564C15.6283 32.9508 15.6208 32.9449 15.609 32.9386C15.5738 32.9198 15.5605 32.9107 15.569 32.9114C15.6664 32.9241 15.7291 32.9262 15.757 32.9176C15.7732 32.9027 15.7808 32.8871 15.7798 32.8709C15.7788 32.8547 15.7837 32.8416 15.7945 32.8317C15.7935 32.8155 15.8187 32.8093 15.8701 32.8132C15.9472 32.8191 16.0179 32.8352 16.082 32.8616C16.1375 32.8873 16.1947 32.9158 16.2534 32.9472C16.3004 32.9723 16.3517 32.9977 16.4073 33.0234C16.4511 33.0429 16.503 33.0549 16.563 33.0594C16.6144 33.0633 16.6455 33.0603 16.6562 33.0504C16.6584 33.0398 16.6563 33.0289 16.65 33.0176C16.6436 33.0064 16.6373 32.9952 16.6309 32.9839C16.6214 32.9671 16.6321 32.9571 16.6632 32.9541C16.7016 32.9785 16.7304 33.0076 16.7495 33.0413C16.7654 33.0694 16.7813 33.0975 16.7972 33.1256C16.8045 33.1531 16.8205 33.1812 16.8449 33.2099C16.8608 33.238 16.8864 33.2615 16.9217 33.2803L16.8405 33.137L16.9176 33.1428C16.9548 33.1941 16.9868 33.2288 17.0135 33.2469C17.0316 33.2644 17.0551 33.277 17.084 33.2845C17.1097 33.2865 17.1396 33.2888 17.1739 33.2914C17.2082 33.294 17.2569 33.3004 17.32 33.3105C17.3489 33.3181 17.3938 33.3323 17.4548 33.353C17.5157 33.3738 17.5783 33.3974 17.6424 33.4238C17.7065 33.4501 17.7664 33.4762 17.822 33.5019C17.8743 33.522 17.9064 33.5352 17.9181 33.5415L17.9325 33.5668C17.9484 33.5949 17.9584 33.6199 17.9626 33.6417C17.9635 33.6579 17.972 33.6801 17.9879 33.7082L18.0022 33.7334C18.1028 33.7518 18.1739 33.7761 18.2155 33.8061C18.2539 33.8305 18.3133 33.8485 18.3936 33.86C18.4022 33.8606 18.4407 33.8635 18.5093 33.8687C18.5746 33.8683 18.6175 33.8716 18.6378 33.8785C18.6752 33.8867 18.7485 33.9004 18.8577 33.9194C18.9551 33.9322 19.0643 33.9512 19.1852 33.9765C19.2944 33.9956 19.3982 34.0196 19.4966 34.0486C19.5864 34.0769 19.6377 34.1023 19.6504 34.1248C19.6076 34.1216 19.5433 34.1167 19.4576 34.1102C19.372 34.1037 19.3157 34.1128 19.2887 34.1377L19.3078 34.1714C19.3196 34.1777 19.3399 34.1846 19.3688 34.1922C19.3977 34.1997 19.4207 34.2042 19.4378 34.2055C19.4613 34.218 19.5169 34.2437 19.6045 34.2827C19.6836 34.3209 19.7391 34.3467 19.7712 34.3599C19.7582 34.3804 19.7768 34.406 19.827 34.4367C19.8654 34.4611 19.9167 34.4866 19.9808 34.5129C20.0418 34.5337 20.1011 34.5517 20.1589 34.5668C20.2167 34.5819 20.2541 34.5902 20.2712 34.5915C20.3141 34.5947 20.3377 34.5857 20.3421 34.5646C20.3465 34.5434 20.3701 34.5344 20.413 34.5377L20.4178 34.5461C20.5247 34.5757 20.6488 34.6067 20.7901 34.6389C20.9227 34.6705 21.0097 34.7228 21.0511 34.7959L21.0797 34.8465C21.0861 34.8577 21.0914 34.8742 21.0955 34.8961C21.0911 34.9172 21.0905 34.9306 21.0937 34.9363C21.1064 34.9587 21.1443 34.9751 21.2075 34.9852C21.2621 34.9948 21.2979 35.0002 21.3151 35.0015C21.3087 34.9902 21.2992 34.9734 21.2864 34.9509C21.2737 34.9284 21.2888 34.9188 21.3316 34.9221L21.3573 34.924C21.3691 34.9303 21.384 34.9422 21.4021 34.9597C21.4202 34.9772 21.4309 34.9888 21.434 34.9944C21.434 34.9944 21.4458 35.0006 21.4693 35.0132C21.481 35.0195 21.4912 35.0229 21.4998 35.0236C21.5854 35.0301 21.6627 35.0144 21.7315 34.9766C21.8003 34.9388 21.816 34.8943 21.7789 34.8431C21.8418 34.8962 21.9122 34.9339 21.9903 34.9559C22.0567 34.9717 22.124 35.0037 22.1923 35.0519C22.1879 35.0731 22.1674 35.0877 22.1309 35.0957C22.0827 35.0974 22.0457 35.0973 22.02 35.0953C22.0455 35.1403 22.0844 35.1728 22.1368 35.1929C22.1892 35.2131 22.2501 35.2338 22.3196 35.2552C22.3774 35.2704 22.4309 35.2852 22.4801 35.2997C22.5293 35.3142 22.5618 35.3355 22.5778 35.3636L22.5664 35.3869C22.5289 35.3787 22.5 35.3711 22.4797 35.3642C22.4594 35.3573 22.445 35.3535 22.4364 35.3528C22.4193 35.3515 22.4021 35.3502 22.385 35.3489C22.3678 35.3476 22.3379 35.3454 22.295 35.3421C22.3141 35.3758 22.3584 35.4034 22.4279 35.4248C22.4857 35.44 22.543 35.447 22.5998 35.4459C22.6769 35.4518 22.7417 35.4433 22.7944 35.4204C22.847 35.3975 22.9205 35.3896 23.0147 35.3967L23.0661 35.4006C22.9268 35.4008 22.8699 35.4234 22.8953 35.4684C22.924 35.5189 22.9708 35.5655 23.036 35.6081C23.1011 35.6507 23.1765 35.6753 23.2621 35.6818L23.2764 35.7071C23.345 35.7123 23.3975 35.7109 23.434 35.7029C23.4704 35.6949 23.5187 35.6932 23.5786 35.6977C23.6643 35.7042 23.7344 35.7122 23.789 35.7218C23.835 35.7306 23.9046 35.752 23.9976 35.786C23.9836 35.7903 23.9557 35.799 23.9139 35.8119C23.872 35.8249 23.8457 35.8363 23.8349 35.8463C23.7823 35.8692 23.7474 35.88 23.7303 35.8787C23.7045 35.8767 23.7044 35.8982 23.7299 35.9432L23.807 35.949C23.8241 35.9503 23.8654 35.9508 23.9307 35.9504C23.9875 35.9493 24.0245 35.9494 24.0416 35.9507C24.0587 35.952 24.0764 35.9614 24.0945 35.9789C24.1008 35.9902 24.1099 35.9989 24.1216 36.0052L24.136 36.0305C24.0846 36.0266 24.0347 36.0255 23.9865 36.0272C23.9297 36.0283 23.9141 36.0513 23.9395 36.0962C24.0509 36.1047 24.1275 36.1024 24.1694 36.0895C24.1995 36.0703 24.2574 36.0639 24.343 36.0704L24.3945 36.0743C24.4116 36.0756 24.449 36.0838 24.5068 36.099C24.5528 36.1078 24.5844 36.1129 24.6015 36.1142L24.5545 36.1833C24.5812 36.2014 24.6336 36.2215 24.7117 36.2436C24.7812 36.265 24.855 36.2868 24.9331 36.3088C25.0112 36.3309 25.0865 36.3554 25.1592 36.3825C25.2202 36.4032 25.257 36.4248 25.2698 36.4473C25.292 36.4867 25.2998 36.5222 25.2932 36.554C25.2781 36.5851 25.257 36.6131 25.2301 36.6379C25.2964 36.6537 25.3638 36.6642 25.4324 36.6694C25.4892 36.6684 25.5449 36.6726 25.5994 36.6821C25.6508 36.686 25.6969 36.6949 25.7375 36.7087C25.7781 36.7226 25.808 36.7464 25.8271 36.7801L25.9042 36.7859C25.9128 36.7866 25.931 36.7826 25.9589 36.774C25.9782 36.7647 25.9922 36.7603 26.0008 36.761C26.0179 36.7623 26.0457 36.7752 26.0841 36.7996C26.1225 36.824 26.1668 36.8516 26.217 36.8823C26.264 36.9074 26.3153 36.9328 26.3708 36.9585C26.4264 36.9842 26.4842 36.9994 26.5441 37.0039L26.557 37.0049C26.5656 37.0056 26.5838 37.0016 26.6117 36.9929L26.6536 36.98C26.659 36.975 26.6788 36.9738 26.7131 36.9764C26.7162 36.982 26.7167 36.9901 26.7145 37.0007C26.7177 37.0064 26.7209 37.012 26.7241 37.0176C26.7155 37.0169 26.7085 37.0191 26.7031 37.0241C26.6977 37.029 26.6908 37.0312 26.6822 37.0306L26.6965 37.0558C26.7188 37.0952 26.754 37.114 26.8023 37.1123C26.859 37.1112 26.8992 37.1169 26.9227 37.1295C26.9344 37.1358 26.9478 37.1448 26.9627 37.1567C26.9776 37.1686 26.9926 37.1805 27.0075 37.1924C27.0192 37.1987 27.0267 37.2046 27.0299 37.2102C27.212 37.2133 27.3345 37.2414 27.3974 37.2946C27.4572 37.3422 27.5188 37.4222 27.5824 37.5346C27.6361 37.5279 27.6784 37.523 27.7095 37.52C27.7406 37.517 27.7861 37.5177 27.8461 37.5223C27.873 37.4975 27.9095 37.4895 27.9555 37.4983C28.0101 37.5079 28.0652 37.5255 28.1207 37.5512C28.1763 37.577 28.2265 37.6077 28.2713 37.6433C28.3129 37.6734 28.3385 37.6968 28.348 37.7137L28.3575 37.7306C28.3392 37.7561 28.2854 37.7842 28.1963 37.8151C28.1072 37.846 28.0455 37.8602 28.0113 37.8576ZM27.8391 37.6186C27.8486 37.6354 27.8951 37.6524 27.9786 37.6695C28.0675 37.6816 28.1248 37.6887 28.1505 37.6906C28.1345 37.6625 28.0988 37.6356 28.0433 37.6099C27.9877 37.5841 27.9342 37.5693 27.8828 37.5654L27.8699 37.5645C27.8646 37.5694 27.8565 37.5769 27.8457 37.5868C27.8403 37.5918 27.8392 37.5971 27.8424 37.6027C27.8424 37.6027 27.8413 37.608 27.8391 37.6186ZM27.9246 38.1172C27.9309 38.1285 27.9512 38.1354 27.9855 38.138C28.0198 38.1406 28.0337 38.1363 28.0274 38.125C28.0146 38.1025 27.9912 38.09 27.9569 38.0874C27.9226 38.0848 27.9118 38.0947 27.9246 38.1172ZM26.6187 37.179C26.6539 37.1978 26.6929 37.2089 26.7358 37.2121L26.7215 37.1868L26.6187 37.179ZM25.4657 37.0108C25.4359 36.987 25.3995 36.9735 25.3567 36.9703L25.3758 37.004L25.4657 37.0108ZM25.227 37.1541L25.1114 37.1453L25.1914 37.1998L25.227 37.1541ZM24.9774 36.9737L24.9631 36.9485L24.8603 36.9407L24.8746 36.9659L24.9774 36.9737ZM24.3357 36.2312C24.3442 36.2318 24.3785 36.2344 24.4385 36.239C24.4953 36.2379 24.5216 36.2265 24.5174 36.2047C24.5089 36.204 24.4944 36.2002 24.4741 36.1933C24.442 36.1801 24.4174 36.1729 24.4003 36.1716L24.3746 36.1696C24.3232 36.1657 24.3102 36.1862 24.3357 36.2312ZM24.7446 36.9319L24.7207 36.8897L24.6822 36.8868L24.706 36.9289L24.7446 36.9319ZM23.4119 36.1853C23.429 36.1866 23.4504 36.1882 23.4761 36.1901C23.4901 36.1858 23.495 36.1728 23.4908 36.1509L23.4394 36.147C23.388 36.1431 23.3601 36.1518 23.3557 36.1729C23.3674 36.1792 23.3776 36.1827 23.3861 36.1833L23.4119 36.1853ZM23.2199 35.7592C23.191 35.7517 23.1813 35.7563 23.1909 35.7732C23.2004 35.79 23.218 35.7994 23.2437 35.8014C23.277 35.7878 23.2691 35.7737 23.2199 35.7592ZM23.0704 36.0383C23.1101 36.036 23.1172 36.0123 23.0917 35.9673C23.0574 35.9647 23.0338 35.9737 23.0208 35.9942L23.0704 36.0383ZM22.7007 35.7763L22.6816 35.7426C22.6645 35.7413 22.6404 35.7421 22.6093 35.7452C22.5664 35.7419 22.5412 35.7481 22.5336 35.7636L22.7007 35.7763ZM22.4334 35.5866C22.443 35.6034 22.4691 35.6135 22.512 35.6168C22.5548 35.62 22.5715 35.6132 22.5619 35.5963C22.5524 35.5795 22.5262 35.5694 22.4834 35.5662C22.4405 35.5629 22.4239 35.5697 22.4334 35.5866ZM22.3244 35.546C22.3339 35.5629 22.3558 35.5726 22.3901 35.5752C22.4158 35.5772 22.4239 35.5697 22.4143 35.5529C22.408 35.5416 22.3919 35.535 22.3662 35.5331C22.332 35.5305 22.318 35.5348 22.3244 35.546ZM21.8453 35.0256C21.825 35.0187 21.818 35.0208 21.8243 35.0321C21.8307 35.0433 21.8425 35.0496 21.8596 35.0509C21.8735 35.0466 21.8789 35.0416 21.8758 35.036C21.8726 35.0304 21.8624 35.0269 21.8453 35.0256ZM21.5523 35.1163C21.55 35.1269 21.5746 35.1341 21.6261 35.138C21.6689 35.1413 21.6828 35.137 21.6679 35.1251C21.653 35.1132 21.6327 35.1063 21.607 35.1043C21.5813 35.1024 21.563 35.1064 21.5523 35.1163ZM21.2438 35.3753C21.2501 35.3865 21.2619 35.3928 21.279 35.3941C21.2962 35.3954 21.3015 35.3904 21.2952 35.3792C21.2653 35.3554 21.2482 35.3541 21.2438 35.3753ZM20.8829 35.2591L20.8186 35.2542C20.8218 35.2599 20.8223 35.268 20.8201 35.2785C20.8147 35.2835 20.8136 35.2888 20.8168 35.2944L20.8425 35.2964L20.8829 35.2591ZM20.0671 34.6002C20.0734 34.6114 20.098 34.6187 20.1409 34.6219C20.1752 34.6245 20.1891 34.6202 20.1827 34.6089C20.1732 34.5921 20.1513 34.5824 20.117 34.5798C20.0742 34.5765 20.0575 34.5833 20.0671 34.6002ZM20.1386 35.009L20.1195 34.9753L20.0424 34.9694L20.0615 35.0031L20.1386 35.009ZM19.9987 35.0226C20.0083 35.0394 20.0259 35.0488 20.0516 35.0508C20.0773 35.0527 20.0854 35.0453 20.0758 35.0284C20.0695 35.0172 20.0534 35.0106 20.0277 35.0086C20.002 35.0067 19.9924 35.0113 19.9987 35.0226ZM19.6647 34.4325L19.6456 34.3987L19.5428 34.3909L19.5619 34.4247L19.6647 34.4325ZM19.4682 34.7806C19.4479 34.7737 19.4275 34.7668 19.4072 34.7598C19.3783 34.7523 19.3623 34.7457 19.3591 34.74C19.3506 34.7394 19.342 34.7387 19.3334 34.7381C19.3217 34.7318 19.3115 34.7284 19.303 34.7277L19.3268 34.7699L19.4682 34.7806ZM19.0251 34.1499C19.0197 34.1549 19.0384 34.159 19.0813 34.1623C19.1155 34.1649 19.1268 34.163 19.1151 34.1568C19.0916 34.1442 19.0712 34.1373 19.0541 34.136C19.0284 34.1341 19.0187 34.1387 19.0251 34.1499ZM18.9369 34.3853C18.9687 34.4415 19.0532 34.4748 19.1903 34.4852L19.2545 34.4901C19.2151 34.4494 19.1638 34.424 19.1007 34.4139C19.0344 34.3981 18.9798 34.3885 18.9369 34.3853ZM19.1778 34.7021L19.0735 34.67L19.0878 34.6952L19.1778 34.7021ZM18.5371 34.0484L18.4795 34.0117L18.4986 34.0454L18.5371 34.0484ZM18.3062 33.9663C18.3148 33.9669 18.3287 33.9626 18.348 33.9533C18.3674 33.944 18.3798 33.9369 18.3851 33.9319L18.318 33.8784L18.0481 33.8579C18.064 33.886 18.0981 33.9101 18.1505 33.9303C18.1943 33.9497 18.2376 33.9611 18.2805 33.9643L18.3062 33.9663ZM18.2426 34.1147L18.2236 34.081L18.2169 34.1128L18.2426 34.1147ZM17.7397 33.5522L17.674 33.523L17.624 33.5434L17.7397 33.5522ZM17.7341 33.9551C17.7535 33.9458 17.761 33.9303 17.7569 33.9084C17.7442 33.886 17.7346 33.8691 17.7283 33.8579L17.6254 33.8501L17.7341 33.9551ZM17.5667 34.007L17.5094 33.9058C17.4815 33.9144 17.4771 33.9356 17.4962 33.9693L17.5153 34.0031L17.5667 34.007ZM17.1092 33.9158C17.1616 33.9359 17.2006 33.9469 17.2263 33.9488L17.212 33.9236L17.1092 33.9158ZM16.7483 33.7996C16.761 33.8221 16.7904 33.8378 16.8364 33.8466C16.8738 33.8549 16.907 33.8628 16.9359 33.8703C16.9327 33.8647 16.9338 33.8594 16.9392 33.8544C16.9265 33.832 16.8987 33.8191 16.8558 33.8158C16.8098 33.807 16.774 33.8016 16.7483 33.7996ZM16.5269 33.7344C16.5611 33.737 16.612 33.7328 16.6796 33.7218C16.7472 33.7108 16.7682 33.6828 16.7428 33.6378C16.6914 33.6339 16.6319 33.6375 16.5643 33.6485C16.4936 33.6539 16.464 33.6812 16.4755 33.7305L16.5269 33.7344ZM16.4443 33.5668C16.4528 33.5674 16.4711 33.5634 16.499 33.5548C16.5129 33.5505 16.5242 33.5486 16.5328 33.5493L16.528 33.5409C16.5153 33.5184 16.4902 33.503 16.4527 33.4948C16.4153 33.4866 16.3751 33.4808 16.3323 33.4776L16.38 33.5619L16.4443 33.5668ZM16.1755 33.3527L16.105 33.3151L16.1384 33.3741L16.1755 33.3527ZM16.1715 33.4976C16.1778 33.5089 16.1981 33.5158 16.2324 33.5184C16.2581 33.5204 16.2678 33.5157 16.2614 33.5045C16.2551 33.4932 16.239 33.4866 16.2133 33.4847C16.1791 33.4821 16.1651 33.4864 16.1715 33.4976ZM15.913 33.4538C15.9215 33.4545 15.9414 33.4533 15.9725 33.4503C16.0004 33.4416 16.0186 33.4376 16.0272 33.4383C16.0357 33.4389 16.0384 33.4365 16.0353 33.4308L16.0257 33.414C16.0034 33.3746 15.9586 33.339 15.8913 33.307C15.824 33.275 15.7604 33.2567 15.7004 33.2521C15.649 33.2482 15.6125 33.2562 15.591 33.2761C15.5663 33.2904 15.5619 33.3115 15.5778 33.3396C15.5949 33.3409 15.6377 33.3442 15.7063 33.3494C15.7662 33.3539 15.7984 33.3456 15.8028 33.3244C15.8028 33.3244 15.8146 33.3307 15.8381 33.3433L15.8557 33.3527C15.8589 33.3583 15.861 33.3692 15.8619 33.3854C15.8544 33.401 15.8537 33.4144 15.8601 33.4256C15.8633 33.4312 15.8708 33.4372 15.8825 33.4434C15.8943 33.4497 15.9044 33.4532 15.913 33.4538Z" fill="white"/>
<path d="M30.7657 36.2836C30.7657 36.2836 30.7646 36.2889 30.7624 36.2995L30.7847 36.3173C30.8019 36.3186 30.8163 36.3224 30.8281 36.3287L30.8809 36.3569C30.8968 36.385 30.8951 36.4037 30.8758 36.413C30.8618 36.4173 30.842 36.4185 30.8163 36.4165C30.7906 36.4146 30.7633 36.4098 30.7344 36.4023C30.7055 36.3947 30.6825 36.3902 30.6654 36.3889C30.694 36.4395 30.7329 36.4721 30.7821 36.4866C30.8282 36.4954 30.8623 36.5195 30.8846 36.5589C30.9037 36.5926 30.8853 36.6181 30.8295 36.6354C30.8593 36.6592 30.9 36.673 30.9514 36.6769C31.0028 36.6808 31.0371 36.6834 31.0542 36.6847L31.0876 36.7437C31.0533 36.7411 31.004 36.7481 30.9396 36.7648C30.8806 36.7764 30.834 36.7809 30.7997 36.7783L30.774 36.7764C30.6384 36.6962 30.4659 36.6158 30.2563 36.5354C30.0522 36.45 29.8384 36.3692 29.6149 36.2931C29.3914 36.2169 29.1738 36.1439 28.9621 36.0741C28.7418 36.0036 28.5488 35.9378 28.3831 35.8768C28.3351 35.8355 28.2849 35.8048 28.2325 35.7847C28.1802 35.7646 28.1235 35.7442 28.0626 35.7234C28.0016 35.7027 27.9391 35.6791 27.8749 35.6527C27.7991 35.6201 27.7254 35.5768 27.6539 35.523L27.7472 35.5139C27.6691 35.4919 27.5799 35.4501 27.4795 35.3887C27.3674 35.321 27.2755 35.2818 27.2038 35.271C27.1406 35.2608 27.0919 35.2544 27.0577 35.2518C27.0148 35.2486 26.9805 35.246 26.9548 35.244C26.9206 35.2414 26.8874 35.2335 26.8553 35.2203C26.8147 35.2065 26.7618 35.1783 26.6967 35.1357C26.7738 35.1415 26.7997 35.122 26.7742 35.077C26.771 35.0714 26.7647 35.0601 26.7551 35.0433C26.737 35.0258 26.7065 35.0154 26.6637 35.0121L26.3296 34.9868C26.335 34.9818 26.3388 34.974 26.341 34.9634C26.3432 34.9528 26.347 34.9451 26.3524 34.9401L26.3333 34.9064C26.3002 34.877 26.2505 34.8544 26.1842 34.8386L26.1585 34.8366C26.1414 34.8353 26.1188 34.839 26.0909 34.8476C26.0513 34.85 26.0288 34.8537 26.0234 34.8587L25.9977 34.8567C25.9634 34.8541 25.8404 34.8179 25.6287 34.748C25.4169 34.6782 25.1935 34.602 24.9582 34.5196C24.7144 34.4366 24.4952 34.3608 24.3006 34.2922C24.1029 34.218 24.0024 34.1781 23.9992 34.1725C23.9897 34.1557 23.9935 34.1479 24.0106 34.1492C24.0245 34.1449 24.0428 34.1409 24.0653 34.1372C24.0761 34.1273 24.0853 34.1145 24.0929 34.0989C24.0973 34.0778 24.0852 34.0419 24.0565 33.9913C23.9965 33.9868 23.9467 33.9857 23.9071 33.988C23.8589 33.9897 23.8005 33.988 23.7319 33.9828C23.6977 33.9802 23.6286 33.9669 23.5248 33.9429C23.4179 33.9132 23.305 33.8805 23.1863 33.8446C23.059 33.808 22.9446 33.7724 22.843 33.7378C22.7414 33.7032 22.6832 33.68 22.6683 33.6681C22.6438 33.6393 22.6353 33.6172 22.6429 33.6016C22.6473 33.5804 22.6024 33.5663 22.5082 33.5591C22.5028 33.5641 22.4915 33.5659 22.4744 33.5646C22.4604 33.5689 22.4449 33.5704 22.4278 33.5691C22.3849 33.5659 22.3556 33.5502 22.3397 33.5221C22.3206 33.4884 22.2896 33.4699 22.2468 33.4667C22.2296 33.4654 22.2184 33.4672 22.213 33.4722C22.1958 33.4709 22.183 33.4699 22.1744 33.4692C22.1744 33.4692 22.1605 33.4736 22.1326 33.4822C22.1272 33.4872 22.1175 33.4918 22.1036 33.4961C22.0458 33.481 21.9913 33.45 21.9402 33.403C21.8773 33.3499 21.8379 33.3092 21.822 33.2811C21.8305 33.2818 21.8648 33.2844 21.9248 33.2889C21.9847 33.2935 22.0111 33.282 22.0037 33.2546C22.0037 33.2546 21.9963 33.2486 21.9813 33.2367L21.9461 33.2179C21.9289 33.2166 21.8899 33.2056 21.829 33.1848C21.7594 33.1634 21.7129 33.1465 21.6894 33.1339C21.6863 33.1283 21.674 33.1139 21.6527 33.0908C21.6314 33.0677 21.6149 33.053 21.6032 33.0467L21.5855 33.0373C21.5855 33.0373 21.5786 33.0394 21.5646 33.0438L21.5518 33.0428C21.5581 33.054 21.5602 33.0649 21.558 33.0755C21.5644 33.0868 21.5648 33.0949 21.5595 33.0998C21.5541 33.1048 21.5471 33.107 21.5385 33.1063L21.5128 33.1044L21.4952 33.095C21.4781 33.0937 21.4374 33.0798 21.3733 33.0534C21.2974 33.0208 21.2493 33.001 21.229 32.9941L21.2162 32.9931C21.2076 32.9925 21.2033 32.9921 21.2033 32.9921C21.2001 32.9865 21.1943 32.9834 21.1857 32.9827C21.1514 32.9801 21.1289 32.9838 21.1181 32.9937C21.1074 33.0037 21.0848 33.0073 21.0506 33.0047C20.9478 32.9969 20.8387 32.9564 20.7234 32.8831C20.5964 32.8035 20.4762 32.7433 20.3629 32.7024C20.2784 32.6691 20.1848 32.6486 20.082 32.6408C19.9792 32.633 19.8851 32.6043 19.7996 32.5548C19.7911 32.5541 19.7949 32.5464 19.811 32.5314C19.8164 32.5265 19.8175 32.5212 19.8143 32.5156L19.8176 32.4997C19.8081 32.4828 19.7611 32.4577 19.6767 32.4244C19.5805 32.3849 19.48 32.345 19.3752 32.3047C19.2619 32.2639 19.163 32.2268 19.0786 32.1935C18.9824 32.1539 18.9279 32.1229 18.9152 32.1004C18.8961 32.0667 18.8919 32.0448 18.9027 32.0349C18.9135 32.025 18.9093 32.0031 18.8902 31.9694L18.8388 31.9655C18.8303 31.9649 18.8136 31.9717 18.7889 31.9859C18.7642 32.0002 18.7507 32.0126 18.7485 32.0232C18.7465 31.9908 18.721 31.9673 18.6718 31.9528C18.6194 31.9327 18.56 31.9148 18.4937 31.899C18.4274 31.8832 18.368 31.8652 18.3156 31.8451C18.2547 31.8243 18.2131 31.7943 18.1908 31.755L18.1717 31.7212C18.1739 31.7106 18.1928 31.6933 18.2283 31.6691C18.252 31.6386 18.2623 31.6205 18.2591 31.6149L18.1923 31.4969C18.1945 31.4863 18.2337 31.4758 18.3098 31.4655C18.3828 31.4495 18.4113 31.4275 18.3954 31.3994L18.3858 31.3825C18.3826 31.3769 18.3752 31.3709 18.3634 31.3647C18.3282 31.3459 18.3148 31.3368 18.3234 31.3374C18.4208 31.3502 18.4835 31.3523 18.5114 31.3436C18.5276 31.3287 18.5352 31.3132 18.5342 31.297C18.5332 31.2807 18.5381 31.2677 18.5489 31.2577C18.5479 31.2415 18.5731 31.2354 18.6245 31.2393C18.7016 31.2451 18.7722 31.2612 18.8364 31.2876C18.8919 31.3134 18.9491 31.3419 19.0078 31.3732C19.0548 31.3983 19.1061 31.4237 19.1617 31.4495C19.2055 31.4689 19.2574 31.4809 19.3174 31.4855C19.3688 31.4894 19.3998 31.4864 19.4106 31.4764C19.4128 31.4658 19.4107 31.4549 19.4044 31.4437C19.398 31.4324 19.3917 31.4212 19.3853 31.41C19.3757 31.3931 19.3865 31.3832 19.4176 31.3802C19.456 31.4046 19.4848 31.4337 19.5039 31.4674C19.5198 31.4955 19.5357 31.5236 19.5516 31.5517C19.5589 31.5791 19.5748 31.6072 19.5993 31.636C19.6152 31.6641 19.6408 31.6875 19.6761 31.7063L19.5949 31.563L19.672 31.5689C19.7092 31.6201 19.7412 31.6548 19.7679 31.673C19.786 31.6905 19.8095 31.703 19.8383 31.7106C19.864 31.7126 19.894 31.7148 19.9283 31.7174C19.9626 31.72 20.0113 31.7264 20.0744 31.7366C20.1033 31.7442 20.1482 31.7583 20.2092 31.7791C20.2701 31.7999 20.3327 31.8234 20.3968 31.8498C20.4609 31.8762 20.5208 31.9022 20.5763 31.928C20.6287 31.9481 20.6608 31.9613 20.6725 31.9676L20.6869 31.9928C20.7028 32.0209 20.7128 32.0459 20.717 32.0677C20.7179 32.084 20.7264 32.1061 20.7423 32.1342L20.7566 32.1595C20.8572 32.1779 20.9283 32.2021 20.9699 32.2322C21.0083 32.2566 21.0677 32.2745 21.148 32.286C21.1566 32.2867 21.1951 32.2896 21.2636 32.2948C21.329 32.2944 21.3718 32.2976 21.3922 32.3046C21.4296 32.3128 21.5029 32.3264 21.6121 32.3455C21.7095 32.3582 21.8187 32.3773 21.9396 32.4026C22.0488 32.4216 22.1526 32.4457 22.251 32.4746C22.3408 32.503 22.3921 32.5284 22.4048 32.5509C22.362 32.5476 22.2977 32.5427 22.212 32.5362C22.1264 32.5297 22.0701 32.5389 22.0431 32.5637L22.0622 32.5975C22.074 32.6037 22.0943 32.6107 22.1232 32.6182C22.1521 32.6258 22.1751 32.6302 22.1922 32.6315C22.2157 32.6441 22.2713 32.6698 22.3589 32.7087C22.4379 32.747 22.4935 32.7727 22.5256 32.7859C22.5126 32.8065 22.5312 32.8321 22.5814 32.8628C22.6198 32.8872 22.6711 32.9126 22.7352 32.939C22.7962 32.9598 22.8555 32.9777 22.9133 32.9928C22.971 33.008 23.0085 33.0162 23.0256 33.0175C23.0685 33.0208 23.0921 33.0118 23.0965 32.9906C23.1009 32.9694 23.1245 32.9605 23.1674 32.9637L23.1721 32.9722C23.2791 33.0018 23.4032 33.0327 23.5445 33.065C23.6771 33.0966 23.7641 33.1489 23.8055 33.2219L23.8341 33.2725C23.8405 33.2838 23.8458 33.3003 23.8499 33.3221C23.8455 33.3433 23.8449 33.3567 23.8481 33.3623C23.8608 33.3848 23.8987 33.4011 23.9619 33.4113C24.0165 33.4208 24.0523 33.4262 24.0695 33.4275C24.0631 33.4163 24.0536 33.3994 24.0408 33.377C24.0281 33.3545 24.0432 33.3449 24.086 33.3481L24.1117 33.3501C24.1235 33.3563 24.1384 33.3682 24.1565 33.3857C24.1746 33.4032 24.1853 33.4148 24.1884 33.4204C24.1884 33.4204 24.2002 33.4267 24.2237 33.4392C24.2354 33.4455 24.2456 33.449 24.2542 33.4496C24.3398 33.4561 24.4171 33.4405 24.4859 33.4027C24.5546 33.3649 24.5704 33.3203 24.5332 33.2691C24.5961 33.3223 24.6666 33.3599 24.7447 33.382C24.8111 33.3978 24.8784 33.4298 24.9467 33.478C24.9422 33.4992 24.9218 33.5138 24.8853 33.5217C24.8371 33.5235 24.8001 33.5233 24.7744 33.5214C24.7999 33.5664 24.8388 33.5989 24.8912 33.619C24.9436 33.6391 25.0045 33.6599 25.074 33.6813C25.1318 33.6964 25.1853 33.7112 25.2345 33.7257C25.2837 33.7402 25.3162 33.7615 25.3321 33.7896L25.3208 33.813C25.2833 33.8047 25.2544 33.7972 25.2341 33.7903C25.2138 33.7833 25.1994 33.7795 25.1908 33.7789C25.1736 33.7776 25.1565 33.7763 25.1394 33.775C25.1222 33.7737 25.0923 33.7714 25.0494 33.7682C25.0685 33.8019 25.1128 33.8295 25.1823 33.8509C25.2401 33.866 25.2974 33.873 25.3542 33.872C25.4313 33.8778 25.4961 33.8693 25.5488 33.8464C25.6014 33.8235 25.6748 33.8156 25.7691 33.8228L25.8205 33.8267C25.6812 33.8269 25.6243 33.8495 25.6497 33.8944C25.6784 33.945 25.7252 33.9916 25.7903 34.0342C25.8555 34.0768 25.9308 34.1013 26.0165 34.1078L26.0308 34.1331C26.0994 34.1383 26.1519 34.1369 26.1884 34.1289C26.2248 34.1209 26.2731 34.1192 26.333 34.1238C26.4187 34.1303 26.4888 34.1383 26.5434 34.1478C26.5894 34.1567 26.659 34.1781 26.752 34.2121C26.738 34.2164 26.7101 34.225 26.6682 34.238C26.6264 34.2509 26.6001 34.2624 26.5893 34.2723C26.5367 34.2952 26.5018 34.306 26.4846 34.3047C26.4589 34.3028 26.4588 34.3243 26.4843 34.3692L26.5614 34.3751C26.5785 34.3764 26.6198 34.3768 26.6851 34.3764C26.7419 34.3753 26.7789 34.3755 26.796 34.3768C26.8131 34.3781 26.8308 34.3875 26.8489 34.405C26.8552 34.4162 26.8643 34.425 26.876 34.4312L26.8904 34.4565C26.839 34.4526 26.7891 34.4515 26.7409 34.4533C26.6841 34.4543 26.6685 34.4773 26.6939 34.5223C26.8053 34.5308 26.8819 34.5285 26.9238 34.5155C26.9539 34.4963 27.0118 34.49 27.0974 34.4965L27.1488 34.5004C27.166 34.5017 27.2034 34.5099 27.2612 34.525C27.3072 34.5339 27.3388 34.539 27.3559 34.5403L27.3089 34.6093C27.3356 34.6275 27.388 34.6476 27.4661 34.6697C27.5356 34.6911 27.6094 34.7128 27.6875 34.7349C27.7655 34.7569 27.8409 34.7815 27.9136 34.8085C27.9746 34.8293 28.0114 34.8509 28.0241 34.8734C28.0464 34.9127 28.0542 34.9483 28.0476 34.98C28.0324 35.0112 28.0114 35.0392 27.9845 35.064C28.0508 35.0798 28.1182 35.0903 28.1868 35.0955C28.2436 35.0944 28.2992 35.0987 28.3538 35.1082C28.4052 35.1121 28.4513 35.1209 28.4919 35.1348C28.5325 35.1486 28.5624 35.1724 28.5815 35.2061L28.6586 35.212C28.6671 35.2126 28.6854 35.2086 28.7133 35.2C28.7326 35.1907 28.7466 35.1864 28.7552 35.187C28.7723 35.1883 28.8001 35.2012 28.8385 35.2256C28.8769 35.2501 28.9212 35.2776 28.9714 35.3083C29.0184 35.3334 29.0697 35.3588 29.1252 35.3846C29.1808 35.4103 29.2386 35.4254 29.2985 35.43L29.3114 35.431C29.32 35.4316 29.3382 35.4276 29.3661 35.419L29.408 35.406C29.4134 35.4011 29.4332 35.3999 29.4674 35.4025C29.4706 35.4081 29.4711 35.4162 29.4689 35.4268C29.4721 35.4324 29.4753 35.438 29.4785 35.4437C29.4699 35.443 29.4629 35.4452 29.4575 35.4501C29.4521 35.4551 29.4452 35.4573 29.4366 35.4566L29.4509 35.4819C29.4732 35.5212 29.5084 35.5401 29.5567 35.5383C29.6134 35.5373 29.6536 35.543 29.6771 35.5555C29.6888 35.5618 29.7022 35.5709 29.7171 35.5828C29.732 35.5947 29.747 35.6066 29.7619 35.6185C29.7736 35.6247 29.7811 35.6307 29.7843 35.6363C29.9664 35.6394 30.0889 35.6675 30.1518 35.7207C30.2115 35.7682 30.2732 35.8482 30.3368 35.9606C30.3905 35.9539 30.4328 35.9491 30.4639 35.9461C30.495 35.943 30.5405 35.9438 30.6005 35.9484C30.6274 35.9235 30.6639 35.9155 30.7099 35.9244C30.7645 35.9339 30.8196 35.9515 30.8751 35.9773C30.9307 36.003 30.9809 36.0337 31.0257 36.0694C31.0673 36.0994 31.0928 36.1229 31.1024 36.1397L31.1119 36.1566C31.0936 36.1821 31.0398 36.2103 30.9507 36.2412C30.8616 36.2721 30.7999 36.2862 30.7657 36.2836ZM30.5935 36.0446C30.603 36.0615 30.6495 36.0785 30.733 36.0956C30.8219 36.1077 30.8791 36.1147 30.9048 36.1167C30.8889 36.0886 30.8532 36.0617 30.7976 36.0359C30.7421 36.0102 30.6886 35.9954 30.6372 35.9915L30.6243 35.9905C30.619 35.9955 30.6109 36.0029 30.6001 36.0129C30.5947 36.0178 30.5936 36.0231 30.5968 36.0288C30.5968 36.0288 30.5957 36.0341 30.5935 36.0446ZM30.679 36.5433C30.6853 36.5545 30.7056 36.5614 30.7399 36.564C30.7742 36.5666 30.7881 36.5623 30.7818 36.5511C30.769 36.5286 30.7455 36.5161 30.7113 36.5134C30.677 36.5108 30.6662 36.5208 30.679 36.5433ZM29.373 35.6051C29.4083 35.6239 29.4473 35.6349 29.4902 35.6382L29.4759 35.6129L29.373 35.6051ZM28.2201 35.4369C28.1903 35.4131 28.1539 35.3996 28.1111 35.3963L28.1302 35.43L28.2201 35.4369ZM27.9814 35.5801L27.8658 35.5713L27.9458 35.6258L27.9814 35.5801ZM27.7318 35.3998L27.7175 35.3745L27.6147 35.3667L27.629 35.392L27.7318 35.3998ZM27.0901 34.6573C27.0986 34.6579 27.1329 34.6605 27.1929 34.6651C27.2497 34.664 27.276 34.6525 27.2718 34.6307C27.2633 34.6301 27.2488 34.6263 27.2285 34.6194C27.1964 34.6062 27.1718 34.5989 27.1547 34.5976L27.129 34.5957C27.0776 34.5918 27.0646 34.6123 27.0901 34.6573ZM27.499 35.3579L27.4751 35.3158L27.4366 35.3128L27.4604 35.355L27.499 35.3579ZM26.1662 34.6113C26.1834 34.6126 26.2048 34.6143 26.2305 34.6162C26.2445 34.6119 26.2494 34.5988 26.2452 34.577L26.1938 34.5731C26.1424 34.5692 26.1145 34.5778 26.1101 34.599C26.1218 34.6053 26.132 34.6087 26.1405 34.6094L26.1662 34.6113ZM25.9743 34.1853C25.9454 34.1777 25.9357 34.1824 25.9453 34.1992C25.9548 34.2161 25.9724 34.2255 25.9981 34.2274C26.0314 34.2138 26.0235 34.1998 25.9743 34.1853ZM25.8248 34.4644C25.8644 34.462 25.8715 34.4384 25.8461 34.3934C25.8118 34.3908 25.7882 34.3998 25.7752 34.4203L25.8248 34.4644ZM25.4551 34.2024L25.436 34.1686C25.4189 34.1673 25.3947 34.1682 25.3637 34.1712C25.3208 34.168 25.2956 34.1741 25.288 34.1897L25.4551 34.2024ZM25.1878 34.0126C25.1973 34.0295 25.2235 34.0396 25.2664 34.0428C25.3092 34.0461 25.3259 34.0393 25.3163 34.0224C25.3068 34.0055 25.2806 33.9955 25.2377 33.9922C25.1949 33.989 25.1783 33.9958 25.1878 34.0126ZM25.0788 33.9721C25.0883 33.989 25.1102 33.9987 25.1445 34.0013C25.1702 34.0032 25.1783 33.9958 25.1687 33.9789C25.1624 33.9677 25.1463 33.9611 25.1206 33.9591C25.0864 33.9565 25.0724 33.9609 25.0788 33.9721ZM24.5997 33.4517C24.5794 33.4447 24.5724 33.4469 24.5787 33.4581C24.5851 33.4694 24.5969 33.4756 24.614 33.4769C24.6279 33.4726 24.6333 33.4677 24.6301 33.462C24.627 33.4564 24.6168 33.453 24.5997 33.4517ZM24.3066 33.5424C24.3044 33.5529 24.329 33.5602 24.3804 33.5641C24.4233 33.5673 24.4372 33.563 24.4223 33.5511C24.4074 33.5392 24.3871 33.5323 24.3614 33.5304C24.3357 33.5284 24.3174 33.5324 24.3066 33.5424ZM23.9982 33.8013C24.0045 33.8126 24.0163 33.8188 24.0334 33.8201C24.0506 33.8214 24.0559 33.8165 24.0496 33.8052C24.0197 33.7814 24.0026 33.7801 23.9982 33.8013ZM23.6372 33.6852L23.573 33.6803C23.5762 33.6859 23.5767 33.694 23.5745 33.7046C23.5691 33.7096 23.568 33.7149 23.5711 33.7205L23.5969 33.7224L23.6372 33.6852ZM22.8215 33.0262C22.8278 33.0375 22.8524 33.0447 22.8953 33.048C22.9296 33.0506 22.9435 33.0462 22.9371 33.035C22.9276 33.0181 22.9057 33.0084 22.8714 33.0058C22.8286 33.0026 22.8119 33.0094 22.8215 33.0262ZM22.893 33.435L22.8739 33.4013L22.7968 33.3955L22.8159 33.4292L22.893 33.435ZM22.7531 33.4486C22.7627 33.4655 22.7803 33.4749 22.806 33.4768C22.8317 33.4788 22.8398 33.4713 22.8302 33.4545C22.8239 33.4432 22.8078 33.4366 22.7821 33.4347C22.7564 33.4327 22.7468 33.4374 22.7531 33.4486ZM22.4191 32.8585L22.4 32.8248L22.2972 32.817L22.3163 32.8507L22.4191 32.8585ZM22.2226 33.2067C22.2023 33.1997 22.1819 33.1928 22.1616 33.1859C22.1327 33.1783 22.1167 33.1717 22.1135 33.1661C22.105 33.1655 22.0964 33.1648 22.0878 33.1642C22.0761 33.1579 22.0659 33.1544 22.0574 33.1538L22.0812 33.1959L22.2226 33.2067ZM21.7795 32.576C21.7741 32.581 21.7928 32.5851 21.8357 32.5883C21.8699 32.5909 21.8812 32.5891 21.8695 32.5828C21.846 32.5703 21.8256 32.5634 21.8085 32.5621C21.7828 32.5601 21.7731 32.5648 21.7795 32.576ZM21.6913 32.8113C21.7231 32.8675 21.8076 32.9008 21.9447 32.9113L22.0089 32.9161C21.9695 32.8755 21.9182 32.8501 21.8551 32.8399C21.7888 32.8241 21.7342 32.8146 21.6913 32.8113ZM21.9321 33.1281L21.8279 33.096L21.8422 33.1213L21.9321 33.1281ZM21.2915 32.4744L21.2339 32.4378L21.253 32.4715L21.2915 32.4744ZM21.0606 32.3923C21.0691 32.393 21.0831 32.3887 21.1024 32.3794C21.1218 32.3701 21.1341 32.363 21.1395 32.358L21.0723 32.3045L20.8025 32.284C20.8184 32.3121 20.8525 32.3362 20.9049 32.3563C20.9487 32.3758 20.992 32.3871 21.0349 32.3904L21.0606 32.3923ZM20.997 32.5408L20.9779 32.5071L20.9713 32.5389L20.997 32.5408ZM20.4941 31.9782L20.4284 31.949L20.3784 31.9694L20.4941 31.9782ZM20.4885 32.3812C20.5079 32.3719 20.5154 32.3563 20.5113 32.3345C20.4986 32.312 20.489 32.2952 20.4827 32.2839L20.3798 32.2761L20.4885 32.3812ZM20.3211 32.433L20.2638 32.3319C20.2359 32.3405 20.2315 32.3617 20.2506 32.3954L20.2697 32.4291L20.3211 32.433ZM19.8636 32.3418C19.916 32.3619 19.955 32.373 19.9807 32.3749L19.9664 32.3496L19.8636 32.3418ZM19.5027 32.2257C19.5154 32.2481 19.5448 32.2638 19.5908 32.2727C19.6282 32.2809 19.6614 32.2888 19.6903 32.2964C19.6871 32.2908 19.6882 32.2855 19.6936 32.2805C19.6809 32.258 19.6531 32.2451 19.6102 32.2419C19.5642 32.233 19.5284 32.2276 19.5027 32.2257ZM19.2813 32.1604C19.3155 32.1631 19.3664 32.1588 19.434 32.1478C19.5016 32.1368 19.5226 32.1089 19.4972 32.0639C19.4458 32.06 19.3863 32.0635 19.3187 32.0745C19.248 32.0799 19.2184 32.1073 19.2298 32.1565L19.2813 32.1604ZM19.1987 31.9928C19.2072 31.9935 19.2255 31.9895 19.2534 31.9808C19.2673 31.9765 19.2786 31.9747 19.2872 31.9753L19.2824 31.9669C19.2697 31.9444 19.2446 31.9291 19.2071 31.9209C19.1697 31.9126 19.1295 31.9069 19.0867 31.9036L19.1344 31.9879L19.1987 31.9928ZM18.9299 31.7788L18.8594 31.7412L18.8928 31.8002L18.9299 31.7788ZM18.9259 31.9237C18.9322 31.9349 18.9525 31.9419 18.9868 31.9445C19.0125 31.9464 19.0222 31.9418 19.0158 31.9305C19.0095 31.9193 18.9934 31.9127 18.9677 31.9107C18.9335 31.9081 18.9195 31.9125 18.9259 31.9237ZM18.6674 31.8799C18.6759 31.8805 18.6958 31.8793 18.7269 31.8763C18.7548 31.8677 18.773 31.8637 18.7816 31.8643C18.7901 31.865 18.7928 31.8625 18.7896 31.8569L18.7801 31.84C18.7578 31.8007 18.713 31.765 18.6457 31.733C18.5784 31.701 18.5148 31.6827 18.4548 31.6782C18.4034 31.6743 18.3669 31.6823 18.3454 31.7021C18.3207 31.7164 18.3162 31.7376 18.3322 31.7657C18.3493 31.767 18.3921 31.7702 18.4607 31.7754C18.5206 31.78 18.5528 31.7717 18.5572 31.7505C18.5572 31.7505 18.569 31.7568 18.5925 31.7693L18.6101 31.7787C18.6133 31.7843 18.6154 31.7953 18.6163 31.8115C18.6088 31.827 18.6081 31.8404 18.6145 31.8517C18.6177 31.8573 18.6251 31.8632 18.6369 31.8695C18.6486 31.8758 18.6588 31.8792 18.6674 31.8799Z" fill="white"/>
<path d="M34.7002 35.1032C34.7002 35.1032 34.6991 35.1085 34.6969 35.1191L34.7193 35.1369C34.7365 35.1382 34.7509 35.142 34.7626 35.1483L34.8155 35.1765C34.8314 35.2046 34.8297 35.2233 34.8104 35.2326C34.7964 35.2369 34.7766 35.2381 34.7509 35.2361C34.7252 35.2342 34.6979 35.2294 34.669 35.2218C34.6401 35.2143 34.6171 35.2098 34.6 35.2085C34.6286 35.2591 34.6675 35.2916 34.7167 35.3061C34.7627 35.315 34.7969 35.3391 34.8191 35.3785C34.8382 35.4122 34.8199 35.4377 34.7641 35.455C34.7939 35.4787 34.8346 35.4926 34.886 35.4965C34.9374 35.5004 34.9716 35.503 34.9888 35.5043L35.0222 35.5633C34.9879 35.5607 34.9386 35.5677 34.8742 35.5843C34.8152 35.596 34.7686 35.6005 34.7343 35.5979L34.7086 35.596C34.573 35.5157 34.4004 35.4354 34.1909 35.355C33.9868 35.2695 33.773 35.1888 33.5495 35.1126C33.326 35.0365 33.1084 34.9635 32.8967 34.8937C32.6764 34.8232 32.4834 34.7574 32.3176 34.6964C32.2697 34.6551 32.2195 34.6244 32.1671 34.6043C32.1147 34.5842 32.0581 34.5638 31.9971 34.543C31.9362 34.5222 31.8736 34.4987 31.8095 34.4723C31.7336 34.4396 31.66 34.3964 31.5885 34.3426L31.6818 34.3335C31.6037 34.3114 31.5144 34.2697 31.4141 34.2083C31.302 34.1406 31.2101 34.1014 31.1384 34.0906C31.0752 34.0804 31.0265 34.074 30.9922 34.0714C30.9494 34.0681 30.9151 34.0655 30.8894 34.0636C30.8551 34.061 30.822 34.0531 30.7899 34.0399C30.7493 34.0261 30.6964 33.9978 30.6313 33.9552C30.7084 33.9611 30.7342 33.9415 30.7088 33.8966C30.7056 33.891 30.6992 33.8797 30.6897 33.8629C30.6716 33.8454 30.6411 33.835 30.5983 33.8317L30.2641 33.8064C30.2695 33.8014 30.2733 33.7936 30.2755 33.783C30.2777 33.7724 30.2815 33.7647 30.2869 33.7597L30.2678 33.726C30.2348 33.6966 30.1851 33.674 30.1188 33.6582L30.0931 33.6562C30.0759 33.6549 30.0534 33.6586 30.0255 33.6672C29.9858 33.6696 29.9633 33.6733 29.9579 33.6782L29.9322 33.6763C29.898 33.6737 29.775 33.6374 29.5632 33.5676C29.3515 33.4977 29.128 33.4216 28.8928 33.3392C28.649 33.2562 28.4298 33.1803 28.2352 33.1118C28.0374 33.0376 27.937 32.9977 27.9338 32.9921C27.9242 32.9752 27.928 32.9675 27.9452 32.9688C27.9591 32.9644 27.9774 32.9604 27.9999 32.9568C28.0106 32.9468 28.0198 32.9341 28.0274 32.9185C28.0318 32.8973 28.0197 32.8615 27.9911 32.8109C27.9311 32.8063 27.8813 32.8052 27.8416 32.8076C27.7934 32.8093 27.735 32.8076 27.6665 32.8024C27.6322 32.7998 27.5632 32.7865 27.4594 32.7625C27.3524 32.7328 27.2396 32.7001 27.1209 32.6641C26.9936 32.6276 26.8792 32.592 26.7776 32.5574C26.676 32.5228 26.6178 32.4996 26.6028 32.4877C26.5784 32.4589 26.5699 32.4368 26.5775 32.4212C26.5819 32.4 26.537 32.3859 26.4428 32.3787C26.4374 32.3837 26.4261 32.3855 26.409 32.3842C26.395 32.3885 26.3795 32.39 26.3623 32.3887C26.3195 32.3855 26.2901 32.3698 26.2742 32.3417C26.2551 32.308 26.2242 32.2895 26.1813 32.2862C26.1642 32.2849 26.1529 32.2868 26.1476 32.2917C26.1304 32.2904 26.1176 32.2895 26.109 32.2888C26.109 32.2888 26.095 32.2931 26.0671 32.3018C26.0618 32.3067 26.0521 32.3114 26.0381 32.3157C25.9804 32.3006 25.9259 32.2695 25.8747 32.2226C25.8118 32.1694 25.7724 32.1288 25.7565 32.1007C25.7651 32.1014 25.7994 32.104 25.8593 32.1085C25.9193 32.1131 25.9456 32.1016 25.9383 32.0742C25.9383 32.0742 25.9308 32.0682 25.9159 32.0563L25.8807 32.0375C25.8635 32.0362 25.8245 32.0252 25.7635 32.0044C25.694 31.983 25.6475 31.966 25.624 31.9535C25.6208 31.9479 25.6086 31.9335 25.5873 31.9104C25.566 31.8872 25.5495 31.8725 25.5377 31.8663L25.5201 31.8569C25.5201 31.8569 25.5131 31.859 25.4992 31.8633L25.4863 31.8624C25.4927 31.8736 25.4948 31.8845 25.4926 31.8951C25.4989 31.9063 25.4994 31.9145 25.494 31.9194C25.4886 31.9244 25.4817 31.9266 25.4731 31.9259L25.4474 31.9239L25.4298 31.9145C25.4126 31.9132 25.372 31.8994 25.3079 31.873C25.232 31.8404 25.1839 31.8206 25.1636 31.8137L25.1507 31.8127C25.1422 31.812 25.1379 31.8117 25.1379 31.8117C25.1347 31.8061 25.1288 31.803 25.1203 31.8023C25.086 31.7997 25.0635 31.8034 25.0527 31.8133C25.0419 31.8232 25.0194 31.8269 24.9851 31.8243C24.8823 31.8165 24.7733 31.776 24.658 31.7027C24.531 31.6231 24.4108 31.5629 24.2975 31.522C24.213 31.4887 24.1194 31.4681 24.0166 31.4603C23.9138 31.4525 23.8196 31.4239 23.7342 31.3744C23.7257 31.3737 23.7294 31.3659 23.7456 31.351C23.751 31.3461 23.7521 31.3408 23.7489 31.3351L23.7522 31.3193C23.7427 31.3024 23.6957 31.2773 23.6112 31.244C23.515 31.2044 23.4146 31.1645 23.3098 31.1243C23.1965 31.0834 23.0976 31.0464 23.0131 31.013C22.9169 30.9735 22.8625 30.9424 22.8498 30.92C22.8307 30.8862 22.8265 30.8644 22.8373 30.8545C22.8481 30.8445 22.8439 30.8227 22.8248 30.789L22.7734 30.7851C22.7648 30.7844 22.7482 30.7912 22.7235 30.8055C22.6987 30.8198 22.6853 30.8322 22.6831 30.8428C22.6811 30.8104 22.6555 30.7869 22.6063 30.7724C22.554 30.7523 22.4946 30.7343 22.4283 30.7185C22.3619 30.7028 22.3026 30.6848 22.2502 30.6647C22.1892 30.6439 22.1476 30.6139 22.1254 30.5745L22.1063 30.5408C22.1085 30.5302 22.1273 30.5128 22.1628 30.4886C22.1866 30.4582 22.1969 30.4401 22.1937 30.4345L22.1269 30.3165C22.1291 30.3059 22.1682 30.2954 22.2444 30.2851C22.3173 30.2691 22.3458 30.247 22.3299 30.2189L22.3204 30.2021C22.3172 30.1965 22.3098 30.1905 22.298 30.1842C22.2628 30.1654 22.2494 30.1564 22.258 30.157C22.3554 30.1698 22.4181 30.1718 22.446 30.1632C22.4621 30.1483 22.4697 30.1327 22.4688 30.1165C22.4678 30.1003 22.4727 30.0872 22.4834 30.0773C22.4825 30.0611 22.5077 30.0549 22.5591 30.0588C22.6362 30.0647 22.7068 30.0808 22.7709 30.1072C22.8265 30.1329 22.8837 30.1615 22.9424 30.1928C22.9894 30.2179 23.0407 30.2433 23.0962 30.269C23.1401 30.2885 23.1919 30.3005 23.2519 30.3051C23.3033 30.309 23.3344 30.306 23.3452 30.296C23.3474 30.2854 23.3453 30.2745 23.339 30.2633C23.3326 30.252 23.3262 30.2408 23.3199 30.2295C23.3103 30.2127 23.3211 30.2028 23.3522 30.1997C23.3906 30.2242 23.4194 30.2532 23.4385 30.287C23.4544 30.3151 23.4703 30.3432 23.4862 30.3713C23.4935 30.3987 23.5094 30.4268 23.5339 30.4556C23.5498 30.4837 23.5754 30.5071 23.6106 30.5259L23.5295 30.3826L23.6066 30.3885C23.6438 30.4397 23.6757 30.4744 23.7024 30.4926C23.7205 30.5101 23.744 30.5226 23.7729 30.5302C23.7986 30.5321 23.8286 30.5344 23.8629 30.537C23.8971 30.5396 23.9459 30.546 24.009 30.5562C24.0379 30.5637 24.0828 30.5779 24.1438 30.5987C24.2047 30.6194 24.2672 30.643 24.3314 30.6694C24.3955 30.6958 24.4554 30.7218 24.5109 30.7476C24.5633 30.7677 24.5954 30.7809 24.6071 30.7871L24.6214 30.8124C24.6373 30.8405 24.6474 30.8655 24.6515 30.8873C24.6525 30.9035 24.6609 30.9257 24.6768 30.9538L24.6912 30.9791C24.7918 30.9975 24.8629 31.0217 24.9045 31.0517C24.9429 31.0762 25.0023 31.0941 25.0826 31.1056C25.0911 31.1063 25.1297 31.1092 25.1982 31.1144C25.2636 31.114 25.3064 31.1172 25.3267 31.1241C25.3642 31.1324 25.4375 31.146 25.5467 31.165C25.6441 31.1778 25.7533 31.1969 25.8742 31.2222C25.9834 31.2412 26.0871 31.2652 26.1855 31.2942C26.2754 31.3226 26.3267 31.348 26.3394 31.3704C26.2965 31.3672 26.2323 31.3623 26.1466 31.3558C26.0609 31.3493 26.0046 31.3585 25.9777 31.3833L25.9968 31.417C26.0085 31.4233 26.0289 31.4302 26.0577 31.4378C26.0866 31.4454 26.1096 31.4498 26.1268 31.4511C26.1503 31.4637 26.2058 31.4894 26.2935 31.5283C26.3725 31.5666 26.4281 31.5923 26.4601 31.6055C26.4472 31.626 26.4658 31.6516 26.5159 31.6824C26.5544 31.7068 26.6056 31.7322 26.6698 31.7586C26.7307 31.7793 26.7901 31.7973 26.8479 31.8124C26.9056 31.8276 26.9431 31.8358 26.9602 31.8371C27.003 31.8403 27.0267 31.8314 27.0311 31.8102C27.0355 31.789 27.0591 31.7801 27.1019 31.7833L27.1067 31.7917C27.2137 31.8214 27.3378 31.8523 27.479 31.8845C27.6117 31.9161 27.6987 31.9685 27.7401 32.0415L27.7687 32.0921C27.7751 32.1033 27.7803 32.1199 27.7845 32.1417C27.7801 32.1629 27.7795 32.1763 27.7826 32.1819C27.7954 32.2044 27.8333 32.2207 27.8965 32.2309C27.951 32.2404 27.9869 32.2458 28.004 32.2471C27.9977 32.2359 27.9881 32.219 27.9754 32.1965C27.9627 32.1741 27.9777 32.1644 28.0206 32.1677L28.0463 32.1696C28.058 32.1759 28.073 32.1878 28.0911 32.2053C28.1092 32.2228 28.1198 32.2344 28.123 32.24C28.123 32.24 28.1348 32.2463 28.1583 32.2588C28.17 32.2651 28.1802 32.2686 28.1887 32.2692C28.2744 32.2757 28.3516 32.2601 28.4204 32.2223C28.4892 32.1844 28.505 32.1399 28.4678 32.0887C28.5307 32.1419 28.6012 32.1795 28.6793 32.2016C28.7456 32.2174 28.8129 32.2494 28.8812 32.2976C28.8768 32.3188 28.8564 32.3333 28.8199 32.3413C28.7717 32.343 28.7347 32.3429 28.709 32.341C28.7345 32.3859 28.7734 32.4185 28.8258 32.4386C28.8781 32.4587 28.9391 32.4795 29.0086 32.5009C29.0664 32.516 29.1199 32.5308 29.1691 32.5453C29.2183 32.5598 29.2508 32.5811 29.2667 32.6092L29.2553 32.6325C29.2179 32.6243 29.189 32.6168 29.1687 32.6098C29.1484 32.6029 29.1339 32.5991 29.1254 32.5985C29.1082 32.5972 29.0911 32.5959 29.0739 32.5946C29.0568 32.5933 29.0268 32.591 28.984 32.5877C29.0031 32.6215 29.0474 32.649 29.1169 32.6704C29.1747 32.6856 29.2319 32.6926 29.2887 32.6916C29.3658 32.6974 29.4307 32.6889 29.4833 32.666C29.536 32.6431 29.6094 32.6352 29.7037 32.6424L29.7551 32.6463C29.6158 32.6465 29.5589 32.669 29.5843 32.714C29.6129 32.7646 29.6598 32.8112 29.7249 32.8538C29.79 32.8964 29.8654 32.9209 29.9511 32.9274L29.9654 32.9527C30.0339 32.9579 30.0865 32.9565 30.1229 32.9485C30.1594 32.9405 30.2076 32.9388 30.2676 32.9434C30.3533 32.9499 30.4234 32.9579 30.478 32.9674C30.524 32.9763 30.5935 32.9977 30.6865 33.0316C30.6726 33.036 30.6447 33.0446 30.6028 33.0576C30.561 33.0705 30.5346 33.082 30.5239 33.0919C30.4712 33.1148 30.4363 33.1256 30.4192 33.1243C30.3935 33.1223 30.3934 33.1438 30.4188 33.1888L30.4959 33.1947C30.5131 33.196 30.5543 33.1964 30.6197 33.196C30.6765 33.1949 30.7134 33.195 30.7306 33.1963C30.7477 33.1976 30.7653 33.207 30.7834 33.2246C30.7898 33.2358 30.7989 33.2446 30.8106 33.2508L30.8249 33.2761C30.7735 33.2722 30.7237 33.2711 30.6755 33.2728C30.6187 33.2739 30.603 33.2969 30.6285 33.3419C30.7398 33.3503 30.8165 33.3481 30.8583 33.3351C30.8884 33.3159 30.9463 33.3095 31.032 33.316L31.0834 33.3199C31.1006 33.3212 31.138 33.3295 31.1958 33.3446C31.2418 33.3535 31.2734 33.3586 31.2905 33.3599L31.2435 33.4289C31.2702 33.4471 31.3225 33.4672 31.4006 33.4892C31.4701 33.5107 31.5439 33.5324 31.622 33.5545C31.7001 33.5765 31.7755 33.6011 31.8482 33.6281C31.9092 33.6489 31.946 33.6705 31.9587 33.693C31.981 33.7323 31.9888 33.7679 31.9822 33.7996C31.967 33.8307 31.946 33.8587 31.919 33.8836C31.9854 33.8994 32.0528 33.9099 32.1213 33.9151C32.1781 33.914 32.2338 33.9182 32.2884 33.9278C32.3398 33.9317 32.3858 33.9405 32.4265 33.9544C32.4671 33.9682 32.497 33.992 32.516 34.0257L32.5931 34.0316C32.6017 34.0322 32.62 34.0282 32.6479 34.0196C32.6672 34.0103 32.6812 34.006 32.6897 34.0066C32.7069 34.0079 32.7346 34.0208 32.7731 34.0452C32.8115 34.0697 32.8558 34.0972 32.906 34.1279C32.953 34.153 33.0042 34.1784 33.0598 34.2041C33.1154 34.2299 33.1731 34.245 33.2331 34.2496L33.246 34.2506C33.2545 34.2512 33.2728 34.2472 33.3007 34.2386L33.3425 34.2256C33.3479 34.2206 33.3677 34.2195 33.402 34.2221C33.4052 34.2277 33.4057 34.2358 33.4035 34.2464C33.4067 34.252 33.4098 34.2576 33.413 34.2632C33.4045 34.2626 33.3975 34.2647 33.3921 34.2697C33.3867 34.2747 33.3797 34.2768 33.3712 34.2762L33.3855 34.3015C33.4078 34.3408 33.443 34.3596 33.4912 34.3579C33.548 34.3568 33.5882 34.3626 33.6117 34.3751C33.6234 34.3814 33.6367 34.3905 33.6517 34.4024C33.6666 34.4143 33.6815 34.4261 33.6965 34.438C33.7082 34.4443 33.7157 34.4503 33.7189 34.4559C33.901 34.4589 34.0235 34.4871 34.0864 34.5403C34.1461 34.5878 34.2078 34.6678 34.2714 34.7802C34.325 34.7735 34.3674 34.7687 34.3985 34.7656C34.4296 34.7626 34.4751 34.7634 34.5351 34.7679C34.562 34.7431 34.5985 34.7351 34.6445 34.744C34.6991 34.7535 34.7541 34.7711 34.8097 34.7969C34.8653 34.8226 34.9154 34.8533 34.9602 34.889C35.0018 34.919 35.0274 34.9425 35.037 34.9593L35.0465 34.9762C35.0281 35.0017 34.9744 35.0299 34.8853 35.0608C34.7962 35.0916 34.7345 35.1058 34.7002 35.1032ZM34.5281 34.8642C34.5376 34.8811 34.5841 34.8981 34.6676 34.9152C34.7564 34.9273 34.8137 34.9343 34.8394 34.9363C34.8235 34.9082 34.7878 34.8812 34.7322 34.8555C34.6767 34.8298 34.6232 34.815 34.5718 34.8111L34.5589 34.8101C34.5535 34.8151 34.5454 34.8225 34.5347 34.8325C34.5293 34.8374 34.5282 34.8427 34.5314 34.8483C34.5314 34.8483 34.5303 34.8536 34.5281 34.8642ZM34.6135 35.3628C34.6199 35.3741 34.6402 35.381 34.6745 35.3836C34.7087 35.3862 34.7227 35.3819 34.7163 35.3707C34.7036 35.3482 34.6801 35.3356 34.6458 35.333C34.6116 35.3304 34.6008 35.3404 34.6135 35.3628ZM33.3076 34.4247C33.3429 34.4435 33.3819 34.4545 33.4247 34.4578L33.4104 34.4325L33.3076 34.4247ZM32.1547 34.2565C32.1248 34.2327 32.0885 34.2192 32.0456 34.2159L32.0647 34.2496L32.1547 34.2565ZM31.916 34.3997L31.8003 34.3909L31.8804 34.4454L31.916 34.3997ZM31.6663 34.2194L31.652 34.1941L31.5492 34.1863L31.5635 34.2116L31.6663 34.2194ZM31.0246 33.4768C31.0332 33.4775 31.0675 33.4801 31.1274 33.4846C31.1842 33.4836 31.2106 33.4721 31.2064 33.4503C31.1978 33.4496 31.1834 33.4459 31.1631 33.4389C31.131 33.4257 31.1064 33.4185 31.0893 33.4172L31.0636 33.4152C31.0122 33.4113 30.9992 33.4319 31.0246 33.4768ZM31.4336 34.1775L31.4097 34.1354L31.3711 34.1324L31.395 34.1746L31.4336 34.1775ZM30.1008 33.4309C30.1179 33.4322 30.1394 33.4338 30.1651 33.4358C30.179 33.4315 30.1839 33.4184 30.1798 33.3966L30.1284 33.3927C30.077 33.3888 30.049 33.3974 30.0446 33.4186C30.0564 33.4248 30.0665 33.4283 30.0751 33.429L30.1008 33.4309ZM29.9089 33.0049C29.88 32.9973 29.8703 33.0019 29.8798 33.0188C29.8894 33.0357 29.907 33.0451 29.9327 33.047C29.966 33.0334 29.9581 33.0194 29.9089 33.0049ZM29.7594 33.284C29.799 33.2816 29.8061 33.2579 29.7807 33.213C29.7464 33.2104 29.7228 33.2193 29.7098 33.2399L29.7594 33.284ZM29.3897 33.0219L29.3706 32.9882C29.3534 32.9869 29.3293 32.9878 29.2982 32.9908C29.2554 32.9875 29.2302 32.9937 29.2226 33.0093L29.3897 33.0219ZM29.1224 32.8322C29.1319 32.8491 29.1581 32.8591 29.2009 32.8624C29.2438 32.8656 29.2604 32.8588 29.2509 32.842C29.2413 32.8251 29.2152 32.8151 29.1723 32.8118C29.1295 32.8086 29.1128 32.8154 29.1224 32.8322ZM29.0133 32.7917C29.0229 32.8085 29.0448 32.8183 29.0791 32.8209C29.1048 32.8228 29.1128 32.8154 29.1033 32.7985C29.0969 32.7873 29.0809 32.7807 29.0552 32.7787C29.0209 32.7761 29.007 32.7804 29.0133 32.7917ZM28.5342 32.2712C28.5139 32.2643 28.507 32.2665 28.5133 32.2777C28.5197 32.289 28.5314 32.2952 28.5486 32.2965C28.5625 32.2922 28.5679 32.2872 28.5647 32.2816C28.5615 32.276 28.5514 32.2725 28.5342 32.2712ZM28.2412 32.3619C28.239 32.3725 28.2636 32.3798 28.315 32.3837C28.3579 32.3869 28.3718 32.3826 28.3569 32.3707C28.3419 32.3588 28.3216 32.3519 28.2959 32.35C28.2702 32.348 28.252 32.352 28.2412 32.3619ZM27.9327 32.6209C27.9391 32.6321 27.9509 32.6384 27.968 32.6397C27.9851 32.641 27.9905 32.636 27.9841 32.6248C27.9543 32.601 27.9371 32.5997 27.9327 32.6209ZM27.5718 32.5047L27.5076 32.4999C27.5107 32.5055 27.5112 32.5136 27.509 32.5242C27.5036 32.5292 27.5025 32.5344 27.5057 32.5401L27.5314 32.542L27.5718 32.5047ZM26.7561 31.8458C26.7624 31.857 26.787 31.8643 26.8299 31.8675C26.8641 31.8701 26.8781 31.8658 26.8717 31.8546C26.8622 31.8377 26.8403 31.828 26.806 31.8254C26.7632 31.8221 26.7465 31.8289 26.7561 31.8458ZM26.8276 32.2546L26.8085 32.2209L26.7314 32.215L26.7505 32.2488L26.8276 32.2546ZM26.6877 32.2682C26.6972 32.2851 26.7149 32.2945 26.7406 32.2964C26.7663 32.2984 26.7743 32.2909 26.7648 32.2741C26.7584 32.2628 26.7424 32.2562 26.7167 32.2543C26.691 32.2523 26.6813 32.257 26.6877 32.2682ZM26.3536 31.6781L26.3346 31.6444L26.2318 31.6366L26.2508 31.6703L26.3536 31.6781ZM26.1571 32.0262C26.1368 32.0193 26.1165 32.0124 26.0962 32.0055C26.0673 31.9979 26.0513 31.9913 26.0481 31.9857C26.0395 31.985 26.031 31.9844 26.0224 31.9837C26.0106 31.9775 26.0005 31.974 25.9919 31.9734L26.0158 32.0155L26.1571 32.0262ZM25.7141 31.3956C25.7087 31.4005 25.7274 31.4047 25.7702 31.4079C25.8045 31.4105 25.8158 31.4087 25.804 31.4024C25.7805 31.3899 25.7602 31.3829 25.7431 31.3816C25.7174 31.3797 25.7077 31.3843 25.7141 31.3956ZM25.6259 31.6309C25.6577 31.6871 25.7422 31.7204 25.8792 31.7308L25.9435 31.7357C25.9041 31.6951 25.8528 31.6697 25.7897 31.6595C25.7233 31.6437 25.6687 31.6342 25.6259 31.6309ZM25.8667 31.9477L25.7624 31.9156L25.7768 31.9409L25.8667 31.9477ZM25.2261 31.294L25.1685 31.2573L25.1875 31.2911L25.2261 31.294ZM24.9952 31.2119C25.0037 31.2126 25.0177 31.2082 25.037 31.199C25.0564 31.1897 25.0687 31.1825 25.0741 31.1776L25.0069 31.1241L24.737 31.1036C24.7529 31.1317 24.7871 31.1558 24.8395 31.1759C24.8833 31.1954 24.9266 31.2067 24.9694 31.21L24.9952 31.2119ZM24.9316 31.3604L24.9125 31.3267L24.9059 31.3584L24.9316 31.3604ZM24.4287 30.7978L24.3629 30.7686L24.313 30.789L24.4287 30.7978ZM24.4231 31.2008C24.4424 31.1915 24.45 31.1759 24.4459 31.1541C24.4331 31.1316 24.4236 31.1147 24.4172 31.1035L24.3144 31.0957L24.4231 31.2008ZM24.2556 31.2526L24.1984 31.1514C24.1705 31.1601 24.1661 31.1812 24.1851 31.215L24.2042 31.2487L24.2556 31.2526ZM23.7981 31.1614C23.8505 31.1815 23.8896 31.1925 23.9153 31.1945L23.901 31.1692L23.7981 31.1614ZM23.4372 31.0452C23.4499 31.0677 23.4793 31.0834 23.5253 31.0923C23.5628 31.1005 23.596 31.1084 23.6248 31.116C23.6217 31.1103 23.6228 31.105 23.6281 31.1001C23.6154 31.0776 23.5876 31.0647 23.5448 31.0615C23.4988 31.0526 23.4629 31.0472 23.4372 31.0452ZM23.2158 30.98C23.2501 30.9826 23.301 30.9784 23.3686 30.9674C23.4361 30.9564 23.4572 30.9284 23.4317 30.8835C23.3803 30.8796 23.3209 30.8831 23.2533 30.8941C23.1825 30.8995 23.1529 30.9268 23.1644 30.9761L23.2158 30.98ZM23.1332 30.8124C23.1418 30.8131 23.16 30.8091 23.1879 30.8004C23.2019 30.7961 23.2132 30.7943 23.2217 30.7949L23.217 30.7865C23.2042 30.764 23.1791 30.7487 23.1417 30.7404C23.1042 30.7322 23.0641 30.7265 23.0213 30.7232L23.069 30.8075L23.1332 30.8124ZM22.8645 30.5984L22.794 30.5608L22.8274 30.6198L22.8645 30.5984ZM22.8604 30.7433C22.8668 30.7545 22.8871 30.7614 22.9214 30.764C22.9471 30.766 22.9568 30.7614 22.9504 30.7501C22.944 30.7389 22.928 30.7323 22.9023 30.7303C22.868 30.7277 22.8541 30.732 22.8604 30.7433ZM22.6019 30.6995C22.6105 30.7001 22.6303 30.6989 22.6614 30.6959C22.6893 30.6873 22.7076 30.6833 22.7161 30.6839C22.7247 30.6846 22.7274 30.6821 22.7242 30.6765L22.7147 30.6596C22.6924 30.6203 22.6476 30.5846 22.5803 30.5526C22.513 30.5206 22.4493 30.5023 22.3894 30.4978C22.338 30.4939 22.3015 30.5018 22.28 30.5217C22.2552 30.536 22.2508 30.5572 22.2667 30.5853C22.2839 30.5866 22.3267 30.5898 22.3952 30.595C22.4552 30.5996 22.4874 30.5913 22.4918 30.5701C22.4918 30.5701 22.5036 30.5764 22.5271 30.5889L22.5447 30.5983C22.5479 30.6039 22.5499 30.6148 22.5509 30.631C22.5433 30.6466 22.5427 30.66 22.5491 30.6712C22.5523 30.6769 22.5597 30.6828 22.5715 30.6891C22.5832 30.6953 22.5934 30.6988 22.6019 30.6995Z" fill="white"/>
</svg>
