<svg width="118" height="85" viewBox="0 0 118 85" fill="none" xmlns="http://www.w3.org/2000/svg">
<path d="M65.6297 43.6086C65.4347 43.6464 65.161 43.5497 64.9688 43.7025C64.7186 44.4114 64.131 44.9242 63.7604 45.5715C62.841 47.1757 62.6088 49.1778 62.1262 50.9418C61.9921 51.4336 61.522 51.8805 62.3903 51.973C61.7363 53.9709 60.8418 56.3584 59.5228 58.0032C59.3002 58.2792 57.9744 59.3609 58.6214 59.6887C58.8481 59.8036 59.05 59.599 59.2629 59.571C59.3804 59.5556 59.3915 59.564 59.3735 59.6845C58.8163 60.364 58.2633 61.0548 57.6799 61.7105C55.8383 63.7826 54.1474 65.3953 51.891 67.0009C51.8011 67.064 51.7306 67.1536 51.6104 67.1312C53.6649 64.5378 55.3032 61.6586 56.4162 58.5216C58.161 53.5996 58.9007 47.4223 56.9222 42.4681C56.1106 40.4351 55.1359 39.0327 52.9832 38.3644C50.4379 37.5742 48.3074 38.6782 46.0773 39.7879C45.3016 38.2621 44.7389 36.5878 43.6218 35.2498C44.2371 35.3142 45.0168 37.088 45.3957 37.1258C46.2902 36.9689 45.3666 35.8662 45.05 35.4823C41.8687 31.628 36.9288 32.7475 33.0921 34.8939C32.8432 35.0326 32.358 35.4487 32.199 35.5174C32.04 35.586 32.0801 35.3492 32.0883 35.2526C32.1284 34.8182 32.6317 33.3107 31.7662 33.3933C31.1662 33.4508 29.7476 34.1934 29.1711 34.5114C28.1729 35.0634 27.2714 35.7542 26.3576 36.4337C26.7281 34.014 28.2503 31.366 30.1652 29.8682C30.3574 29.7183 31.256 29.1817 31.2975 29.1033C31.4289 28.8539 31.1012 28.6801 30.8993 28.6605C30.5205 28.6241 29.5776 29.3751 29.261 29.6399C28.8932 29.9481 28.0526 30.9597 27.7553 31.0928C26.6949 31.5734 24.7427 31.4753 23.5399 31.6336C22.3965 31.7849 21.2711 32.2263 20.2051 32.3804C20.0931 32.3972 19.9936 32.435 20.024 32.2739C21.9333 30.7621 24.2657 29.4731 26.6382 28.8945C27.0101 28.8034 27.9434 28.8511 27.4526 28.1071C27.306 27.8843 24.8893 26.423 24.9985 26.2801C25.387 26.154 25.7686 26.0391 26.1764 25.9831C27.288 25.8317 28.9402 25.9074 29.9924 26.2969C30.3712 26.437 31.0169 26.9008 31.4067 26.7817C31.61 26.72 31.78 26.4846 31.7662 26.2605C31.7303 25.7169 31.2242 24.624 31.0791 23.9725C30.7403 22.4496 30.6629 20.8047 30.8025 19.2523L33.4848 23.7512C33.6714 23.9585 33.8235 24.2247 34.1415 24.1266C34.3323 24.0342 34.3986 23.8506 34.4221 23.6447C34.494 23.0282 34.3157 22.1273 34.3419 21.4254C34.3876 20.191 34.5922 18.7745 34.8217 17.5584C35.4439 14.2477 36.7075 11.049 38.6805 8.33373C38.7897 8.40658 38.7856 8.47944 38.798 8.59573C38.9791 10.3807 39.145 12.1503 39.5073 13.91C39.7451 15.0617 40.2221 16.2918 40.4336 17.4001C40.4751 17.6187 40.4308 17.84 40.4626 18.0586L40.5746 18.1749C41.3018 18.2407 41.1387 17.5682 41.241 17.1129C41.3323 16.7094 41.7705 15.8183 41.9696 15.4064C43.7283 11.7594 47.511 7.16663 50.6674 4.66852C50.984 4.41773 51.9449 3.64293 52.2491 3.52104C52.3473 3.48181 52.3804 3.52804 52.3569 3.63032C52.209 4.26081 51.8592 5.02579 51.6629 5.67729C51.1748 7.29273 50.7462 8.92358 50.4891 10.5979C50.4047 11.1513 50.1669 12.4599 50.2001 12.9433C50.2319 13.3986 50.6481 13.5163 50.9633 13.2165C52.0168 11.3727 53.5363 9.87071 55.0737 8.44582C58.5232 5.25137 62.4553 2.62996 66.8726 1.00331C66.3237 2.09054 65.6062 3.10772 65.0614 4.20757C64.796 4.74278 64.5361 5.33683 64.3107 5.89026C64.1365 6.31478 63.5904 7.57575 63.5323 7.93302C63.4978 8.14739 63.5945 8.47104 63.8185 8.53408C64.0425 8.59713 64.5333 7.91901 64.7241 7.76069C65.6878 6.95227 67.1879 6.19709 68.3451 5.70251C72.1762 4.06185 76.27 3.34871 80.4025 2.99003C78.9605 4.57605 77.1784 5.80059 75.6534 7.30394C75.4792 7.50009 75.4529 7.78731 75.54 8.0297C75.7585 8.49345 77.2779 8.07313 77.7273 8.0297C82.6962 7.55894 87.4675 8.22725 92.3134 9.28786L92.3881 9.40275C91.5074 9.62132 90.6156 9.90153 89.7667 10.2224C89.3395 10.3849 88.3081 10.5909 88.5985 11.2171C88.7644 11.573 90.0211 11.4932 90.4566 11.5506C95.1381 12.1671 99.3992 14.8922 103.281 17.4211C103.373 17.557 103.212 17.4883 103.149 17.4785C102.213 17.323 99.1033 17.1675 98.365 17.6341C97.5119 18.1735 98.9457 18.5209 99.2982 18.7059C101.582 19.9052 104.69 23.2986 106.448 25.2853C107.531 26.5099 108.528 27.8115 109.574 29.0682C109.634 29.2181 109.282 29.2097 109.177 29.4311C109.15 29.4857 109.128 29.5404 109.128 29.602C109.128 29.9145 110.366 30.8434 110.669 31.1656C113.088 33.7394 115.296 37.8544 116.565 41.1525C116.851 41.8965 117.066 42.6895 117.262 43.4629L66.115 43.4587C65.9256 43.4068 65.7569 43.5904 65.6283 43.6156L65.6297 43.6086ZM49.1978 32.3061C49.2448 32.5261 49.0761 32.9212 49.4494 32.98C49.7632 32.7783 49.8821 32.5233 50.2527 32.3453C51.88 31.5663 53.8225 31.7597 55.5659 31.6182C57.5098 31.4613 59.7482 31.2147 61.6368 30.7439C61.8801 30.6837 62.2617 30.6388 62.1539 30.2942L62.0889 30.2045C61.941 30.0966 61.7737 30.0826 61.5981 30.0854C60.6496 30.1036 59.1523 30.6192 58.1209 30.7691C57.0466 30.9247 55.8535 31.0395 54.7765 30.9709C55.9738 30.0616 57.4725 29.277 58.4679 28.1435C60.0759 26.3109 61.7336 22.3179 62.0018 19.887C62.1815 18.2505 61.9935 16.4824 62.335 14.8781C62.6419 13.4392 63.6747 11.779 63.4272 10.2924C63.3719 9.95897 63.1231 9.21921 62.7346 9.24443C62.4152 9.26544 61.5386 10.3415 61.2193 10.6161C59.2754 12.2834 56.9001 13.0497 54.6506 14.1174C50.5167 16.0803 47.9977 19.8422 46.6165 24.1533C46.5086 24.4895 46.3966 25.3484 46.1506 25.5137C45.9252 25.665 44.9283 25.8948 44.6173 25.9466C44.0615 26.0377 43.467 26.0825 42.9043 26.1204C42.5711 26.1428 41.4553 25.9522 41.5963 26.5267C41.6931 26.9218 42.8808 26.8251 43.2098 26.8125C44.2288 26.7761 45.2436 26.5981 46.1837 26.1988C45.9197 27.8885 46.0178 29.7141 46.6386 31.3142L47.164 31.1628C47.1916 31.2805 48.8618 32.5737 49.1991 32.3089L49.1978 32.3061ZM84.5295 18.6554C84.412 18.5322 83.6198 18.2673 83.3917 18.1665C83.0336 18.0096 82.7985 17.7041 82.363 17.7952C82.2234 18.5209 83.2354 18.6905 83.7193 18.9791C83.4788 19.2775 81.5515 19.7749 81.9427 20.3213C82.0851 20.4446 82.2787 20.4012 82.4405 20.3564C82.6824 20.2891 84.1811 19.5073 84.3788 19.342C84.5766 19.1766 84.748 18.8852 84.5282 18.654L84.5295 18.6554ZM94.4786 25.8275C93.7983 26.0293 95.0938 26.7214 95.2888 26.8868C95.5404 27.1011 96.2469 27.981 96.493 27.9572C96.8552 27.8479 96.7529 27.6419 96.6119 27.3785C96.381 26.9484 94.9486 25.6888 94.4786 25.8275ZM73.3791 30.6486C73.0763 30.6697 72.0421 30.7089 72.1969 31.1867C72.2356 31.2721 72.3283 31.3338 72.414 31.359C72.5868 31.4094 73.6652 31.2231 74.0385 31.2343C75.2165 31.2665 76.6198 31.6336 77.7494 31.9811C78.4075 32.1828 79.9007 32.9156 80.3873 32.98C80.9404 33.0529 80.7219 32.4714 80.3569 32.2417C79.8661 31.9348 78.5762 31.5509 77.9761 31.3702C76.5521 30.9415 74.8736 30.5478 73.3804 30.65L73.3791 30.6486ZM65.2536 38.2621C64.7642 38.4736 63.5904 38.8057 63.2226 39.1448C63.0152 39.3367 63.0291 39.6211 63.2696 39.7808L63.5392 39.7738C64.0065 39.3241 65.9726 38.8281 66.1952 38.3377C66.3182 38.0659 66.1869 37.8824 65.9587 37.7395C65.4043 37.3934 63.813 36.9212 63.1258 36.7153C61.4045 36.1983 59.9487 35.9181 58.1278 36.0442C57.8278 36.0652 57.5402 36.1338 57.7545 36.5065C57.9301 36.8134 59.1841 36.5738 59.5629 36.5836C60.8612 36.6172 63.9789 37.4943 65.1472 38.1024C65.226 38.143 65.2896 38.0631 65.255 38.2607L65.2536 38.2621ZM82.8069 41.1553C83.0129 41.0236 82.7156 40.5682 82.5925 40.4351C82.3907 40.218 81.0261 39.0327 80.8242 38.943C80.2698 38.6964 80.0887 39.0439 80.4758 39.4488C80.7523 39.7374 81.951 40.7938 82.2621 40.9984C82.3976 41.0866 82.6423 41.259 82.8055 41.1553H82.8069ZM106.258 42.845L105.041 40.0709L104.849 39.8775C104.425 39.8565 104.483 40.1381 104.562 40.48C104.732 41.2183 105.312 42.0338 105.542 42.7693L106.258 42.845ZM114.775 42.0057C114.425 41.7802 113.434 40.9858 113.416 41.8923C113.402 42.562 114.308 42.0828 114.737 42.1585L114.775 42.0072V42.0057Z" fill="#C98C3C"/>
<path d="M65.6297 43.6086C63.9927 45.5042 63.3263 47.8692 63.0042 50.3155C63.3471 50.4556 63.3941 50.6111 63.3609 50.9698C63.2033 52.6973 61.276 56.6792 60.2335 58.1125C60.1284 58.2568 59.6542 58.5931 60.0703 58.558C60.3123 58.537 60.5238 58.4291 60.6234 58.8046C60.6967 59.0834 59.8809 60.0306 59.6722 60.294C57.6633 62.8215 55.2092 65.314 52.5671 67.148C51.7306 67.7281 50.6425 68.2689 49.8794 68.8545C49.5821 69.0829 49.3346 69.45 49.0457 69.691C45.8602 72.3586 40.4419 73.8662 37.0587 70.76C35.3374 69.1796 34.2811 66.8944 33.818 64.6107C33.088 64.8475 32.7395 64.046 32.5308 63.4716C32.4741 63.431 32.3248 63.4898 32.2556 63.5234C31.6929 63.8023 30.2689 65.2384 29.785 65.7554C25.7755 70.0497 22.261 75.7268 20.2079 81.2526C20.0129 81.5763 19.7765 81.4152 19.6092 81.5623C19.4516 81.701 19.0976 82.6341 18.7465 82.9788C17.4455 84.2607 15.6578 83.8699 14.1273 84.1795C12.6327 84.4821 12.829 85.4517 10.8105 84.7511C7.80475 83.7087 4.32203 81.0663 2.47629 78.4561C0.808902 76.0981 -0.985685 71.6441 0.637462 68.9078C1.14349 68.0545 3.69849 67.7547 4.60961 67.8177C4.91377 67.8388 5.2926 67.9719 5.58986 67.9761C6.06132 67.9831 6.75675 67.595 7.18535 67.3722C12.041 64.8573 15.2831 59.6943 17.7552 54.9517C17.592 54.2147 17.1828 53.4385 17.0293 52.7142C16.9311 52.2532 16.8579 51.3817 16.8523 50.904C16.8482 50.5593 16.9657 50.3505 17.003 50.0311C15.9827 49.671 15.1946 48.8668 14.6596 47.9365C12.5332 44.2447 14.4204 38.5213 18.4575 37.095C18.7188 37.0025 19.2801 36.9507 19.4626 36.8148C19.6161 36.7013 20.0254 36.0316 20.212 35.8172C21.3803 34.4652 22.691 33.3037 24.245 32.4196C23.5191 32.3692 22.7587 32.5555 22.0453 32.711C21.3319 32.8665 18.9414 33.6666 18.4188 33.511C18.2308 33.455 18.1132 33.2378 18.1506 33.0501C18.228 32.6508 19.5359 31.6854 19.9009 31.3968L19.9396 31.2119C16.4362 28.1659 13.6531 24.1435 12.9631 19.4148C12.518 16.3689 13.5065 14.1034 13.6918 11.2662C13.7291 10.6889 13.4443 8.84232 14.1812 8.77787C14.6374 8.73864 16.4611 9.68437 16.9353 9.96738C20.53 12.1082 23.0421 16.544 23.7569 20.6198C24.0459 22.2632 23.9989 23.9473 24.8575 25.424C26.7737 25.0345 28.9015 24.9323 30.7265 25.7379C30.6532 25.1859 30.4306 24.6787 30.3117 24.135C29.9647 22.5532 29.8582 20.3676 29.9702 18.7465C30.0131 18.1286 30.1016 17.2348 30.88 17.8316L33.6659 22.5294C33.6272 17.8835 34.9019 13.173 37.3283 9.24723C37.6864 8.66719 38.3915 7.85176 38.6445 7.29693C38.8243 6.90323 38.8091 6.09481 39.5004 6.65244C39.8681 6.94947 39.4257 7.17784 39.3538 7.40342C39.1989 7.89099 39.4796 9.71799 39.557 10.3373C39.7769 12.0746 40.1654 14.6021 40.7557 16.2246C40.7848 16.3058 40.7903 16.4081 40.9023 16.4179C42.0346 13.5541 43.8154 10.9818 45.7634 8.62655C47.3313 6.7337 49.0471 4.95434 51.0117 3.48181C51.3076 3.26044 52.7897 2.169 53.0068 2.13818C53.3165 2.09474 53.5045 2.22505 53.5446 2.54169C52.9224 4.28743 52.2989 6.04297 51.8537 7.84756C51.6269 8.76526 51.3228 9.96318 51.2384 10.8907C51.2274 11.0084 51.1859 11.2101 51.2661 11.3012C54.0561 8.06472 57.301 5.14208 60.9773 2.96481C62.6406 1.97986 64.6066 0.936057 66.4357 0.323787C66.9307 0.15846 68.4501 -0.458013 68.1722 0.629221C68.1114 0.867404 67.1685 2.09474 66.9514 2.44922C66.1288 3.79565 65.32 5.27378 64.872 6.79535C64.9508 6.87241 66.1122 6.09621 66.3016 5.99253C69.3792 4.30144 73.2187 3.2114 76.6779 2.6832C77.7618 2.51787 79.385 2.23765 80.4385 2.21244C80.9888 2.19842 81.5141 2.32872 81.3621 2.99984C81.3081 3.23802 80.3417 4.15853 80.0984 4.39111C79.1029 5.33963 77.9955 6.18308 76.9834 7.11479C76.9102 7.18205 76.8217 7.18205 76.8562 7.32916C80.9058 6.82898 84.9277 7.1204 88.9303 7.81113C90.6958 8.11656 92.4738 8.58172 94.2394 8.84652C94.6168 8.90257 95.5653 8.73864 95.3109 9.49242C95.2265 9.74321 94.1993 9.732 93.8758 9.79505C92.807 10.001 91.7715 10.3989 90.7262 10.6903C90.7083 10.7142 90.7691 10.7912 90.7995 10.8052C90.971 10.8865 91.7922 10.9635 92.0826 11.0322C96.8041 12.1404 100.28 14.64 104.299 17.1367C104.591 17.3174 105.621 17.791 105.694 18.018C105.781 18.2898 105.64 18.4705 105.382 18.5574C104.759 18.4439 104.13 18.315 103.501 18.2505C102.398 18.137 100.975 18.0166 99.8831 18.0978C99.7711 18.1062 99.6646 18.039 99.6964 18.2113C101.921 19.6754 103.895 21.5473 105.729 23.4793C107.952 25.8233 109.727 28.3523 111.794 30.7761C112.119 31.1572 113.134 31.932 113.121 32.4182C113.117 32.5947 112.948 32.6802 112.991 32.8371C113.04 33.0165 113.94 34.2228 114.125 34.5226C115.441 36.6368 117.198 39.7024 117.746 42.08C117.899 42.7497 118.432 43.603 117.259 43.4517C117.063 42.6783 116.849 41.8853 116.562 41.1413C115.293 37.8446 113.085 33.7282 110.666 31.1544C110.363 30.8322 109.127 29.9019 109.126 29.5908C109.126 29.5292 109.149 29.4745 109.174 29.4199C109.279 29.1985 109.632 29.2069 109.571 29.057C108.524 27.8003 107.527 26.5001 106.445 25.2741C104.688 23.2874 101.579 19.894 99.2955 18.6947C98.9429 18.5097 97.5106 18.1623 98.3622 17.6229C99.1005 17.1549 102.21 17.3118 103.146 17.4673C103.208 17.4771 103.37 17.5458 103.279 17.4099C99.3964 14.881 95.1353 12.1559 90.4539 11.5394C90.0184 11.4819 88.7616 11.5618 88.5957 11.2059C88.304 10.5811 89.3354 10.3737 89.764 10.2112C90.6115 9.88892 91.5046 9.60871 92.3853 9.39154L92.3107 9.27665C87.4661 8.21744 82.6935 7.54913 77.7245 8.01849C77.2765 8.06052 75.7557 8.48224 75.5373 8.01849C75.4501 7.7761 75.4764 7.48888 75.6506 7.29273C77.1756 5.78938 78.9577 4.56484 80.3998 2.97882C76.2673 3.3375 72.1734 4.05064 68.3423 5.6913C67.1851 6.18728 65.6836 6.94106 64.7213 7.74948C64.5319 7.9092 64.0287 8.58312 63.8157 8.52287C63.5918 8.46123 63.495 8.13618 63.5296 7.92181C63.5876 7.56454 64.1351 6.30357 64.3079 5.87905C64.5347 5.32562 64.7946 4.73157 65.0587 4.19636C65.6034 3.09651 66.3224 2.07933 66.8699 0.992099C62.4539 2.62015 58.5219 5.24156 55.0709 8.43461C53.5321 9.8581 52.0141 11.3615 50.9605 13.2053C50.6453 13.5051 50.2292 13.3874 50.1974 12.9321C50.1642 12.4501 50.402 11.1415 50.4863 10.5867C50.7421 8.91237 51.1721 7.28152 51.6601 5.66608C51.8564 5.01599 52.2076 4.2496 52.3542 3.61911C52.3777 3.51824 52.3445 3.4706 52.2463 3.50983C51.9436 3.63312 50.9827 4.40652 50.6647 4.65731C47.5082 7.15543 43.7255 11.7481 41.9669 15.3951C41.7678 15.8071 41.3309 16.6981 41.2382 17.1017C41.1346 17.5556 41.2977 18.2295 40.5718 18.1637L40.4599 18.0474C40.4281 17.8288 40.4737 17.6074 40.4308 17.3889C40.2193 16.2792 39.7423 15.0505 39.5045 13.8988C39.1409 12.139 38.9764 10.3695 38.7952 8.58452C38.7828 8.46823 38.7869 8.39538 38.6777 8.32252C36.7048 11.0378 35.4411 14.2365 34.8189 17.5472C34.5908 18.7633 34.3848 20.1798 34.3392 21.4142C34.3129 22.1161 34.4913 23.0184 34.4194 23.6335C34.3959 23.8394 34.3295 24.023 34.1387 24.1154C33.8207 24.2121 33.6686 23.9473 33.482 23.7399L30.7998 19.2411C30.6601 20.7935 30.7376 22.4383 31.0763 23.9613C31.2215 24.6128 31.7261 25.7057 31.7634 26.2493C31.7786 26.4734 31.6086 26.7088 31.404 26.7705C31.0127 26.8882 30.3684 26.4258 29.9896 26.2857C28.9375 25.8962 27.2839 25.8205 26.1737 25.9719C25.7658 26.0279 25.3842 26.1414 24.9957 26.2689C24.8865 26.4118 27.3019 27.8731 27.4498 28.0959C27.9406 28.8399 27.0074 28.7922 26.6355 28.8833C24.263 29.4619 21.9305 30.7523 20.0212 32.2627C19.9908 32.4238 20.089 32.386 20.2023 32.3692C21.2683 32.2164 22.3923 31.7737 23.5371 31.6224C24.7399 31.4641 26.6908 31.5621 27.7526 31.0816C28.0485 30.9471 28.8891 29.9355 29.2582 29.6287C29.5734 29.3639 30.5164 28.6129 30.8966 28.6493C31.0984 28.6689 31.4261 28.8427 31.2947 29.092C31.2533 29.1705 30.3546 29.7071 30.1624 29.857C28.2475 31.3548 26.7253 34.0028 26.3548 36.4225C27.2673 35.7429 28.1701 35.0522 29.1683 34.5002C29.7435 34.1808 31.162 33.4396 31.7634 33.3821C32.6289 33.2995 32.1243 34.807 32.0856 35.2414C32.0773 35.338 32.0358 35.5762 32.1962 35.5062C32.3566 35.4361 32.8405 35.0214 33.0893 34.8827C36.926 32.7362 41.8659 31.6168 45.0473 35.4711C45.3639 35.855 46.2874 36.9577 45.3929 37.1146C45.0141 37.0782 44.2343 35.303 43.619 35.2386C44.7362 36.578 45.2989 38.2509 46.0745 39.7766C48.3032 38.6684 50.4352 37.5629 52.9805 38.3531C55.1332 39.0215 56.1079 40.4239 56.9194 42.4569C58.8979 47.4111 58.1569 53.5884 56.4134 58.5104C55.3018 61.6488 53.6621 64.5266 51.6076 67.12C51.7279 67.1424 51.7984 67.0528 51.8882 66.9897C54.1446 65.3841 55.8355 63.7714 57.6771 61.6992C58.2606 61.0435 58.815 60.3528 59.3708 59.6733C59.3874 59.5528 59.3777 59.5444 59.2602 59.5598C59.0472 59.5878 58.8468 59.7924 58.6186 59.6775C57.9716 59.3511 59.2989 58.2694 59.5201 57.992C60.8391 56.3471 61.7336 53.9611 62.3876 51.9618C61.5193 51.8693 61.988 51.421 62.1235 50.9306C62.6074 49.168 62.8396 47.1659 63.7577 45.5603C64.1282 44.913 64.7172 44.4016 64.966 43.6912C65.1582 43.5385 65.432 43.6352 65.6269 43.5974L65.6297 43.6086ZM64.8389 6.87521V6.95227C64.8872 6.92705 64.8872 6.90183 64.8389 6.87521ZM23.6463 29.0977C23.7072 29.1635 25.2031 28.547 25.3262 28.4714C25.4063 28.4223 25.4589 28.4195 25.4589 28.299C25.4589 28.2318 24.8519 27.2664 24.7662 27.1628C24.5215 26.8671 23.9685 26.6514 24.0238 26.1652C24.0417 26.0069 24.1897 25.899 24.162 25.7183C24.1344 25.5375 23.8454 25.1242 23.7611 24.8972C23.0297 22.9385 23.1071 20.474 22.4601 18.3486C21.4937 15.1682 17.9778 10.836 14.8061 9.76002C14.6858 9.71939 14.5821 9.67736 14.4508 9.69978C14.6153 11.9247 13.8203 14.0403 13.6226 16.2302C13.1401 21.5431 16.0048 27.202 20.0281 30.5113C20.2217 30.6697 20.4332 30.8952 20.707 30.8532C20.7595 30.807 20.0005 29.836 19.9217 29.7015C18.4948 27.2833 18.7313 23.3869 18.1215 20.6057C17.6307 18.371 16.4694 16.0004 16.1942 13.7755C16.1624 13.5191 15.9537 12.0438 16.5896 12.5173C16.7003 12.6 16.7639 13.8007 16.8095 14.0683C17.3279 17.1031 19.9341 19.8057 21.4923 22.3837C22.7366 24.4419 23.6837 26.6206 23.6477 29.0977H23.6463ZM35.1784 66.3662C38.7067 75.6553 47.652 71.4437 51.9422 65.3645C56.1784 59.3623 58.9422 50.5131 56.3623 43.3382C55.577 41.1553 54.97 39.6716 52.5906 38.9878C49.8545 38.2018 48.4885 39.7024 46.2045 40.459C45.9515 40.543 45.845 40.6089 45.6169 40.4015C45.3611 40.1689 44.891 38.7188 44.6892 38.2859C43.9993 36.798 42.4701 34.0757 40.7613 33.7128C38.4192 33.2168 34.4083 34.709 32.4713 36.0904C32.2501 36.2473 31.2146 37.364 31.1897 36.4631C31.1745 35.9419 31.5561 34.8645 31.6321 34.2452C31.6542 34.0687 31.516 34.1219 31.3901 34.1541C29.9633 34.517 27.7153 36.0904 26.5511 37.0403C26.294 37.2505 26.1433 37.6274 25.7326 37.4845C25.322 37.3416 25.7091 35.9391 25.7949 35.5874C26.0949 34.3657 26.659 33.2406 27.1899 32.1142C27.1899 32.0371 27.0101 32.0763 26.9355 32.0847C26.7018 32.1142 25.8626 32.194 25.7313 32.2389C25.6303 32.2739 25.593 32.4448 25.4824 32.5219C24.9556 32.8876 24.2077 33.1538 23.6228 33.5405C22.8679 34.0406 21.9402 34.8182 21.307 35.4711C21.1522 35.6309 20.3102 36.5878 20.2645 36.7069C20.2452 36.7559 20.2203 36.8834 20.2922 36.8876C21.0098 36.8722 21.7024 37.1552 22.3121 37.5125C22.4587 37.5994 22.9357 38.0561 23.0421 37.9552C23.0518 37.5882 22.0812 36.5696 22.59 36.3132C23.0131 36.1016 23.179 36.4645 23.3574 36.7587C25.3289 40.019 24.7621 44.8135 23.1597 48.1158C23.0726 48.2938 22.3135 49.5001 22.3661 49.5631C25.0095 48.7771 27.4844 49.7257 29.6702 51.2122C30.0214 51.4504 30.6394 51.7194 30.3435 52.2252L29.9564 52.2196C28.5241 51.1982 27.035 50.2076 25.257 49.954C22.2195 49.5225 20.9116 51.0273 19.4239 53.3811C19.2276 53.6921 18.9221 53.9821 18.8571 54.3716C21.4079 53.2143 23.9201 54.0732 26.2829 55.2137C26.2898 55.2291 26.341 55.2809 26.3589 55.2907L26.435 55.4435C26.4253 55.5163 26.4433 55.599 26.435 55.6732C26.1585 55.9647 25.846 55.7251 25.5308 55.5962C23.3795 54.7275 22.1338 53.9275 19.6686 54.6589C17.8893 55.1857 17.5879 56.7955 16.7127 58.2694C16.6698 58.3409 16.2841 58.8397 16.3353 58.8803C18.4547 58.3899 20.7595 58.9559 22.3661 60.4453C22.9301 60.9679 23.674 61.8015 23.5717 62.6226C23.3546 62.7024 23.2758 62.7865 23.1196 62.5455C23.1154 62.5385 23.0573 62.4208 23.0435 62.3928C22.0163 60.1343 19.0783 58.7584 16.6726 59.4898C15.4324 59.8666 15.131 60.8012 14.4052 61.7735C14.1577 62.1042 13.8729 62.411 13.6185 62.7332C13.5286 62.8467 13.4415 62.9056 13.4706 63.0793C13.194 63.1241 13.0834 63.4058 12.9424 63.6131C15.3343 63.2853 17.957 64.0951 19.5387 65.9809C19.6908 66.1631 19.9922 66.5526 20.1028 66.7459C20.2314 66.9701 20.4498 67.3246 20.2549 67.5487L20.0019 67.6496C19.6106 67.2069 19.3894 66.6422 18.9746 66.1715C17.4662 64.4538 14.0955 63.508 12.0437 64.6513C11.7492 64.8152 11.2087 65.4653 10.9086 65.7161C9.71547 66.7165 8.43935 67.6692 7.0623 68.388C9.09054 69.1334 10.6999 70.6437 12.5636 71.6735C13.241 72.0476 13.9669 72.36 14.6775 72.6627C16.5067 73.4389 19.7737 74.152 20.3281 76.3685C20.4719 76.9415 20.4747 77.6855 20.4802 78.2782C20.4996 78.3048 20.5646 78.2375 20.5922 78.2025C20.783 77.9531 21.1508 76.9724 21.3443 76.5969C23.197 73.0045 25.7907 69.1796 28.43 66.1351C31.1053 63.0499 34.0309 61.1234 37.6892 59.4029C40.8912 57.8967 45.2035 56.7324 47.0866 53.5366C48.0751 51.8581 48.5562 50.3856 48.971 48.4969C49.0706 48.043 49.3277 47.5162 49.2752 47.009C49.2669 46.9291 49.2835 46.8395 49.1604 46.8941C49.0028 46.9642 48.3945 47.5666 48.2534 47.7319C48.0074 48.0248 47.8788 48.3288 47.6894 48.6496C47.5331 48.913 47.3451 49.4777 46.9386 49.1442C46.51 48.794 47.3092 47.7025 47.5843 47.3593C48.7374 45.9231 50.5375 45.1428 52.3459 45.727C52.9155 45.9105 53.5045 46.1361 53.2667 46.817C52.7828 46.8773 52.4302 46.5354 51.9698 46.4121C51.1942 46.2048 50.6343 46.3112 49.8766 46.5144C49.8545 46.6195 49.8807 46.719 49.9098 46.8184C50.1351 47.6002 50.7711 48.5964 51.0822 49.4497C52.1371 52.3527 52.621 55.7391 52.0389 58.7458C51.5163 61.4457 50.0273 64.7704 47.8345 66.4755C45.386 68.3782 40.229 70.0412 37.8164 67.3974C36.8264 66.313 37.1043 64.8208 36.1047 63.7813L34.5701 64.2016C34.6461 64.9596 34.913 65.6657 35.1784 66.3662ZM19.9147 32.3818V32.4588C19.9631 32.4336 19.9631 32.4084 19.9147 32.3818ZM23.215 39.5385C23.1279 39.4698 22.9716 39.1504 22.8555 39.0257C19.8083 35.764 15.8804 38.744 14.8822 42.2523C14.5185 43.5301 14.4467 44.6608 14.7273 45.9624C15.2347 48.312 17.0929 50.0409 19.5746 49.4889L18.3386 48.871C17.2588 47.3775 18.4299 44.5669 20.4802 45.175C21.737 45.5477 22.1448 47.1113 21.7619 48.2686C21.9098 48.0598 22.2707 48.0108 22.4006 47.8847C22.5057 47.781 22.7712 47.0888 22.8527 46.8913C23.6367 44.9844 24.0528 42.5844 23.7873 40.5262C23.7708 40.3945 23.6684 39.68 23.6366 39.6477C23.6007 39.6127 23.356 39.6477 23.215 39.5385ZM23.0795 38.0337V38.1108C23.1279 38.0855 23.1279 38.0603 23.0795 38.0337ZM18.3676 53.9933C18.4312 53.7958 18.5557 53.5926 18.669 53.4189C19.2055 52.5951 19.5829 52.0613 19.9936 51.1702C20.1747 50.7751 21.1867 50.1348 21.2724 49.5645C20.3088 50.195 19.3119 50.3604 18.1782 50.3309C18.0192 50.3267 17.74 50.1824 17.6501 50.3239C17.3791 50.7499 17.9183 53.3741 18.2017 53.8967C18.2487 53.9849 18.199 54.0256 18.369 53.9933H18.3676ZM51.685 56.9734V55.3692C51.255 55.6396 51.1956 56.3233 51.4168 56.7479C51.4776 56.8641 51.5232 57.0015 51.685 56.9734ZM46.333 55.6746L43.973 57.2144L41.5106 58.4249C41.4968 58.5258 41.5535 58.5973 41.5977 58.6785C41.6862 58.8369 42.5254 60.0544 42.5987 60.1104C42.7148 60.2001 42.7425 60.1735 42.8669 60.1497C43.3978 60.0488 44.5661 59.5766 45.079 59.3286C45.4164 59.1661 47.0022 58.1826 46.9981 57.8659L46.333 55.6746ZM51.2329 59.2656C49.2793 58.6687 47.0382 59.2025 45.733 60.832C45.3556 61.3027 44.9629 62.0523 44.9021 62.6632C44.8578 63.1157 45.144 64.1427 44.6781 64.2744C43.8223 64.5154 44.1831 62.0495 44.3739 61.632C43.3799 61.8043 42.5019 62.8663 42.0056 63.7C41.8203 64.011 40.8193 66.0328 40.9825 66.2135C42.4065 65.7119 43.1877 66.2065 43.4766 67.6566C43.5831 67.7491 44.7859 67.4212 44.8703 67.2825C44.508 65.7203 45.6514 64.0643 47.3119 64.5729C47.5442 64.6443 48.2424 65.1165 48.3696 65.0338L50.0937 62.4138C49.9264 61.9528 49.4936 61.5802 49.4397 61.0337C49.3941 60.5644 49.6374 59.8708 50.0494 59.6285L51.2329 59.2628V59.2656ZM51.0822 59.9521C50.3024 59.9227 49.8849 60.4061 50.0453 61.1949C50.0702 61.3182 50.2596 61.6656 50.3674 61.7077C50.5029 61.7609 50.5554 61.4695 50.5886 61.3994C50.6688 61.2299 51.15 60.0166 51.0822 59.9521ZM37.2882 60.4103C36.5098 60.7815 35.719 61.1794 34.9766 61.6194C34.5839 61.852 33.3368 62.5623 33.1004 62.8495C32.9137 63.0751 33.2234 63.763 33.4073 63.9228C33.6562 64.1385 33.8069 63.8681 34.0184 63.7798C34.288 63.6678 34.5604 63.5585 34.8369 63.4646C35.2462 63.3245 37.0504 62.949 37.2108 62.8159C37.4956 62.5791 37.4431 60.8264 37.2868 60.4117L37.2882 60.4103ZM47.8414 65.4513C46.4713 64.5 45.0846 65.4303 45.4302 67.0542C45.5712 67.1564 47.5414 65.8633 47.7613 65.6363C47.8221 65.5732 47.8705 65.569 47.8414 65.4513ZM39.2487 67.5109C39.1312 66.9897 38.6279 66.5806 38.1192 66.5189C38.086 66.6633 38.1993 66.6997 38.2699 66.7865C38.3791 66.9211 39.1091 67.644 39.2501 67.5109H39.2487ZM42.8669 67.8934C42.9112 66.0664 40.6963 66.1743 40.8359 67.9649C41.5051 68.1176 42.1881 67.9074 42.8669 67.8934ZM3.20214 68.6794C1.71311 68.8321 0.92642 69.4108 0.803371 70.9842C0.490908 74.9562 3.4593 79.2505 6.51065 81.474C7.52823 82.2152 10.6294 84.1164 11.781 84.2299C12.4461 84.2944 12.7737 83.8446 13.342 83.6135C14.8338 83.0054 17.0998 83.7157 18.3317 82.253C18.9787 81.4838 19.6507 79.3332 19.7281 78.3216C19.9977 74.8077 16.9947 74.5499 14.5268 73.5047C10.6764 71.8753 7.58077 68.2297 3.20214 68.6808V68.6794Z" fill="#181613"/>
<path d="M47.1626 31.16C47.1584 31.1432 47.2469 30.9877 47.2262 30.8336C47.1999 30.6458 47.0575 30.657 47.0008 30.5197C46.8902 30.2535 46.8211 29.6707 46.7865 29.3653C46.192 23.9655 49.7466 17.3959 54.5746 15.0337C56.9789 13.8582 59.238 13.2263 61.4336 11.5198C61.7875 11.2438 62.0751 10.9005 62.3889 10.6553C62.465 10.5965 62.4843 10.5068 62.6157 10.5418C62.6157 12.1278 61.6797 13.5513 61.4322 15.1079C61.0299 17.6411 61.4847 19.7763 60.5819 22.3417C58.9588 26.9582 55.8189 30.6388 50.8098 31.2273C50.7255 31.2371 50.2734 31.3198 50.3301 31.1236C50.655 30.0112 52.5588 28.5274 53.3455 27.6097C54.352 26.437 55.0073 24.8174 55.0765 23.2538C55.1497 21.5991 54.3506 19.1893 55.7208 17.9493C56.9734 16.8158 58.2564 16.1727 59.4482 14.7759C59.6805 14.5041 60.6123 13.4659 60.1298 13.173C59.6901 12.9068 59.0749 13.8203 58.7735 14.0907C55.1511 17.3398 51.9422 19.0491 50.2955 24.0594C49.6692 25.9649 48.8563 30.2353 49.1245 32.152L49.2005 32.2291C49.2047 32.2543 49.195 32.2809 49.2005 32.3061C48.8632 32.5709 47.193 31.2791 47.1654 31.16H47.1626Z" fill="#F4B292"/>
<path d="M47.1626 31.16L46.6372 31.3113C46.0164 29.7113 45.9183 27.8857 46.1823 26.196C45.2422 26.5953 44.2288 26.7733 43.2084 26.8097C42.8794 26.8209 41.6917 26.919 41.595 26.5239C41.4539 25.9494 42.5697 26.1414 42.9029 26.1176C43.4642 26.0783 44.0587 26.0349 44.6159 25.9438C44.9256 25.8934 45.9238 25.6636 46.1492 25.5109C46.3953 25.3456 46.5073 24.4867 46.6151 24.1505C47.9963 19.8394 50.5153 16.0775 54.6493 14.1146C56.8987 13.0469 59.274 12.2792 61.2179 10.6133C61.5373 10.3387 62.4138 9.26264 62.7332 9.24163C63.1217 9.21641 63.3706 9.95617 63.4259 10.2896C63.6733 11.7762 62.6406 13.4364 62.3336 14.8753C61.9921 16.4782 62.1815 18.2463 62.0004 19.8842C61.7322 22.3151 60.0731 26.3081 58.4666 28.1407C57.4725 29.2742 55.9724 30.0588 54.7751 30.9681C55.8521 31.0367 57.0453 30.9219 58.1195 30.7663C59.1509 30.6164 60.6483 30.1022 61.5967 30.0826C61.7723 30.0798 61.9396 30.0924 62.0875 30.2017L62.1525 30.2914C62.2603 30.6346 61.8801 30.6795 61.6354 30.7411C59.7468 31.2119 57.5084 31.4599 55.5645 31.6154C53.8211 31.7555 51.8786 31.5635 50.2513 32.3425C49.8807 32.5205 49.7618 32.7755 49.448 32.9772C49.0747 32.9198 49.2434 32.5247 49.1964 32.3033C49.1908 32.2795 49.2005 32.2515 49.1964 32.2262C49.1867 32.1716 49.1217 32.1548 49.1203 32.1492C48.8521 30.2325 49.6651 25.9634 50.2914 24.0566C51.938 19.0463 55.147 17.3384 58.7693 14.0879C59.0721 13.8161 59.686 12.904 60.1256 13.1702C60.6082 13.4617 59.6763 14.4999 59.444 14.7731C58.2522 16.1699 56.9692 16.813 55.7166 17.9465C54.3465 19.1865 55.1456 21.5963 55.0723 23.251C55.0032 24.8146 54.3479 26.4342 53.3413 27.6069C52.5546 28.5232 50.6508 30.0084 50.3259 31.1208C50.2692 31.3156 50.72 31.2343 50.8057 31.2245C55.8148 30.636 58.9546 26.9554 60.5777 22.3389C61.4792 19.7735 61.0243 17.6383 61.428 15.1051C61.6755 13.5485 62.6115 12.125 62.6115 10.539C62.4816 10.504 62.4608 10.5937 62.3848 10.6525C62.0695 10.8977 61.7834 11.241 61.4294 11.517C59.2353 13.2235 56.9748 13.854 54.5704 15.0309C49.7425 17.3931 46.1893 23.9627 46.7824 29.3625C46.8156 29.6679 46.8861 30.2521 46.9967 30.5169C47.0534 30.6542 47.1958 30.643 47.222 30.8308C47.2442 30.9849 47.1557 31.1404 47.1584 31.1572L47.1626 31.16Z" fill="#181613"/>
<path d="M65.2536 38.2621C65.2882 38.0631 65.2246 38.1444 65.1458 38.1038C63.9775 37.4957 60.8598 36.6172 59.5616 36.585C59.1827 36.5752 57.9273 36.8148 57.7531 36.5079C57.5388 36.1338 57.8264 36.0666 58.1264 36.0456C59.9473 35.9181 61.4031 36.1983 63.1245 36.7167C63.8116 36.9241 65.403 37.3948 65.9574 37.7409C66.1855 37.8824 66.3168 38.0673 66.1938 38.3391C65.9712 38.8295 64.0052 39.3241 63.5379 39.7752L63.2683 39.7822C63.0277 39.6225 63.0139 39.3395 63.2212 39.1462C63.589 38.8071 64.7628 38.475 65.2523 38.2635L65.2536 38.2621Z" fill="#181613"/>
<path d="M73.3791 30.6486C74.8722 30.5478 76.5507 30.9401 77.9747 31.3688C78.5748 31.5495 79.8647 31.9334 80.3555 32.2403C80.7205 32.4686 80.939 33.0515 80.3859 32.9786C79.9007 32.9142 78.4061 32.1814 77.748 31.9797C76.6198 31.6322 75.2151 31.2651 74.0371 31.2329C73.6639 31.2231 72.5854 31.408 72.4126 31.3576C72.3269 31.3324 72.2343 31.2707 72.1956 31.1853C72.0407 30.7061 73.0749 30.6669 73.3777 30.6472L73.3791 30.6486Z" fill="#181613"/>
<path d="M84.5295 18.6554C84.7494 18.8866 84.5848 19.1724 84.3802 19.3434C84.1756 19.5143 82.6824 20.2905 82.4418 20.3577C82.2787 20.4026 82.0865 20.446 81.9441 20.3227C81.5515 19.7763 83.4802 19.2789 83.7207 18.9805C83.2368 18.6933 82.2234 18.5223 82.3644 17.7966C82.7999 17.7055 83.035 18.011 83.3931 18.1679C83.6212 18.2673 84.4134 18.5336 84.5309 18.6568L84.5295 18.6554Z" fill="#181613"/>
<path d="M106.258 42.845L105.542 42.7693C105.312 42.0324 104.732 41.2169 104.562 40.48C104.483 40.1381 104.425 39.8565 104.849 39.8775L105.041 40.0709L106.258 42.845Z" fill="#181613"/>
<path d="M82.8069 41.1553C82.6437 41.259 82.399 41.088 82.2635 40.9984C81.9524 40.7938 80.7523 39.7374 80.4772 39.4488C80.0901 39.0439 80.2712 38.6978 80.8256 38.943C81.0275 39.0327 82.3921 40.218 82.5939 40.4351C82.717 40.5682 83.0142 41.0236 82.8082 41.1553H82.8069Z" fill="#181613"/>
<path d="M94.4786 25.8275C94.9486 25.6874 96.381 26.9484 96.6119 27.3785C96.7529 27.6419 96.8552 27.8479 96.493 27.9572C96.2469 27.981 95.5418 27.1011 95.2888 26.8868C95.0938 26.7214 93.7983 26.0307 94.4786 25.8275Z" fill="#181613"/>
<path d="M114.775 42.0057L114.737 42.1571C114.306 42.0814 113.401 42.5606 113.416 41.8909C113.435 40.9858 114.426 41.7788 114.775 42.0043V42.0057Z" fill="#181613"/>
<path d="M19.4239 53.3839C20.9116 51.0287 22.2195 49.5253 25.257 49.9568C27.0336 50.209 28.5241 51.1996 29.9564 52.2224L30.3435 52.228C30.6394 51.7222 30.0214 51.4532 29.6702 51.215C27.483 49.7299 25.0095 48.7799 22.3661 49.5659C22.3135 49.5029 23.0739 48.2966 23.1597 48.1186C24.7621 44.8163 25.3289 40.0218 23.3574 36.7615C23.179 36.4673 23.0131 36.1044 22.59 36.316C22.0812 36.571 23.0518 37.591 23.0421 37.958C22.9357 38.0589 22.4587 37.6022 22.3121 37.5153C21.7024 37.158 21.0098 36.8736 20.2922 36.8904C20.2203 36.8862 20.2466 36.7587 20.2645 36.7097C20.3102 36.5906 21.1522 35.6337 21.307 35.4739C21.9402 34.8196 22.8666 34.0434 23.6228 33.5433C24.2063 33.1566 24.9542 32.8904 25.4824 32.5247C25.593 32.4476 25.6303 32.2767 25.7313 32.2417C25.8626 32.1968 26.7018 32.1156 26.9355 32.0875C27.0101 32.0777 27.1899 32.0399 27.1899 32.117C26.659 33.2434 26.0949 34.3685 25.7949 35.5902C25.7078 35.9419 25.3414 37.3514 25.7326 37.4873C26.1239 37.6232 26.294 37.2533 26.5511 37.0431C27.7153 36.0932 29.9647 34.5198 31.3901 34.1569C31.516 34.1247 31.6542 34.0715 31.6321 34.248C31.5574 34.8673 31.1758 35.9447 31.1897 36.4659C31.2146 37.3668 32.2501 36.2515 32.4713 36.0932C34.4083 34.7104 38.4192 33.2182 40.7613 33.7156C42.4715 34.0785 44.0006 36.8008 44.6892 38.2887C44.8896 38.7216 45.3597 40.1703 45.6169 40.4043C45.845 40.6117 45.9515 40.5458 46.2045 40.4618C48.4885 39.7052 49.8559 38.2046 52.5906 38.9906C54.9714 39.6744 55.5784 41.1567 56.3623 43.341C58.9422 50.5159 56.177 59.3665 51.9422 65.3673C47.652 71.4465 38.7081 75.6568 35.1784 66.369L36.2319 65.8352C36.5776 66.823 37.2398 67.829 38.1427 68.3684C39.8349 69.38 42.1549 69.782 44.0753 69.3897C50.2858 68.119 54.1695 60.336 53.7962 54.3436C53.6441 51.9001 52.7662 50.5593 51.9532 48.4213C51.797 48.0122 51.6173 47.6647 51.6864 47.2009C52.256 47.1057 53.0372 47.4896 53.2694 46.8198C53.5017 46.1501 52.9183 45.9133 52.3486 45.7298C50.5402 45.1456 48.7401 45.926 47.587 47.3621C47.3119 47.7053 46.5128 48.7968 46.9414 49.147C47.3479 49.4805 47.5359 48.9158 47.6921 48.6524C48.2009 49.0377 48.4926 48.6132 48.9738 48.4997C48.559 50.3898 48.0779 51.8623 47.0893 53.5394C46.9469 53.5422 46.8612 53.6207 46.752 53.6935C45.6984 54.4053 44.6574 55.1702 43.5485 55.7937C39.3621 58.1503 35.0014 59.5766 31.0099 62.4881C26.641 65.6741 22.4462 71.0388 20.5162 76.1457C20.4719 76.2634 20.5383 76.4189 20.3295 76.3727C19.7751 74.1548 16.5081 73.4431 14.6789 72.6669C13.9683 72.3656 13.241 72.0518 12.565 71.6777C10.7012 70.6479 9.09193 69.1376 7.06368 68.3922C8.44073 67.6734 9.71685 66.7207 10.91 65.7203C11.21 65.4695 11.7506 64.8194 12.0451 64.6555C14.0969 63.5122 17.4676 64.458 18.976 66.1757C19.3894 66.6464 19.6106 67.2111 20.0032 67.6538L20.2562 67.5529C20.4526 67.3288 20.2327 66.9743 20.1042 66.7501C20.2134 66.1771 19.8415 65.7512 19.4986 65.3392C18.669 64.3445 17.7026 63.735 16.468 63.3693C15.6288 63.1213 14.3291 62.9462 13.4706 63.0835C13.4415 62.9084 13.5286 62.8509 13.6185 62.7374C13.8729 62.4152 14.1577 62.1084 14.4052 61.7777C15.131 60.8054 15.4324 59.8708 16.6726 59.494C19.0783 58.7626 22.0149 60.1385 23.0435 62.397L22.9689 62.5483H23.1196C23.2758 62.7893 23.356 62.7052 23.5717 62.6268C24.162 62.411 23.7514 61.6068 23.5371 61.1724C22.6467 59.3637 20.4982 58.3016 18.5626 58.1938L16.7127 58.2736C17.5893 56.7997 17.8893 55.1899 19.6686 54.6631C22.1352 53.9317 23.3809 54.7317 25.5308 55.6004C25.6179 56.0193 26.1543 56.2267 26.4433 55.8694C26.5608 55.7237 26.4336 55.6886 26.435 55.6774C26.4433 55.6032 26.4253 55.5205 26.435 55.4477C26.4364 55.4378 26.5414 55.379 26.5096 55.2949C26.464 55.2823 26.3852 55.309 26.3589 55.2949C26.3424 55.2851 26.2898 55.2333 26.2829 55.2179C25.4368 53.2956 21.401 53.1765 19.6548 53.5044C19.5097 53.5324 19.3908 53.6221 19.4239 53.3839ZM43.1683 52.6959C45.827 50.0157 46.2114 45.5855 44.7638 42.1823C41.9752 35.6253 33.9866 34.6529 30.732 41.2954V41.4705C30.5482 41.4299 30.5744 41.5644 30.5177 41.6723C28.6651 45.203 30.0076 52.3429 33.5719 54.4389C36.4932 56.1566 40.305 55.5934 42.7508 53.3068C42.9222 53.1471 43.1891 52.9622 43.1669 52.6973L43.1683 52.6959Z" fill="#F5B698"/>
<path d="M3.20214 68.6794C7.58077 68.2297 10.6764 71.8738 14.5268 73.5033C16.9947 74.5485 19.9977 74.8063 19.7281 78.3202C19.6507 79.3304 18.9787 81.4824 18.3317 82.2516C17.0998 83.7143 14.8338 83.004 13.342 83.6121C12.7737 83.8432 12.4461 84.2944 11.781 84.2285C10.6294 84.1164 7.52685 82.2138 6.51065 81.4726C3.4593 79.2505 0.490908 74.9562 0.80337 70.9828C0.92642 69.4094 1.71311 68.8321 3.20214 68.678L3.20214 68.6794ZM3.9515 72.112C2.5786 72.3923 3.65839 74.7012 4.03446 75.4298C4.46859 76.2704 5.52487 78.2796 6.08482 78.9283C6.87427 79.8418 7.93333 79.1777 8.04117 78.089C8.18772 76.6221 7.77295 75.4718 6.97244 74.2851C6.41802 73.4627 5.04097 71.8893 3.9515 72.112ZM15.1808 77.6141C15.1366 77.5594 15.0107 77.537 14.9416 77.4403C14.784 77.2218 14.596 76.6851 14.4066 76.3769C13.5507 74.987 11.9248 73.415 10.4303 72.7677C8.30801 71.85 7.82549 72.8686 8.63291 74.8175C9.20806 76.206 10.6141 79.3906 12.0161 79.944C12.9148 80.2985 14.5711 79.9945 14.9914 79.0193C15.1158 78.7307 15.3799 77.8592 15.1808 77.6141Z" fill="#F4B292"/>
<path d="M23.6463 29.0977C23.6823 26.6206 22.7352 24.4419 21.4909 22.3837C19.9327 19.8057 17.3266 17.1045 16.8081 14.0683C16.7625 13.8007 16.6989 12.6 16.5883 12.5173C15.9523 12.0438 16.161 13.5191 16.1928 13.7755C16.468 16.0004 17.6293 18.371 18.1202 20.6057C18.7313 23.3869 18.4948 27.2833 19.9203 29.7015C19.9991 29.836 20.7581 30.807 20.7056 30.8532C20.4318 30.8952 20.2203 30.6697 20.0267 30.5113C16.0034 27.202 13.1387 21.5431 13.6213 16.2302C13.8203 14.0403 14.6139 11.9247 14.4494 9.69978C14.5821 9.67736 14.6845 9.71939 14.8047 9.76002C17.9764 10.836 21.4923 15.1668 22.4587 18.3486C23.1044 20.474 23.0283 22.9385 23.7597 24.8972C23.844 25.1242 24.1344 25.5375 24.1606 25.7183C24.1869 25.899 24.039 26.0055 24.0224 26.1652C23.9671 26.65 24.5201 26.8671 24.7648 27.1628C24.8506 27.2664 25.4575 28.2318 25.4575 28.299C25.4575 28.4195 25.405 28.4223 25.3248 28.4714C25.2017 28.547 23.7072 29.1635 23.6449 29.0977L23.6463 29.0977Z" fill="#F4B292"/>
<path d="M23.215 39.5385C23.356 39.6491 23.6007 39.6127 23.6366 39.6477C23.6684 39.6786 23.7708 40.3931 23.7873 40.5262C24.0514 42.5844 23.6353 44.9844 22.8527 46.8913C22.7712 47.0888 22.5071 47.781 22.4006 47.8847C22.272 48.0108 21.9098 48.0598 21.7619 48.2686C22.1448 47.1113 21.7356 45.5477 20.4802 45.175C18.4312 44.5669 17.2602 47.3789 18.3386 48.871L19.5746 49.4889C17.0929 50.0423 15.2347 48.312 14.7273 45.9624C14.4467 44.6594 14.5185 43.5287 14.8822 42.2523C15.8804 38.744 19.8083 35.764 22.8555 39.0257C22.9716 39.1504 23.1279 39.4698 23.215 39.5385Z" fill="#FEFEFE"/>
<path d="M53.2681 46.8156C53.0344 47.4854 52.2546 47.1015 51.685 47.1967C51.6159 47.6605 51.7956 48.0066 51.9518 48.4171C52.7662 50.5551 53.6427 51.8959 53.7948 54.3394C54.1695 60.3318 50.2858 68.1148 44.0739 69.3855C42.1535 69.7778 39.8335 69.3771 38.1413 68.3642C37.2385 67.8248 36.5762 66.8188 36.2306 65.831L35.177 66.3648C34.9116 65.6643 34.6447 64.9582 34.5687 64.2002L36.1034 63.7799C37.103 64.8195 36.8251 66.3102 37.815 67.396C40.2276 70.0399 45.386 68.3768 47.8331 66.4741C50.0273 64.769 51.515 61.4443 52.0376 58.7444C52.6196 55.7377 52.1357 52.3513 51.0808 49.4483C50.7711 48.595 50.1338 47.5988 49.9084 46.817C49.8794 46.7162 49.8531 46.6181 49.8752 46.513C50.6315 46.3099 51.1928 46.2048 51.9684 46.4107C52.4288 46.534 52.7814 46.8759 53.2653 46.8156H53.2681Z" fill="#DA9B81"/>
<path d="M51.2329 59.2656L50.0494 59.6313C49.6374 59.8751 49.3941 60.5686 49.4397 61.0365C49.4922 61.5816 49.925 61.9557 50.0937 62.4166L48.3696 65.0366C48.2424 65.1193 47.5442 64.6471 47.3119 64.5757C45.6514 64.0657 44.508 65.7231 44.8703 67.2853C44.7859 67.424 43.5845 67.7519 43.4766 67.6594C43.1877 66.2093 42.4065 65.7147 40.9825 66.2163C40.8193 66.0342 41.8203 64.0138 42.0056 63.7028C42.5005 62.8692 43.3799 61.8071 44.3739 61.6348C44.1831 62.0523 43.8223 64.5182 44.6781 64.2772C45.1454 64.1455 44.8578 63.1185 44.9021 62.666C44.9629 62.0551 45.3556 61.3056 45.733 60.8348C47.0382 59.2053 49.2779 58.6715 51.2329 59.2684V59.2656Z" fill="#DC804F"/>
<path d="M47.0879 53.5366C45.2049 56.7338 40.8926 57.8967 37.6906 59.4029C34.0323 61.1234 31.1067 63.0499 28.4314 66.1351C25.7921 69.1796 23.1984 73.0045 21.3457 76.5969C21.1522 76.9724 20.7844 77.9531 20.5936 78.2025C20.5659 78.2389 20.4996 78.3048 20.4816 78.2782C20.4775 77.6869 20.4733 76.9415 20.3295 76.3685C20.5383 76.4133 20.4705 76.2592 20.5162 76.1415C22.4462 71.0346 26.641 65.6699 31.0099 62.4839C35.0014 59.5724 39.3621 58.1461 43.5485 55.7895C44.6574 55.166 45.6984 54.4011 46.752 53.6893C46.8612 53.6151 46.9469 53.538 47.0893 53.5352L47.0879 53.5366Z" fill="#DA9B81"/>
<path d="M46.333 55.6746L46.9981 57.8659C47.0036 58.1826 45.4164 59.1661 45.079 59.3286C44.5661 59.5766 43.3978 60.0488 42.8669 60.1497C42.7425 60.1735 42.7148 60.1987 42.5987 60.1104C42.5254 60.0544 41.6862 58.8369 41.5977 58.6785C41.5521 58.5973 41.4954 58.5258 41.5106 58.4249L43.973 57.2144L46.333 55.6746Z" fill="#FEFEFE"/>
<path d="M37.2882 60.4103C37.4431 60.8236 37.4956 62.5777 37.2122 62.8145C37.0504 62.949 35.2462 63.3231 34.8383 63.4632C34.5618 63.5585 34.2894 63.6664 34.0198 63.7784C33.8083 63.8667 33.6576 64.1371 33.4087 63.9214C33.2234 63.7616 32.9151 63.0737 33.1018 62.8481C33.3382 62.5609 34.5853 61.8506 34.9779 61.618C35.7204 61.1795 36.5112 60.7801 37.2896 60.4089L37.2882 60.4103Z" fill="#FEFEFE"/>
<path d="M18.3676 53.9933C18.1976 54.0256 18.2487 53.9849 18.2004 53.8967C17.9183 53.3741 17.3791 50.7499 17.6487 50.3239C17.7386 50.1824 18.0178 50.3267 18.1768 50.3309C19.3106 50.3618 20.3074 50.1964 21.2711 49.5645C21.1853 50.1348 20.1733 50.7751 19.9922 51.1702C19.5829 52.0613 19.2041 52.5951 18.6677 53.4189C18.5543 53.5926 18.4299 53.7944 18.3663 53.9933H18.3676Z" fill="#DA9B81"/>
<path d="M23.5703 62.624C23.674 61.8029 22.9288 60.9693 22.3647 60.4467C20.7567 58.9573 18.452 58.3913 16.3339 58.8817C16.2813 58.8411 16.6685 58.3437 16.7113 58.2708L18.5612 58.191C20.4968 58.2988 22.6467 59.3595 23.5357 61.1696C23.75 61.604 24.1606 62.4082 23.5703 62.624Z" fill="#DA9B81"/>
<path d="M13.4692 63.0821C14.3277 62.9448 15.6274 63.1185 16.4666 63.3679C17.7012 63.7336 18.6677 64.3431 19.4972 65.3378C19.8401 65.7498 20.212 66.1757 20.1028 66.7487C19.9922 66.5554 19.6908 66.1659 19.5387 65.9837C17.957 64.0979 15.3343 63.2895 12.9424 63.6159C13.0834 63.4086 13.194 63.1269 13.4706 63.0821H13.4692Z" fill="#DA9B81"/>
<path d="M47.8414 65.4513C47.8705 65.569 47.8221 65.5732 47.7613 65.6363C47.5414 65.8633 45.5712 67.155 45.4302 67.0542C45.0846 65.4303 46.4699 64.5 47.8414 65.4513Z" fill="#FEFEFE"/>
<path d="M40.8359 67.9649C41.5051 68.1176 42.1881 67.9074 42.8669 67.8934C42.9112 66.0664 40.6963 66.1743 40.8359 67.9649Z" fill="#FEFEFE"/>
<path d="M47.6907 48.6482C47.8815 48.3274 48.0087 48.0234 48.2548 47.7305C48.3945 47.5638 49.0042 46.9613 49.1618 46.8927C49.2849 46.8381 49.2683 46.9277 49.2766 47.0076C49.3291 47.5148 49.0719 48.0416 48.9724 48.4955C48.4926 48.609 48.1995 49.0335 47.6907 48.6482Z" fill="#DA9B81"/>
<path d="M51.0822 59.9521C51.15 60.0166 50.6688 61.2299 50.5886 61.3994C50.5554 61.4695 50.5029 61.7609 50.3674 61.7077C50.2596 61.6642 50.0702 61.3182 50.0453 61.1949C49.8849 60.4075 50.3024 59.9227 51.0822 59.9521Z" fill="#FEFEFE"/>
<path d="M51.685 56.9734C51.5232 57.0015 51.4776 56.8641 51.4168 56.7479C51.1956 56.3233 51.255 55.6396 51.685 55.3692V56.9734Z" fill="#F5B698"/>
<path d="M39.2487 67.5109C39.1077 67.6426 38.3777 66.9211 38.2685 66.7865C38.1993 66.6997 38.086 66.6633 38.1178 66.5189C38.6266 66.5806 39.1312 66.9897 39.2473 67.5109H39.2487Z" fill="#F5B698"/>
<path d="M26.435 55.6746C26.435 55.6858 26.5608 55.7209 26.4433 55.8666C26.1529 56.2239 25.6179 56.0165 25.5308 55.5976C25.846 55.7251 26.1585 55.9661 26.435 55.6746Z" fill="#DA9B81"/>
<path d="M26.3589 55.2935C26.3852 55.3089 26.464 55.2823 26.5096 55.2935C26.5401 55.3762 26.4364 55.435 26.435 55.4463L26.3589 55.2935Z" fill="#DA9B81"/>
<path d="M23.1182 62.5483H22.9675L23.0421 62.3956C23.0546 62.4236 23.1126 62.5413 23.1182 62.5483Z" fill="#DA9B81"/>
<path d="M64.8389 6.87521C64.8872 6.90043 64.8872 6.92565 64.8389 6.95227V6.87521Z" fill="#FEFEFE"/>
<path d="M26.2829 55.2165C23.9201 54.076 21.4079 53.2186 18.8571 54.3744C18.9207 53.9835 19.2276 53.6935 19.4239 53.3839C19.3894 53.6207 19.5097 53.531 19.6548 53.5044C21.401 53.1765 25.4368 53.2942 26.2829 55.2179V55.2165Z" fill="#DA9B81"/>
<path d="M19.9147 32.3818C19.9631 32.407 19.9631 32.4322 19.9147 32.4588V32.3818Z" fill="#C98C3C"/>
<path d="M23.0795 38.0337C23.1279 38.0589 23.1279 38.0841 23.0795 38.1108V38.0337Z" fill="#F5B698"/>
<path d="M49.1978 32.2291L49.1217 32.152C49.1217 32.152 49.1867 32.1744 49.1978 32.2291Z" fill="#C98C3C"/>
<path d="M43.1683 52.6959C39.4229 56.4718 33.8663 54.869 31.3971 50.5327C29.8251 47.774 29.5375 44.4366 30.732 41.4705V41.2954C33.988 34.6529 41.9765 35.6253 44.7652 42.1823C46.2128 45.5855 45.8284 50.0157 43.1697 52.6959H43.1683ZM35.9167 39.2779C33.4847 39.5286 31.5809 41.6835 30.9947 43.9897C29.8292 48.5754 33.6935 54.9545 38.8492 52.2518C44.5564 49.2605 42.4757 38.6025 35.9181 39.2779H35.9167Z" fill="#181613"/>
<path d="M30.7307 41.4705C29.5361 44.4366 29.8251 47.774 31.3957 50.5327C33.8663 54.8704 39.4215 56.4718 43.1669 52.696C43.1891 52.9594 42.9208 53.1443 42.7508 53.3054C40.305 55.592 36.4932 56.1552 33.5719 54.4375C30.0076 52.3429 28.6651 45.2016 30.5177 41.6709C30.5744 41.5644 30.5468 41.4285 30.7293 41.4691L30.7307 41.4705Z" fill="#DA9B81"/>
<path d="M15.1808 77.6141C15.3799 77.8606 15.1158 78.7307 14.9914 79.0193C14.5711 79.9931 12.9148 80.2985 12.0161 79.944C10.6155 79.392 9.20806 76.2074 8.63291 74.8175C7.82549 72.8686 8.30939 71.85 10.4303 72.7677C11.9248 73.4136 13.5507 74.987 14.4066 76.3769C14.596 76.6851 14.784 77.2218 14.9416 77.4403C15.0121 77.537 15.1366 77.5594 15.1808 77.6141Z" fill="#181613"/>
<path d="M3.9515 72.112C5.04097 71.8893 6.41802 73.4627 6.97244 74.2851C7.77295 75.4718 8.18772 76.6207 8.04117 78.089C7.93333 79.1777 6.87289 79.8418 6.08482 78.9283C5.52487 78.281 4.46997 76.2718 4.03446 75.4298C3.65839 74.7012 2.5786 72.3936 3.9515 72.112Z" fill="#181613"/>
<path d="M35.9167 39.2779C42.4743 38.6025 44.5564 49.2605 38.8478 52.2518C33.6921 54.9531 29.8278 48.5754 30.9933 43.9897C31.5796 41.6835 33.4834 39.5286 35.9153 39.2779H35.9167ZM35.1604 42.1767C32.1796 42.5844 31.0887 46.5606 32.1741 49.0574C33.9037 53.0364 39.1008 52.5727 40.0285 48.3302C40.7129 45.2002 38.5823 41.7073 35.1604 42.1767Z" fill="#0271E5"/>
<path d="M35.1604 42.1767C38.5823 41.7073 40.7129 45.2002 40.0285 48.3302C39.1022 52.5727 33.9037 53.035 32.1741 49.0574C31.0887 46.5606 32.1796 42.5858 35.1604 42.1767ZM35.3111 42.9403C31.3694 43.4867 31.816 50.6238 35.6692 51.0147C40.811 51.5373 40.4543 42.2271 35.3111 42.9403Z" fill="#FEFEFE"/>
<path d="M35.3111 42.9403C40.4543 42.2285 40.811 51.5373 35.6692 51.0147C31.816 50.6238 31.3694 43.4867 35.3111 42.9403ZM35.3111 46.0675C34.418 46.1894 34.0405 47.4181 34.1429 48.2097C34.2797 49.2759 35.4273 50.6336 36.532 49.9064C38.0625 48.8976 37.0352 45.8321 35.3125 46.0689L35.3111 46.0675Z" fill="#0271E5"/>
<path d="M35.3111 46.0675C37.0338 45.8321 38.0611 48.8976 36.5306 49.905C35.4259 50.6336 34.2784 49.2759 34.1415 48.2083C34.0392 47.4167 34.418 46.188 35.3098 46.0661L35.3111 46.0675Z" fill="#FEFEFE"/>
</svg>
